<svg width="140" height="143" viewBox="0 0 140 143" fill="none" xmlns="http://www.w3.org/2000/svg">
<ellipse cx="16.5" cy="74" rx="11" ry="16" fill="#FEF4F7"/>
<ellipse cx="108.5" cy="74" rx="11" ry="16" fill="#FEF4F7"/>
<path d="M112.5 67.4174C112.5 104.077 80 143 62.5 143C45 143 12.4998 97.9127 12.5 67.4174C12.5 41.2295 34.8858 20 62.5 20C90.1142 20 112.5 41.2295 112.5 67.4174Z" fill="#FFC0CF"/>
<path d="M48.5 112L56.3011 105.759C57.6312 104.695 59.4726 104.54 60.9616 105.368C62.2293 106.072 63.7707 106.072 65.0384 105.368L65.0944 105.337C66.5615 104.521 68.3682 104.632 69.7255 105.619L78.5 112L73.7273 113.591C72.9101 113.863 72.1133 114.193 71.3429 114.579C68.8157 115.842 66.029 116.5 63.2035 116.5H63C60.0407 116.5 57.122 115.811 54.4751 114.488L53.5 114L48.5 112Z" fill="#FF0000"/>
<path d="M48.5 112L56.3011 105.759C57.6312 104.695 59.4726 104.54 60.9616 105.368V105.368C62.2293 106.072 63.7707 106.072 65.0384 105.368L65.0944 105.337C66.5615 104.521 68.3682 104.632 69.7255 105.619L78.5 112M48.5 112L56.4071 110.023C57.7401 109.69 59.1518 109.935 60.295 110.697V110.697C61.933 111.789 64.0861 111.776 65.7241 110.684V110.684C66.85 109.933 68.2472 109.67 69.5666 109.97L78.5 112M48.5 112L53.5 114L54.4751 114.488C57.122 115.811 60.0407 116.5 63 116.5H63.2035C66.029 116.5 68.8157 115.842 71.3429 114.579V114.579C72.1133 114.193 72.9101 113.863 73.7273 113.591L78.5 112" stroke="black"/>
<circle cx="41" cy="69.5" r="3.5" fill="#292727"/>
<path d="M27.5 58.9089C40.2373 47.6589 56 64.27 56 64.27" stroke="black"/>
<path d="M27.5 65.2006C42.3069 59.138 47.8674 71.9154 50 75.3645" stroke="black"/>
<path d="M50.5 75.77C34.0562 76.3028 28.3151 68.4597 27.5 64.4716" stroke="black"/>
<circle r="3.5" transform="matrix(-1 0 0 1 83.5 69.5)" fill="#292727"/>
<path d="M97 58.9089C84.2627 47.6589 68.5 64.27 68.5 64.27" stroke="black"/>
<path d="M97 65.2006C82.1931 59.138 76.6326 71.9154 74.5 75.3645" stroke="black"/>
<path d="M74 75.77C90.4438 76.3028 96.1849 68.4597 97 64.4716" stroke="black"/>
<path d="M45.8685 75.33C45.869 75.3328 45.9205 75.5189 45.9501 75.4597C45.965 75.4299 45.9253 75.3775 45.9102 75.355" stroke="black" stroke-linecap="round"/>
<path d="M103.912 26.1883L107.789 32.1178C109.26 34.3688 110.544 36.7371 111.627 39.1988L115.5 48L119.225 55.1843C121.397 59.3728 122.953 63.8531 123.844 68.4863L124.475 71.7719C124.824 73.5865 125 75.4302 125 77.278C125 82.021 123.843 86.6924 121.629 90.887L116.905 99.8385C115.996 101.561 114.524 102.918 112.734 103.685L110.137 104.798C109.116 105.236 107.942 105.128 107.018 104.512C105.401 103.434 105.066 101.197 106.297 99.693L107.4 98.3449C108.111 97.4752 108.5 96.386 108.5 95.2623V68V51.5L100.352 49.463C96.4654 48.4913 92.4742 48 88.4678 48H79.5H63.5H44.5H27.9497C24.7805 48 21.741 49.259 19.5 51.5V96.4676C19.5 98.1146 20.0146 99.7205 20.9719 101.061L21.4886 101.784C21.8254 102.256 22.0537 102.796 22.1574 103.366L22.1977 103.587C22.6155 105.885 20.8504 108 18.5151 108C17.2571 108 16.0832 107.368 15.3905 106.318L4.82162 90.2941C2.32878 86.5146 1 82.0866 1 77.5591C1 75.5285 1.26739 73.5068 1.79529 71.5461L2.49723 68.9389C3.82212 64.0178 6.00059 59.3676 8.93346 55.1998L14 48L16.5 39.5L19.85 30.7899C20.9442 27.9451 22.4467 25.2748 24.3104 22.863L25.2644 21.6284C28.355 17.6288 32.5393 14.6113 37.3101 12.9415C39.0981 12.3157 40.9488 11.8861 42.8296 11.6604L59.1619 9.70057C63.0401 9.23519 66.9599 9.23519 70.8381 9.70057L78.9139 10.6697C86.1239 11.5349 92.883 14.6323 98.2457 19.5287C100.407 21.5017 102.31 23.7392 103.912 26.1883Z" fill="black"/>
<path d="M108.5 51.5V68V95.2623C108.5 96.386 108.111 97.4752 107.4 98.3449L106.297 99.693C105.066 101.197 105.401 103.434 107.018 104.512V104.512C107.942 105.128 109.116 105.236 110.137 104.798L112.734 103.685C114.524 102.918 115.996 101.561 116.905 99.8385L121.629 90.887C123.843 86.6924 125 82.021 125 77.278V77.278C125 75.4302 124.824 73.5865 124.475 71.7719L123.844 68.4863C122.953 63.8531 121.397 59.3728 119.225 55.1843L115.5 48M108.5 51.5L115.5 48M108.5 51.5L100.352 49.463C96.4654 48.4913 92.4742 48 88.4678 48H79.5H63.5H44.5H27.9497C24.7805 48 21.741 49.259 19.5 51.5V51.5M14 48L16.5 39.5L19.85 30.7899C20.9442 27.9451 22.4467 25.2748 24.3104 22.863L25.2644 21.6284C28.355 17.6288 32.5393 14.6113 37.3101 12.9415V12.9415C39.0981 12.3157 40.9488 11.8861 42.8296 11.6604L59.1619 9.70057C63.0401 9.23519 66.9599 9.23519 70.8381 9.70057L78.9139 10.6697C86.1239 11.5349 92.883 14.6323 98.2457 19.5287V19.5287C100.407 21.5017 102.31 23.7392 103.912 26.1883L107.789 32.1178C109.26 34.3688 110.544 36.7371 111.627 39.1988L115.5 48M14 48L8.93346 55.1998C6.00059 59.3676 3.82212 64.0178 2.49723 68.9389L1.79529 71.5461C1.26739 73.5068 1 75.5285 1 77.5591V77.5591C1 82.0866 2.32878 86.5146 4.82162 90.2941L15.3905 106.318C16.0832 107.368 17.2571 108 18.5151 108V108C20.8504 108 22.6155 105.885 22.1977 103.587L22.1574 103.366C22.0537 102.796 21.8254 102.256 21.4886 101.784L20.9719 101.061C20.0146 99.7205 19.5 98.1146 19.5 96.4676V51.5M14 48L19.5 51.5" stroke="black"/>
<path d="M30.5 8L44.5802 0H59.5L86 8L100.5 16L112 28L119.5 37L139.5 65.5L136.5 73H126L119.5 67L110.5 49L93.5 39.5L54 37H35L16.5 39.5L19.5 22.5L30.5 8Z" fill="#4D0000"/>
<rect x="90.5" y="11.1815" width="11" height="5" transform="rotate(-48.0533 90.5 11.1815)" fill="#4C0000"/>
</svg>
