<svg width="140" height="143" viewBox="0 0 120 144" fill="none" xmlns="http://www.w3.org/2000/svg">
<path d="M21 74.5C21 85.8218 16.299 95 10.5 95C4.70101 95 0 85.8218 0 74.5C0 63.1782 4.70101 54 10.5 54C16.299 54 21 63.1782 21 74.5Z" fill="#FFF0F0"/>
<path d="M119.5 74.5C119.5 85.8218 114.799 95 109 95C103.201 95 98.5 85.8218 98.5 74.5C98.5 63.1782 103.201 54 109 54C114.799 54 119.5 63.1782 119.5 74.5Z" fill="#FFF0F0"/>
<path d="M110 69.0319C110 105.393 77.5 144 60 144C42.5 144 9.99976 99.2793 10 69.0319C10 43.0569 32.3858 22 60 22C87.6142 22 110 43.0569 110 69.0319Z" fill="#FFF0F0"/>
<path d="M53 103V99.5001L54.5 98.0001L57 98.5001L60.5 102.5L63 100L64.5 98.5001H67L68.5 99.0001V102.5L67 107L63.5 110L60 110.5L56.5 109.5L54 106.5L53 103Z" fill="#6C4747"/>
<path d="M34 117L39.3768 109.093C41.3408 106.205 44.5599 104.421 48.0502 104.287L53.8123 104.065C54.9309 104.022 56.0495 104.15 57.1294 104.444L58.1057 104.711C60.0006 105.227 61.9994 105.227 63.8943 104.711L64.808 104.461C65.9289 104.156 67.0912 104.03 68.2516 104.088L71.2146 104.236C74.555 104.403 77.6379 106.08 79.5922 108.795L85.5 117" stroke="black"/>
<path d="M53 104V99.9142C53 99.649 53.1054 99.3946 53.2929 99.2071L53.8041 98.6959C53.9323 98.5677 54.0929 98.4768 54.2687 98.4328L55.7175 98.0706C55.902 98.0245 56.0958 98.0319 56.2763 98.0921L57.2037 98.4012C57.3966 98.4655 57.5654 98.5872 57.6874 98.7499L59 100.5L60.1016 101.877C60.5369 102.421 61.3814 102.364 61.7399 101.767L62.5 100.5L63.787 98.784C63.9248 98.6003 64.1216 98.4696 64.3444 98.4139L65.7575 98.0606C65.9167 98.0208 66.0833 98.0208 66.2425 98.0606L67.5538 98.3884C67.837 98.4593 68.0751 98.6503 68.2057 98.9114L68.3944 99.2889C68.4639 99.4277 68.5 99.5808 68.5 99.7361V104" stroke="black"/>
<path d="M53 104.5L54.4845 107.045C55.7326 109.184 58.0231 110.5 60.5 110.5V110.5C62.9769 110.5 65.2674 109.184 66.5155 107.045L68 104.5" stroke="black"/>
<path d="M21.6459 68.4898L28.6459 65.9898H35.6459L42.6459 67.4898L47.1459 69.9898L49.1459 71.4898L42.6459 74.4898L34.6459 75.9898L28.6459 74.9898L23.6459 72.4898L21.6459 68.4898Z" fill="white"/>
<path d="M21.9573 69.2001C22.9131 68.0194 24.5692 67.3586 25.9318 66.7132C26.8549 66.2759 27.8101 66.0053 28.8314 65.9636C31.0098 65.8747 33.2436 65.8909 35.4207 65.9694C37.6103 66.0483 39.8014 66.646 41.9113 67.2129C43.2436 67.5708 44.554 68.1651 45.6999 68.9387C46.8161 69.6921 48.0453 70.2408 49.1515 70.9782" stroke="black" stroke-linecap="round"/>
<path d="M21.4343 69.2002C22.5093 71.7681 25.3791 73.978 27.9772 74.7843C31.0313 75.7321 34.2966 76.0915 37.4371 75.499C38.0496 75.3834 38.6674 75.2501 39.2733 75.1039C40.0717 74.9111 40.8899 74.8988 41.6731 74.6448C42.7733 74.288 44.0439 74.1596 45.0724 73.6454C46.3702 72.9965 47.7542 72.3979 48.9423 71.6058" stroke="black" stroke-linecap="round"/>
<path d="M31.5798 65.9578C30.032 66.4381 29.6204 67.9858 29.4066 69.4558C29.3072 70.1388 29.3619 70.911 29.5112 71.5826C29.6055 72.0068 29.9388 72.4111 30.1155 72.8086C30.6929 74.1079 31.7729 74.3494 32.8349 75.0574" stroke="black" stroke-linecap="round"/>
<path d="M39.0059 67.2129C40.2768 68.8905 39.7987 71.2895 39.1337 73.1515C38.9762 73.5925 38.6315 74.0474 38.297 74.3485C38.0687 74.5539 37.5537 74.824 37.437 75.0574" stroke="black" stroke-linecap="round"/>
<path d="M48.4495 70.4476C48.7176 70.2189 48.9868 69.8247 48.9999 69.458C49.0014 69.4137 48.9999 69.1961 48.9999 69.2467" stroke="black" stroke-linecap="round"/>
<path d="M48.9998 69.2467C48.7901 69.4958 48.7495 69.6813 48.4494 69.697C48.2089 69.7097 47.9716 69.7471 47.7239 69.7471C47.6798 69.7471 47.5409 69.7467 47.6322 69.672C47.9144 69.4411 48.3949 69.3087 48.7191 69.1522C49.0849 68.9756 49.5222 68.8598 49.8588 68.6268C49.9285 68.5786 49.7106 68.6498 49.6892 68.6574C49.0584 68.8827 48.4449 69.0605 47.7879 69.1967C47.1879 69.3211 46.2803 69.2914 45.7559 68.9243C45.6486 68.8492 46.0601 68.9223 46.0783 68.9243C46.9102 69.0153 47.758 69.0161 48.594 68.9938C49.0803 68.9808 49.5904 68.7885 49.8393 68.3461C50.0271 68.0122 49.4417 69.0012 49.2278 69.319C48.9996 69.6581 48.739 69.9857 48.4494 70.2752C48.4458 70.2789 48.1502 70.557 48.2298 70.5393C48.3398 70.5149 48.5591 70.33 48.6524 70.2669C48.9659 70.0548 49.2479 69.8049 49.4724 69.4997C49.7025 69.1868 50.1006 68.5184 50.1006 68.5184C50.1006 68.5184 49.6884 69.0466 49.4001 69.1967C48.9987 69.4056 48.3456 69.8602 47.8546 69.6692C47.5415 69.5475 47.8038 69.5139 47.9574 69.4691C48.4267 69.3322 48.8423 69.0653 49.2917 68.877C49.587 68.7533 49.8955 68.5224 50.2007 68.4462" stroke="black" stroke-linecap="round"/>
<path d="M21.28 68.8965C21.4776 68.6583 21.7326 68.4924 21.9305 68.2571C22.0134 68.1585 22.2307 67.9993 22.2307 67.8958" stroke="black" stroke-linecap="round"/>
<path d="M23.882 67.8958C24.3692 67.3041 25.0579 66.8324 25.4831 66.1945" stroke="black" stroke-linecap="round"/>
<path d="M27.4344 66.1945C27.7766 66.0107 28.1506 65.8709 28.4741 65.6553C28.567 65.5933 28.7373 65.5273 28.7854 65.419C28.8425 65.2905 29.0293 65.2236 29.1357 65.1438" stroke="black" stroke-linecap="round"/>
<path d="M21.7305 67.7957C21.8663 67.4222 22.0641 67.0938 22.2697 66.7561C22.2914 66.7206 22.3809 66.5176 22.3809 66.606C22.3809 66.7844 22.3518 66.9919 22.3837 67.1675C22.4114 67.3199 22.4391 67.4863 22.4782 67.6234C22.5181 67.7629 22.3335 67.7905 22.2809 67.8958" stroke="black" stroke-linecap="round"/>
<path d="M24.9827 66.9451C24.9827 66.5923 25.0222 66.2839 25.1078 65.9416C25.129 65.8565 25.1576 65.4387 25.2579 65.6192C25.4747 66.0095 25.8395 66.3968 26.2836 66.5448" stroke="black" stroke-linecap="round"/>
<path d="M28.1851 66.1946C28.6386 65.9723 29.1111 65.7542 29.4359 65.3551C29.4549 65.3318 29.7545 64.9842 29.7751 65.0048C29.7869 65.0166 29.8116 65.2433 29.8362 65.2939C29.9047 65.4347 29.9672 65.5431 30.0753 65.6553C30.1445 65.7271 30.3924 66.0387 30.4867 65.9444" stroke="black" stroke-linecap="round"/>
<path d="M40.4437 66.9951C41.522 66.9951 42.5805 67.2521 43.6655 67.237C44.6994 67.2225 45.5599 66.9612 46.4925 66.5726C46.599 66.5282 47.7999 65.7798 47.8879 65.9055C47.9115 65.9392 47.2935 66.4779 47.2236 66.5448C46.8642 66.8886 46.6194 67.2873 46.2006 67.5705C45.9587 67.7342 45.7619 67.8457 45.4723 67.8457C45.2419 67.8457 45.2108 67.9898 45.2499 67.918C45.3606 67.7151 45.945 67.7464 46.1589 67.6956C46.4788 67.6197 47.1143 67.4535 47.2375 67.0841C47.3005 66.8951 47.1843 66.8505 47.0707 66.9951C46.7368 67.42 45.9007 67.5906 45.4028 67.7151C45.2768 67.7466 44.0134 67.9774 44.0685 67.7568C44.0785 67.7169 45.1968 67.7241 45.3472 67.6845C45.6052 67.6166 45.7642 67.3553 45.9977 67.2342C46.5123 66.9673 47.1162 66.7228 47.5738 66.3669C47.6152 66.3347 47.822 66.1103 47.6989 66.3058C47.5679 66.5139 47.4511 66.7293 47.3375 66.9451C47.2814 67.0517 47.1694 67.1316 47.0985 67.2203C46.9755 67.374 47.4172 66.9859 47.5933 66.8978C47.9752 66.7069 48.3668 66.4306 48.5495 66.0194C48.5921 65.9236 48.6736 65.8143 48.7385 65.7331C48.8608 65.5803 48.4964 65.7198 48.4605 65.7442C48.1631 65.9465 47.8537 66.1237 47.5488 66.3197C47.3039 66.4771 47.0957 66.6555 46.8372 66.795C46.3304 67.0685 45.7379 67.1622 45.2082 67.3843C44.8455 67.5364 44.5015 67.7457 44.0963 67.7457" stroke="black" stroke-linecap="round"/>
<path d="M39.1428 66.2946C40.2042 66.2495 41.0676 65.6802 42.0227 65.2939C42.5285 65.0893 43.0626 64.8561 43.4959 64.5156C43.6224 64.4162 43.7106 64.2231 43.8073 64.0931C43.8768 63.9995 44.0206 63.8492 43.8962 64.0541C43.7715 64.2596 43.6485 64.4041 43.4459 64.5434C43.0141 64.8402 42.6544 65.2493 42.2367 65.5691C41.7879 65.9127 41.2285 66.2203 40.6717 66.3447C40.579 66.3654 39.9893 66.4825 40.0796 66.492C40.4569 66.5317 40.9061 66.1086 41.2054 65.9333C41.917 65.5164 42.635 65.1107 43.3458 64.6935C43.5526 64.5721 44.158 64.1844 43.9629 64.3238C43.6961 64.5143 43.5023 64.8209 43.293 65.0688C42.8605 65.5809 42.2939 65.8596 41.678 66.1C41.4481 66.1898 40.858 66.3168 40.744 66.5448" stroke="black" stroke-linecap="round"/>
<path d="M35.3401 65.8443C36.0144 65.4873 36.3795 64.8407 36.6521 64.1931C36.69 64.1031 36.6962 63.9433 36.7661 63.8734C36.7814 63.8582 36.7911 64.2044 36.7911 64.2459C36.7911 64.7775 37.2842 65.3962 37.6918 65.7164C38.1212 66.0539 37.4578 65.7476 37.2915 65.6442C36.9101 65.4068 36.4986 65.1025 36.2463 64.7241C36.1861 64.6337 36.047 64.4253 36.1712 64.6462C36.2945 64.8654 36.5377 65.1493 36.7522 65.2828C36.7953 65.3096 37.1663 65.4495 36.9913 65.444C36.5856 65.4313 36.6147 64.841 36.4909 64.5934" stroke="black" stroke-linecap="round"/>
<path d="M31.4873 65.5441C31.8716 65.205 32.1474 64.7602 32.438 64.3404C32.6808 63.9898 32.9731 63.6788 33.1635 63.298C33.3257 62.9737 33.2004 63.5392 33.1774 63.6427C33.0988 63.9963 32.9513 64.2424 33.1969 64.5739C33.3782 64.8187 33.6137 65.0249 33.7778 65.2828C33.8029 65.3221 34.0216 65.5717 33.8668 65.533C33.5172 65.4456 32.5881 65.2067 32.5881 64.7463C32.5881 64.5797 32.688 64.6605 32.7493 64.7546C32.9527 65.067 33.2502 65.2862 33.4276 65.6219C33.5598 65.8723 33.5847 65.7877 33.4359 65.5719C33.283 65.3501 33.0253 65.1596 32.8132 64.9937C32.4437 64.7045 32.5381 64.2667 32.5381 63.8429" stroke="black" stroke-linecap="round"/>
<path d="M40.1459 71.4898C40.1459 73.9751 37.8007 75.9898 34.9078 75.9898C32.0149 75.9898 29.1459 73.9751 29.1459 71.4898C30.1459 66.9898 30.6459 65.4898 34.9078 66.2578C39.6459 65.4898 40.1459 69.0045 40.1459 71.4898Z" fill="black"/>
<path d="M41.2919 48.1836L40.2572 54.6007L23.4426 61.5123L19.1592 59.8087" stroke="black" stroke-width="2"/>
<path d="M98.5548 68.4898L91.5548 65.9898H84.5548L77.5548 67.4898L73.0548 69.9898L71.0548 71.4898L77.5548 74.4898L85.5548 75.9898L91.5548 74.9898L96.5548 72.4898L98.5548 68.4898Z" fill="white"/>
<path d="M98.2434 69.2001C97.2876 68.0194 95.6314 67.3586 94.2689 66.7132C93.3458 66.2759 92.3906 66.0053 91.3693 65.9636C89.1909 65.8747 86.9571 65.8909 84.7799 65.9694C82.5903 66.0483 80.3993 66.646 78.2894 67.2129C76.9571 67.5708 75.6467 68.1651 74.5008 68.9387C73.3846 69.6921 72.1554 70.2408 71.0492 70.9782" stroke="black" stroke-linecap="round"/>
<path d="M98.7664 69.2002C97.6914 71.7681 94.8216 73.978 92.2235 74.7843C89.1694 75.7321 85.9041 76.0915 82.7636 75.499C82.1511 75.3834 81.5333 75.2501 80.9274 75.1039C80.129 74.9111 79.3108 74.8988 78.5276 74.6448C77.4274 74.288 76.1568 74.1596 75.1283 73.6454C73.8305 72.9965 72.4465 72.3979 71.2584 71.6058" stroke="black" stroke-linecap="round"/>
<path d="M88.6209 65.9578C90.1687 66.4381 90.5803 67.9858 90.7941 69.4558C90.8934 70.1388 90.8387 70.911 90.6895 71.5826C90.5952 72.0068 90.2618 72.4111 90.0852 72.8086C89.5078 74.1079 88.4278 74.3494 87.3658 75.0574" stroke="black" stroke-linecap="round"/>
<path d="M81.1948 67.2129C79.9239 68.8905 80.402 71.2895 81.0669 73.1515C81.2244 73.5925 81.5692 74.0474 81.9037 74.3485C82.132 74.5539 82.647 74.824 82.7637 75.0574" stroke="black" stroke-linecap="round"/>
<path d="M71.7512 70.4476C71.4831 70.2189 71.2139 69.8247 71.2008 69.458C71.1992 69.4137 71.2008 69.1961 71.2008 69.2467" stroke="black" stroke-linecap="round"/>
<path d="M71.2008 69.2467C71.4106 69.4958 71.4512 69.6813 71.7512 69.697C71.9918 69.7097 72.229 69.7471 72.4768 69.7471C72.5209 69.7471 72.6598 69.7467 72.5685 69.672C72.2863 69.4411 71.8057 69.3087 71.4816 69.1522C71.1158 68.9756 70.6784 68.8598 70.3419 68.6268C70.2722 68.5786 70.4901 68.6498 70.5115 68.6574C71.1423 68.8827 71.7558 69.0605 72.4128 69.1967C73.0128 69.3211 73.9204 69.2914 74.4448 68.9243C74.5521 68.8492 74.1406 68.9223 74.1224 68.9243C73.2904 69.0153 72.4427 69.0161 71.6067 68.9938C71.1204 68.9808 70.6102 68.7885 70.3614 68.3461C70.1736 68.0122 70.759 69.0012 70.9729 69.319C71.2011 69.6581 71.4617 69.9857 71.7512 70.2752C71.7549 70.2789 72.0505 70.557 71.9708 70.5393C71.8609 70.5149 71.6416 70.33 71.5483 70.2669C71.2348 70.0548 70.9528 69.8049 70.7283 69.4997C70.4982 69.1868 70.1001 68.5184 70.1001 68.5184C70.1001 68.5184 70.5123 69.0466 70.8006 69.1967C71.2019 69.4056 71.8551 69.8602 72.3461 69.6692C72.6592 69.5475 72.3969 69.5139 72.2433 69.4691C71.774 69.3322 71.3584 69.0653 70.909 68.877C70.6137 68.7533 70.3052 68.5224 70 68.4462" stroke="black" stroke-linecap="round"/>
<path d="M98.9207 68.8965C98.7231 68.6583 98.4681 68.4924 98.2702 68.2571C98.1872 68.1585 97.97 67.9993 97.97 67.8958" stroke="black" stroke-linecap="round"/>
<path d="M96.3187 67.8958C95.8315 67.3041 95.1428 66.8324 94.7176 66.1945" stroke="black" stroke-linecap="round"/>
<path d="M92.7662 66.1945C92.4241 66.0107 92.0501 65.8709 91.7266 65.6553C91.6337 65.5933 91.4634 65.5273 91.4153 65.419C91.3582 65.2905 91.1714 65.2236 91.065 65.1438" stroke="black" stroke-linecap="round"/>
<path d="M98.4702 67.7957C98.3344 67.4222 98.1365 67.0938 97.9309 66.7561C97.9093 66.7206 97.8198 66.5176 97.8198 66.606C97.8198 66.7844 97.8489 66.9919 97.817 67.1675C97.7893 67.3199 97.7616 67.4863 97.7225 67.6234C97.6826 67.7629 97.8672 67.7905 97.9198 67.8958" stroke="black" stroke-linecap="round"/>
<path d="M95.218 66.9451C95.218 66.5923 95.1785 66.2839 95.0929 65.9416C95.0716 65.8565 95.0431 65.4387 94.9428 65.6192C94.726 66.0095 94.3611 66.3968 93.9171 66.5448" stroke="black" stroke-linecap="round"/>
<path d="M92.0156 66.1946C91.5621 65.9723 91.0896 65.7542 90.7647 65.3551C90.7458 65.3318 90.4462 64.9842 90.4256 65.0048C90.4138 65.0166 90.3891 65.2433 90.3644 65.2939C90.296 65.4347 90.2335 65.5431 90.1254 65.6553C90.0562 65.7271 89.8083 66.0387 89.714 65.9444" stroke="black" stroke-linecap="round"/>
<path d="M79.757 66.9951C78.6787 66.9951 77.6202 67.2521 76.5352 67.237C75.5012 67.2225 74.6408 66.9612 73.7082 66.5726C73.6017 66.5282 72.4008 65.7798 72.3128 65.9055C72.2891 65.9392 72.9071 66.4779 72.9771 66.5448C73.3365 66.8886 73.5813 67.2873 74.0001 67.5705C74.242 67.7342 74.4388 67.8457 74.7284 67.8457C74.9588 67.8457 74.9899 67.9898 74.9508 67.918C74.8401 67.7151 74.2556 67.7464 74.0418 67.6956C73.7219 67.6197 73.0864 67.4535 72.9632 67.0841C72.9002 66.8951 73.0164 66.8505 73.13 66.9951C73.4638 67.42 74.2999 67.5906 74.7979 67.7151C74.9239 67.7466 76.1873 67.9774 76.1322 67.7568C76.1222 67.7169 75.0039 67.7241 74.8535 67.6845C74.5955 67.6166 74.4365 67.3553 74.203 67.2342C73.6884 66.9673 73.0845 66.7228 72.6269 66.3669C72.5854 66.3347 72.3787 66.1103 72.5018 66.3058C72.6328 66.5139 72.7496 66.7293 72.8632 66.9451C72.9193 67.0517 73.0313 67.1316 73.1022 67.2203C73.2252 67.374 72.7835 66.9859 72.6074 66.8978C72.2255 66.7069 71.8339 66.4306 71.6512 66.0194C71.6086 65.9236 71.5271 65.8143 71.4622 65.7331C71.3399 65.5803 71.7043 65.7198 71.7401 65.7442C72.0376 65.9465 72.347 66.1237 72.6519 66.3197C72.8968 66.4771 73.105 66.6555 73.3635 66.795C73.8703 67.0685 74.4628 67.1622 74.9925 67.3843C75.3552 67.5364 75.6992 67.7457 76.1044 67.7457" stroke="black" stroke-linecap="round"/>
<path d="M81.0579 66.2946C79.9965 66.2495 79.1331 65.6802 78.178 65.2939C77.6722 65.0893 77.1381 64.8561 76.7048 64.5156C76.5783 64.4162 76.49 64.2231 76.3934 64.0931C76.3239 63.9995 76.1801 63.8492 76.3045 64.0541C76.4292 64.2596 76.5522 64.4041 76.7548 64.5434C77.1866 64.8402 77.5463 65.2493 77.964 65.5691C78.4128 65.9127 78.9721 66.2203 79.529 66.3447C79.6216 66.3654 80.2114 66.4825 80.1211 66.492C79.7438 66.5317 79.2945 66.1086 78.9953 65.9333C78.2837 65.5164 77.5657 65.1107 76.8549 64.6935C76.6481 64.5721 76.0426 64.1844 76.2378 64.3238C76.5045 64.5143 76.6984 64.8209 76.9077 65.0688C77.3402 65.5809 77.9068 65.8596 78.5227 66.1C78.7526 66.1898 79.3427 66.3168 79.4567 66.5448" stroke="black" stroke-linecap="round"/>
<path d="M84.8606 65.8443C84.1862 65.4873 83.8212 64.8407 83.5486 64.1931C83.5107 64.1031 83.5045 63.9433 83.4346 63.8734C83.4193 63.8582 83.4096 64.2044 83.4096 64.2459C83.4096 64.7775 82.9165 65.3962 82.5089 65.7164C82.0795 66.0539 82.7429 65.7476 82.9092 65.6442C83.2906 65.4068 83.7021 65.1025 83.9544 64.7241C84.0146 64.6337 84.1537 64.4253 84.0294 64.6462C83.9062 64.8654 83.663 65.1493 83.4485 65.2828C83.4054 65.3096 83.0343 65.4495 83.2094 65.444C83.6151 65.4313 83.586 64.841 83.7098 64.5934" stroke="black" stroke-linecap="round"/>
<path d="M88.7134 65.5441C88.3291 65.205 88.0533 64.7602 87.7627 64.3404C87.5199 63.9898 87.2276 63.6788 87.0372 63.298C86.875 62.9737 87.0003 63.5392 87.0233 63.6427C87.1019 63.9963 87.2494 64.2424 87.0038 64.5739C86.8225 64.8187 86.5869 65.0249 86.4229 65.2828C86.3978 65.3221 86.1791 65.5717 86.3339 65.533C86.6835 65.4456 87.6126 65.2067 87.6126 64.7463C87.6126 64.5797 87.5127 64.6605 87.4514 64.7546C87.2479 65.067 86.9505 65.2862 86.7731 65.6219C86.6409 65.8723 86.616 65.7877 86.7648 65.5719C86.9177 65.3501 87.1754 65.1596 87.3874 64.9937C87.757 64.7045 87.6626 64.2667 87.6626 63.8429" stroke="black" stroke-linecap="round"/>
<path d="M80.0548 71.4898C80.0548 73.9751 82.4 75.9898 85.2929 75.9898C88.1858 75.9898 91.0548 73.9751 91.0548 71.4898C90.0548 66.9898 89.5548 65.4898 85.2929 66.2578C80.5548 65.4898 80.0548 69.0045 80.0548 71.4898Z" fill="black"/>
<path d="M78.9088 48.1836L79.9435 54.6007L96.7581 61.5123L101.042 59.8087" stroke="black" stroke-width="2"/>
<path d="M26.5 29.5L43 23L59.5 19.5L81 25L91.5 29.5L108 51L61.5 39.5L43 42L12.5 51L26.5 29.5Z" fill="#B4B6A4"/>
<ellipse cx="60.5" cy="13" rx="16.5" ry="13" fill="#B4B6A4"/>
<path d="M12.6027 51.7672C12.5441 50.7583 13.2473 49.8641 14.2416 49.6833L18 49L20.5 94L16.5 96.5L15 93L12.6027 51.7672Z" fill="#B4B6A4"/>
<path d="M107.897 51.7672C107.956 50.7583 107.253 49.8641 106.258 49.6833L102.5 49L100 94L104 96.5L105.5 93L107.897 51.7672Z" fill="#B4B6A4"/>
</svg>
