<svg width="116" height="131" viewBox="0 0 116 131" fill="none" xmlns="http://www.w3.org/2000/svg">
<path d="M107 56.0319C107 92.3934 74.5 131 57 131C39.5 131 6.99976 86.2793 7 56.0319C7 30.0569 29.3858 9 57 9C84.6142 9 107 30.0569 107 56.0319Z" fill="#FFF0F0"/>
<ellipse cx="10.5" cy="58.5" rx="10.5" ry="20.5" fill="#FFF0F0"/>
<ellipse cx="106" cy="58.5" rx="10" ry="20.5" fill="#FFF0F0"/>
<path d="M40.8637 3.05962L25.2686 9.88249C25.0932 9.95921 24.9436 10.0847 24.8374 10.2439L16.0683 23.3976C16.0229 23.4656 15.9861 23.5389 15.9586 23.6159L11.6091 35.7946C11.3444 36.5356 11.9996 37.2779 12.7677 37.1072L55.7888 27.5469C55.928 27.516 56.0722 27.5152 56.2117 27.5446L101.685 37.1179C102.464 37.2819 103.113 36.5145 102.822 35.7737L98.0294 23.5749C98.0098 23.5251 97.9863 23.4768 97.959 23.4308L90.1575 10.2657C90.0549 10.0926 89.9024 9.95447 89.7201 9.86937L75.146 3.06814C75.0493 3.023 74.946 2.99364 74.84 2.98117L58.1168 1.01375C58.0392 1.00461 57.9608 1.00461 57.8832 1.01375L41.1477 2.98262C41.0498 2.99414 40.9541 3.02009 40.8637 3.05962Z" fill="#C4C4C4" stroke="#C4C4C4" stroke-linecap="round" stroke-linejoin="round"/>
<path d="M53 55.3969C53 61.6913 45.713 47.4191 36.9204 47.4191C28.1278 47.4191 21 61.6913 21 55.3969C21 49.1026 28.1278 44 36.9204 44C45.713 44 53 49.1026 53 55.3969Z" fill="#C4C4C4"/>
<path d="M73 90.3969C73 96.6913 65.713 82.4191 56.9204 82.4191C48.1278 82.4191 41 96.6913 41 90.3969C41 84.1026 48.1278 79 56.9204 79C65.713 79 73 84.1026 73 90.3969Z" fill="#C4C4C4"/>
<path d="M93 55.3969C93 61.6913 85.713 47.4191 76.9204 47.4191C68.1278 47.4191 61 61.6913 61 55.3969C61 49.1026 68.1278 44 76.9204 44C85.713 44 93 49.1026 93 55.3969Z" fill="#C4C4C4"/>
<path d="M45 55L28 66" stroke="black" stroke-linecap="round" stroke-linejoin="round"/>
<path d="M27.4686 55.9247L45.5313 65.0755" stroke="black" stroke-linecap="round" stroke-linejoin="round"/>
<path d="M85.5315 55.613L68.5315 66.613" stroke="black" stroke-linecap="round" stroke-linejoin="round"/>
<path d="M68 56.5378L86.0628 65.6885" stroke="black" stroke-linecap="round" stroke-linejoin="round"/>
<path d="M41 105.643C53.0732 88.8958 59.9391 86.0635 72 105.643" stroke="#984F4F" stroke-linecap="round" stroke-linejoin="round"/>
<path d="M11 36.5L15 35.5H20.5L15 79.5H12L11 36.5Z" fill="#C4C4C4"/>
<path d="M103 33L99 33.5281L93 36.1685L99 80H102L103 33Z" fill="#C4C4C4"/>
</svg>
