<svg width="125" height="167" viewBox="0 0 125 167" fill="none" xmlns="http://www.w3.org/2000/svg">
<path d="M19 71H112L109 148L93 152H88.5L32 156L0 148L19 71Z" fill="#583808"/>
<ellipse cx="14.5" cy="91.5" rx="10.5" ry="20.5" fill="#DFC1C1"/>
<ellipse cx="114.5" cy="91.5" rx="10.5" ry="20.5" fill="#DFC1C1"/>
<path d="M115 91.4174C115 128.077 82.5 167 65 167C47.5 167 14.9998 121.913 15 91.4174C15 65.2295 37.3858 44 65 44C92.6142 44 115 65.2295 115 91.4174Z" fill="#DFC1C1"/>
<path d="M21.8717 44.8554C21.9536 44.3096 22.2574 43.8218 22.7111 43.5077L31.75 37.25L44.1947 30.6616C44.3967 30.5547 44.6156 30.4831 44.8418 30.4501L68.3565 27.0209C68.452 27.007 68.5485 27 68.6451 27H85.2048C85.7155 27 86.2068 27.1953 86.5781 27.546L103.575 43.5984C103.852 43.8607 104.049 44.1969 104.142 44.5674L111 72H104L90.2859 60.2451C90.097 60.0831 89.9399 59.8873 89.8228 59.6677L86.9593 54.2988C86.4325 53.3109 85.1975 52.9479 84.2199 53.4935L64.7192 64.3776C64.5736 64.4589 64.4185 64.5216 64.2573 64.5644L40 71L19 79V64.1492C19 64.0499 19.0074 63.9507 19.0221 63.8525L21.8717 44.8554Z" fill="#583808"/>
<path d="M104.5 47.1417V50.5039L64.3493 41.7303L64.2418 41.7068L64.1344 41.7306L43.7557 46.2494L43.7437 46.252L43.7318 46.2553L21.5613 52.3278L21.9628 47.7847L64.2438 38.5116L104.5 47.1417Z" fill="white" stroke="black"/>
<path d="M53.305 18.534L55.7869 21.4605L59.1712 39.5932L44.0971 42.1845L37.9898 30.1909L40.342 21.4384C41.9116 15.598 49.3933 13.9216 53.305 18.534ZM60.1711 39.5L56.771 21.2829L60.1843 12.1177L60.7666 11.561C63.2792 9.1589 67.2371 9.15885 69.7498 11.5609L70.3323 12.1177L73.7457 21.2829L70.3455 39.5H60.1711ZM37.0195 30.4891L43.0857 42.4021L23.231 47.1889C22.8993 47.2689 22.5867 47.0005 22.6156 46.6605L23.7262 33.5848C24.3151 26.6524 33.4336 24.5347 37.0195 30.4891ZM71.3403 39.6204L74.744 21.3844C77.3304 15.4012 86.1038 16.2913 87.42 22.6968L87.6306 23.7221V43.3718L71.3403 39.6204ZM88.6306 43.6047V24.0453L94.1938 22.4088C98.8436 21.0409 103.55 24.3764 103.8 29.2168L104.5 42.7527V47.3676L88.6306 43.6047Z" fill="white" stroke="black"/>
<circle cx="39" cy="91" r="10" fill="white"/>
<path d="M21 79.3H27.3699L35 78L45.6575 76.6L51 75.5L57 76.6L53.5 71L41 74.3H27.3699L22.5 73L21 79.3Z" fill="#583808"/>
<circle cx="39.5" cy="91.5" r="4.5" fill="#17470F"/>
<circle r="10" transform="matrix(-1 0 0 1 92 91)" fill="white"/>
<path d="M110 79.3H103.63L96 78L85.3425 76.6L80 75.5L74 76.6L77.5 71L90 74.3H103.63L108.5 73L110 79.3Z" fill="#583808"/>
<circle r="4.5" transform="matrix(-1 0 0 1 91.5 91.5)" fill="#17470F"/>
<path d="M44 132L49.8105 129.765C54.5629 127.937 59.6112 127 64.7029 127V127C70.1801 127 75.603 128.085 80.6588 130.191L85 132" stroke="black"/>
</svg>
