<svg width="140" height="143" viewBox="0 0 114 129" fill="none" xmlns="http://www.w3.org/2000/svg">
<path d="M21 53.0007C21 64.3225 16.299 73.5007 10.5 73.5007C4.70101 73.5007 0 64.3225 0 53.0007C0 41.6788 4.70101 32.5007 10.5 32.5007C16.299 32.5007 21 41.6788 21 53.0007Z" fill="#583808"/>
<path d="M113.5 53C113.5 64.3218 109.299 73.5 103.5 73.5C97.701 73.5 93 64.3218 93 53C93 41.6782 97.701 32.5 103.5 32.5C109.299 32.5 113.5 41.6781 113.5 53Z" fill="#583808"/>
<path d="M107 52.9174C107 89.577 74.5 128.5 57 128.5C39.5 128.5 6.99976 83.4127 7 52.9174C7 26.7295 29.3858 5.5 57 5.5C84.6142 5.5 107 26.7295 107 52.9174Z" fill="#583808"/>
<path d="M48.5 50.4001C48.5 53.4989 47.0615 55.6216 44.8995 56.9923C42.713 58.3785 39.7713 58.9999 36.8205 58.9999C33.8693 58.9999 30.7606 58.3783 28.4082 56.9844C26.0769 55.6029 24.5 53.4767 24.5 50.3999C24.5 44.0616 29.1956 38.9999 34.8974 38.9999C37.7761 38.9999 41.1966 40.2819 43.899 42.3804C46.6037 44.4806 48.5 47.3254 48.5 50.4001Z" fill="white" stroke="black"/>
<circle cx="37" cy="49.5" r="4" fill="#2D1E02"/>
<path d="M50 39.5C50 41.433 44.1797 35 37 35C29.8203 35 24 35.933 24 34C24 32.067 29.8203 30.5 37 30.5C44.1797 30.5 50 37.567 50 39.5Z" fill="black"/>
<path d="M63.5 50.4001C63.5 53.4989 64.9385 55.6216 67.1005 56.9923C69.287 58.3785 72.2287 58.9999 75.1795 58.9999C78.1307 58.9999 81.2394 58.3783 83.5918 56.9844C85.9231 55.6029 87.5 53.4767 87.5 50.3999C87.5 44.0616 82.8044 38.9999 77.1026 38.9999C74.2239 38.9999 70.8034 40.2819 68.101 42.3804C65.3963 44.4806 63.5 47.3254 63.5 50.4001Z" fill="white" stroke="black"/>
<circle r="4" transform="matrix(-1 0 0 1 75 49.5)" fill="#2D1E02"/>
<path d="M62 39.5C62 41.433 67.8203 35 75 35C82.1797 35 88 35.933 88 34C88 32.067 82.1797 30.5 75 30.5C67.8203 30.5 62 37.567 62 39.5Z" fill="black"/>
<path d="M47.7552 81.0852L41.875 85.7053C41.6285 85.8991 41.4309 86.1481 41.2983 86.4322L39.0375 91.2769C38.5019 92.4246 39.1545 93.7749 40.3866 94.0682L48.2716 95.9456C48.4233 95.9817 48.5788 96 48.7348 96H64.7851C64.928 96 65.0704 95.9847 65.21 95.9544L73.6337 94.1231C75.0108 93.8237 75.6547 92.232 74.8729 91.0594L71.6566 86.235C71.5527 86.0791 71.4274 85.9386 71.2844 85.8176L65.7976 81.1749C65.2979 80.7521 64.6229 80.6006 63.9904 80.7692L57.9722 82.3741C57.6619 82.4568 57.3364 82.4636 57.023 82.394L49.4247 80.7055C48.8394 80.5754 48.2266 80.7148 47.7552 81.0852Z" fill="#2C1B02" stroke="black" stroke-width="2"/>
<path d="M38.5 92L50.3065 88.0645C51.4282 87.6906 52.6028 87.5 53.7851 87.5H61.0053C62.3244 87.5 63.6326 87.7372 64.8677 88.2004L75 92" stroke="black" stroke-width="2"/>
<path d="M11 33C11 14.7746 25.7746 0 44 0H67.9659C86.4479 0 101.661 14.5371 102.5 33V33H95.5L90.5 18.5L77.5 17.5H56H34L23.5 18.5L18 33H11V33Z" fill="black"/>
<path d="M15 32.5L16 54.5" stroke="black" stroke-width="7"/>
<path d="M99 32.5L98 54.5" stroke="black" stroke-width="7"/>
</svg>
