<svg width="121" height="130" viewBox="0 0 121 130" fill="none" xmlns="http://www.w3.org/2000/svg">
<ellipse cx="10.5" cy="64.5" rx="10.5" ry="20.5" fill="#EFDEDE"/>
<ellipse cx="110.5" cy="64.5" rx="10.5" ry="20.5" fill="#EFDEDE"/>
<path d="M111 54.4174C111 91.077 78.5 130 61 130C43.5 130 10.9998 84.9127 11 54.4174C11 28.2295 33.3858 7 61 7C88.6142 7 111 28.2295 111 54.4174Z" fill="#EFDEDE"/>
<path d="M12 40.8989H17.5V56H12V40.8989Z" fill="#FFE76A"/>
<path d="M111 40H105.5V55.1011H111V40Z" fill="#FFE76A"/>
<path d="M76.2568 67.0866L76.2568 68L45.2448 68L46.2232 65.6093L75.8653 65.6093L76.2568 67.0866Z" fill="black" stroke="#BEB455"/>
<path d="M44.5 0.5H67.5L92 8L96 15L111 41L61 31L37 32.5H24.5L17.5 42H13L9 29.5L15.5 21L24.5 15L37 12.5L44.5 0.5Z" fill="#FFE76A"/>
<path d="M30.3329 56.5L49.3042 56.5L42.5743 76.5H20.4257L13.6958 56.5L30.3329 56.5Z" fill="black" stroke="#BEB455"/>
<path d="M91.6671 56.5L72.6958 56.5L79.4257 76.5H101.574L108.304 56.5L91.6671 56.5Z" fill="black" stroke="#BEB455"/>
<path d="M43 110.819L56.3075 105.536L67.2324 102.293L78.9648 103.267" stroke="black"/>
</svg>
