<svg width="179" height="196" viewBox="0 0 179 196" fill="none" xmlns="http://www.w3.org/2000/svg">
<path d="M17.125 48.9395H38.6289V56H6.13867V50.8438L27.2324 20.4629H6.16797V13.3438H38.1602V18.3828L17.125 48.9395Z" fill="black"/>
<path d="M17.125 48.9395L12.1828 45.5373L5.71037 54.9395H17.125V48.9395ZM38.6289 48.9395H44.6289V42.9395H38.6289V48.9395ZM38.6289 56V62H44.6289V56H38.6289ZM6.13867 56H0.138672V62H6.13867V56ZM6.13867 50.8438L1.21014 47.4218L0.138672 48.965V50.8438H6.13867ZM27.2324 20.4629L32.161 23.8848L38.7027 14.4629H27.2324V20.4629ZM6.16797 20.4629H0.167969V26.4629H6.16797V20.4629ZM6.16797 13.3438V7.34375H0.167969V13.3438H6.16797ZM38.1602 13.3438H44.1602V7.34375H38.1602V13.3438ZM38.1602 18.3828L43.1023 21.785L44.1602 20.2484V18.3828H38.1602ZM17.125 54.9395H38.6289V42.9395H17.125V54.9395ZM32.6289 48.9395V56H44.6289V48.9395H32.6289ZM38.6289 50H6.13867V62H38.6289V50ZM12.1387 56V50.8438H0.138672V56H12.1387ZM11.0672 54.2657L32.161 23.8848L22.3039 17.041L1.21014 47.4218L11.0672 54.2657ZM27.2324 14.4629H6.16797V26.4629H27.2324V14.4629ZM12.168 20.4629V13.3438H0.167969V20.4629H12.168ZM6.16797 19.3438H38.1602V7.34375H6.16797V19.3438ZM32.1602 13.3438V18.3828H44.1602V13.3438H32.1602ZM33.218 14.9806L12.1828 45.5373L22.0672 52.3416L43.1023 21.785L33.218 14.9806Z" fill="black"/>
<path d="M85.125 104.939H106.629V112H74.1387V106.844L95.2324 76.4629H74.168V69.3438H106.16V74.3828L85.125 104.939Z" fill="black"/>
<path d="M85.125 104.939L80.1828 101.537L73.7104 110.939H85.125V104.939ZM106.629 104.939H112.629V98.9395H106.629V104.939ZM106.629 112V118H112.629V112H106.629ZM74.1387 112H68.1387V118H74.1387V112ZM74.1387 106.844L69.2101 103.422L68.1387 104.965V106.844H74.1387ZM95.2324 76.4629L100.161 79.8848L106.703 70.4629H95.2324V76.4629ZM74.168 76.4629H68.168V82.4629H74.168V76.4629ZM74.168 69.3438V63.3438H68.168V69.3438H74.168ZM106.16 69.3438H112.16V63.3438H106.16V69.3438ZM106.16 74.3828L111.102 77.785L112.16 76.2484V74.3828H106.16ZM85.125 110.939H106.629V98.9395H85.125V110.939ZM100.629 104.939V112H112.629V104.939H100.629ZM106.629 106H74.1387V118H106.629V106ZM80.1387 112V106.844H68.1387V112H80.1387ZM79.0672 110.266L100.161 79.8848L90.3039 73.041L69.2101 103.422L79.0672 110.266ZM95.2324 70.4629H74.168V82.4629H95.2324V70.4629ZM80.168 76.4629V69.3438H68.168V76.4629H80.168ZM74.168 75.3438H106.16V63.3438H74.168V75.3438ZM100.16 69.3438V74.3828H112.16V69.3438H100.16ZM101.218 70.9806L80.1828 101.537L90.0672 108.342L111.102 77.785L101.218 70.9806Z" fill="black"/>
<path d="M151.125 174.939H172.629V182H140.139V176.844L161.232 146.463H140.168V139.344H172.16V144.383L151.125 174.939Z" fill="black"/>
<path d="M151.125 174.939L146.183 171.537L139.71 180.939H151.125V174.939ZM172.629 174.939H178.629V168.939H172.629V174.939ZM172.629 182V188H178.629V182H172.629ZM140.139 182H134.139V188H140.139V182ZM140.139 176.844L135.21 173.422L134.139 174.965V176.844H140.139ZM161.232 146.463L166.161 149.885L172.703 140.463H161.232V146.463ZM140.168 146.463H134.168V152.463H140.168V146.463ZM140.168 139.344V133.344H134.168V139.344H140.168ZM172.16 139.344H178.16V133.344H172.16V139.344ZM172.16 144.383L177.102 147.785L178.16 146.248V144.383H172.16ZM151.125 180.939H172.629V168.939H151.125V180.939ZM166.629 174.939V182H178.629V174.939H166.629ZM172.629 176H140.139V188H172.629V176ZM146.139 182V176.844H134.139V182H146.139ZM145.067 180.266L166.161 149.885L156.304 143.041L135.21 173.422L145.067 180.266ZM161.232 140.463H140.168V152.463H161.232V140.463ZM146.168 146.463V139.344H134.168V146.463H146.168ZM140.168 145.344H172.16V133.344H140.168V145.344ZM166.16 139.344V144.383H178.16V139.344H166.16ZM167.218 140.981L146.183 171.537L156.067 178.342L177.102 147.785L167.218 140.981Z" fill="black"/>
</svg>
