<svg width="1137" height="1436" viewBox="0 0 1137 1436" fill="none" xmlns="http://www.w3.org/2000/svg">
<path d="M1012 187.5L956 118.5H921.5L900 124L865 147.5L848 195L834.5 249V301L824 316H795L602.5 257.5L548.5 210L560.5 177L610 156L745.5 137L764.5 124L784.5 58.5L764.5 13L717 3.5L691.5 13L646 58.5L537 100L430 156L415.5 177V210L458.5 277.5L619.5 404.5V442.5L463 676.5L276.5 717L242 734.5L135 990L109.5 1009L3.5 1037.5V1054.5L14.5 1074.5L146.5 1133.5L191 1127.5L202.5 1095.5L331 863L370 846.5L551 829V857.5L519 908.5L499 967.5L485 1003.5L499 1049L727.5 1286L704 1317L667 1361L680.5 1407L727.5 1432.5L771 1407L878.5 1286V1247.5L727.5 1114L646 1014.5L680.5 898.5L771 808L921.5 532L956 562L1012 700L956 846.5L921.5 924L973.5 984.5L1012 967.5L1098.5 808L1133 640L1068 497.5L956 398.5V346.5L1012 265V187.5Z" stroke="white" stroke-width="6"/>
</svg>
