<svg width="1869" height="1162" viewBox="0 0 1869 1162" fill="none" xmlns="http://www.w3.org/2000/svg">
<path d="M924.5 0L963 21C1008.92 11.1944 1034.18 11.4929 1078 27C1123.95 52.2809 1147.01 67.6906 1184 97L1210.5 101L1228.5 97L1234.5 99L1251 97L1262.5 110.5L1291 115L1305 124L1318.5 133H1331.5C1345.81 139.157 1351.28 145.373 1354.5 163.5C1371.51 178.151 1376.14 186.456 1372.5 201.5L1383.5 272.5L1496.5 416L1507.25 505.25L1544 541L1518 594.5L1527.5 643.5L1518 689.5L1478.5 762.5L1436 842L1439 890L1414.5 899.5L1418.5 932.5L1407.5 958.5L1344.61 1014.5L1216 1028.5L1052.5 1150L925.999 1162H787.999L642.999 1070.5L488.999 1014.5L445.5 969.5L438.75 929C418.974 912.5 414.743 903.523 432 888.5L409.5 845L339.499 707.5C333.836 664.933 339.663 662.067 334 619.5C313.015 601.641 312.84 564.915 339.499 540L348.499 481.5L388.499 393L447.945 293.108V249L472 239.5C474.736 207.393 478.848 193.166 500 188C495.794 169.063 496.728 159.822 527.5 155.5C536.796 142.088 545.851 135.37 586.499 128.5L679.499 103C717.794 62.1748 754.438 37.8541 801.5 21C884 30.5 863.001 13.5 924.5 0Z" fill="#CACEB5"/>
<path d="M1408.5 582C1408.5 838.821 1193.87 1047.5 928.5 1047.5C663.132 1047.5 448.5 838.821 448.5 582C448.5 325.179 663.132 116.5 928.5 116.5C1193.87 116.5 1408.5 325.179 1408.5 582Z" fill="#C4C4C4" stroke="#899448" stroke-width="19"/>
<path d="M1299.5 573.5C1299.5 781.265 1133.07 949.5 928 949.5C722.931 949.5 556.5 781.265 556.5 573.5C556.5 365.735 722.931 197.5 928 197.5C1133.07 197.5 1299.5 365.735 1299.5 573.5Z" fill="#C4C4C4" stroke="#899448" stroke-width="19"/>
<path d="M200.5 276L205.5 281L209.5 312L213.5 443L218 445L221 443L213.5 278L218 276L224 293.5L230 347.5L236.5 443H242L239.5 363.5L236.5 321V276L239.5 278L248 316.5L251 358.5L256.5 440.5H263L254.5 273.5L261 281C295.5 470.5 274.115 471.792 263 494.5H199.5L195 471V291L200.5 276Z" fill="#C4C4C4"/>
<path d="M202 494H261L254.5 504.5L246 511.5H209L202 494Z" fill="#C4C4C4"/>
<path d="M209.5 511H249V528.5L241.5 543H215.5L206 526L209.5 511Z" fill="#C4C4C4"/>
<path d="M215.5 543H241L249 756.5L245.5 815.5H208.5L205 756.5L215.5 543Z" fill="#C4C4C4"/>
<path d="M207.5 815H246L253 836L256.5 844V857H198V844L204.5 833.5L207.5 815Z" fill="#C4C4C4"/>
<path d="M198 857H246H256.5L258.5 860.5L264 875.5L268 889L264 910L256.5 917L246 927L234 935.5L222.5 938.5H212L201 931L190 921.5L183.5 905L186 889L190 873L198 857Z" fill="#C4C4C4"/>
<path d="M26.5497 383.663L32.504 386.989L39.5 417L42.0309 494.744L47.3897 496.075L49.5 494.744L42.0309 384.993L47.3897 383.663L52.5 377.5L59.5 432L61.68 494.744H72.9932L70.5 441.5L69.4206 413.595V383.663L72.9932 384.993L77 409.5L81 440L86.6881 496.075L94 492L90.8561 382L94 386.989C135.085 513.036 114.215 513.895 100.978 529H25.3589L20 513.369L17.5 485V452.5L20 393.64L26.5497 383.663Z" fill="#C4C4C4"/>
<path d="M33 527H103L95.2881 538.4L89.5 557.5L72.5 573H40.5L33 562V527Z" fill="#C4C4C4"/>
<path d="M40.4419 573H68V590.5L62.7674 605H44.6279L38 588L40.4419 573Z" fill="#C4C4C4"/>
<path d="M41 602H62L73 783.532L68.9432 829H26.0568L22 783.532L41 602Z" fill="#C4C4C4"/>
<path d="M24 828.5H62.5L69.5 849.5L73 857.5V870.5H14.5V857.5L21 847L24 828.5Z" fill="#C4C4C4"/>
<path d="M14.5 870.5H62.5H73L75 874L80.5 889L84.5 902.5L80.5 923.5L73 930.5L62.5 940.5L50.5 949L39 952H28.5L17.5 944.5L6.5 935L0 918.5L2.5 902.5L6.5 886.5L14.5 870.5Z" fill="#C4C4C4"/>
<ellipse cx="918.5" cy="543.5" rx="222.5" ry="220.5" fill="#EFF4EE"/>
<path d="M1135 495L1209 536.5L1217 563L1130 605.5L1142 560.5L1185.5 549L1171.5 531L1142 519.5L1135 495Z" fill="#8E6F38"/>
<path d="M707 488L633 529.5L625 556L712 598.5L700 553.5L656.5 542L670.5 524L700 512.5L707 488Z" fill="#8E6F38"/>
<ellipse cx="1797" cy="454" rx="72" ry="89" fill="#C4C4C4"/>
<path d="M1770 537L1822.5 538L1812 548L1812.5 559.5L1818 572.5L1816.5 582.5L1812 587L1814.5 599.5L1824 710.25L1828 733.5L1830 758L1831.5 794L1833.5 821L1842 833.5L1845 856L1863 897.5L1854 910L1845 919L1830 923.5H1814.5L1801.5 914.5L1785.5 897.5L1789.5 871.5L1795 856V840.5L1801.5 816.5L1794.5 599.5V590.5L1790 587L1785.5 575V559.5V550.5L1770 537Z" fill="#C4C4C4"/>
<path d="M1639 602H1670V630.75L1674 633V642L1670 659.5L1677 708L1691 814.5V878.5L1698.5 910.5L1712 941L1709 960L1698.5 969L1687.5 980.5L1674 987H1660L1649.5 980.5L1656 969L1639 965L1635 947.5L1639 927V910.5L1646 874.5L1639 823.5L1635 670V659.5V649.5L1630 641L1631.5 633L1635 625.5L1633 617V608L1639 602Z" fill="#C4C4C4"/>
<path d="M1608 221.5L1616.5 211.5L1627.5 208L1638.5 215L1653.5 342L1658.5 373L1661 405L1665 469L1667 489.5L1670 499V567V602.5H1638.5L1629.5 580L1623.5 567L1611 518.5L1600.5 453.5L1592 334L1596 263L1608 221.5Z" fill="#C4C4C4"/>
</svg>
