<svg width="603" height="949" viewBox="0 0 603 949" fill="none" xmlns="http://www.w3.org/2000/svg">
<path d="M270 5.49892C286.5 -25.5022 348.5 93.4967 348.5 93.4967V380.495L426.5 295.495L436.5 141.995L602.5 533.995L479 768.495L288.5 948.495L77.5 768.495L0.5 533.995L101 295.495C105.588 275.782 134.805 264.169 128 226.495C128 226.495 131 393.993 146 295.495C161 196.997 253.5 36.5 270 5.49892Z" fill="#DD2F2F"/>
<path d="M266.5 158.5C277.381 135.285 332.495 248.755 332.495 248.755V463.667L383.934 400.017L418.556 381.501L450.5 302.001L530 534.501L418.556 754.212L292.927 889.001L153.779 754.212L47 558.5L93 400.017C96.0257 385.255 119.488 359.713 115 331.501C115 331.501 143.887 440.259 153.779 366.501C163.671 292.743 255.619 181.714 266.5 158.5Z" fill="#D37A28"/>
<path d="M275.973 393.968C282.416 379.38 315.051 450.682 315.051 450.682V585.729L345.509 545.732L366.01 534.097L384.925 484.141L432 630.239L366.01 768.301L291.621 853L209.227 768.301L146 645.32L173.238 545.732C175.03 536.456 188.922 520.406 186.265 502.678C186.265 502.678 203.37 571.019 209.227 524.671C215.085 478.323 269.53 408.555 275.973 393.968Z" fill="#FBF341"/>
</svg>
