<svg width="1194" height="1986" viewBox="0 0 1194 1986" fill="none" xmlns="http://www.w3.org/2000/svg">
<path d="M597.385 509.572L414.206 138.929C395.07 100.21 424.127 54.3148 467.609 54.5785L747.623 56.2769C791.105 56.5407 818.087 102.776 797.212 141.252L597.385 509.572Z" fill="#4059B0"/>
<path d="M738.763 703.527L1101.76 901.418C1139.68 922.091 1142.3 976.348 1106.58 1001.14L876.519 1160.77C840.794 1185.56 792.132 1163.25 787.084 1119.77L738.763 703.527Z" fill="#4059B0"/>
<path d="M705.239 580.526L1091.1 432.057C1131.41 416.548 1174.45 449.685 1170.2 492.961L1142.87 771.643C1138.63 814.918 1090.12 837.552 1053.71 813.242L705.239 580.526Z" fill="#4059B0"/>
<path d="M477.837 575.064L95.3244 418.174C55.3654 401.784 46.8108 348.142 79.6019 319.585L290.77 135.685C323.561 107.128 374.376 123.967 384.161 166.634L477.837 575.064Z" fill="#4059B0"/>
<path d="M580.643 737.661L485.528 1140.01C475.592 1182.04 423.949 1198.88 390.613 1170.96L175.941 991.166C142.605 963.246 151.288 910.422 191.898 894.082L580.643 737.661Z" fill="#4059B0"/>
<path d="M515.796 668.588L149.216 859.768C110.921 879.74 64.4056 851.686 63.7256 808.208L59.3466 528.223C58.6666 484.745 104.306 456.767 143.226 476.802L515.796 668.588Z" fill="#4059B0"/>
<path d="M679.545 466.546L857.823 93.5207C876.446 54.5529 930.487 49.0465 957.143 83.4005L1128.8 304.633C1155.46 338.987 1135.77 388.768 1092.62 396.125L679.545 466.546Z" fill="#4059B0"/>
<path d="M647.456 844C757.956 1291 417.956 1590 647.456 1966" stroke="#2A8215" stroke-width="76"/>
<circle cx="642" cy="611" r="250" fill="#FAFF1A"/>
</svg>
