<svg width="1831" height="1929" viewBox="0 0 1831 1929" fill="none" xmlns="http://www.w3.org/2000/svg">
<rect x="1108" y="1188.41" width="210" height="50" transform="rotate(-37.3523 1108 1188.41)" fill="black"/>
<rect x="1138" y="1011" width="693" height="100" fill="black"/>
<path d="M0 550H1138V1588C1138 1698.46 1048.46 1788 938 1788H200C89.543 1788 0 1698.46 0 1588V550Z" fill="black"/>
<path d="M164.605 460C373.103 278.5 46.3445 54.7334 164.605 12" stroke="#A4A4A4" stroke-width="25"/>
<path d="M497.605 460C706.103 278.5 379.345 54.7334 497.605 12" stroke="#A4A4A4" stroke-width="25"/>
<path d="M856.605 460C1065.1 278.5 738.345 54.7334 856.605 12" stroke="#A4A4A4" stroke-width="25"/>
<path d="M107.595 1826.86L149.978 1796.39L222.413 1815.45L250.829 1890.64L204.347 1897.67L107.595 1826.86Z" fill="#173FA7"/>
<path d="M132.877 1830.95L160.551 1815.33L207.848 1825.09L226.402 1863.64L196.052 1867.24L132.877 1830.95Z" fill="#1AE3F0"/>
<path d="M215 1811.07L273.762 1788L332 1816.78L314.686 1893H265.892L215 1811.07Z" fill="#173FA7"/>
<path d="M234 1828.87L272.17 1817L310 1831.8L298.753 1871H267.058L234 1828.87Z" fill="#1AE3F0"/>
<path d="M314.702 1809L374.537 1786.82L430.874 1816.33L409.259 1892.08L360.675 1891.39L314.702 1809Z" fill="#173FA7"/>
<path d="M330.07 1825.79L369.139 1814.42L405.925 1829.55L391.811 1868.38L360.088 1868.02L330.07 1825.79Z" fill="#1AE3F0"/>
<path d="M404 1809.07L462.26 1786L520 1814.78L502.834 1891H454.457L404 1809.07Z" fill="#173FA7"/>
<path d="M433 1823.87L471.17 1812L509 1826.8L497.753 1866H466.058L433 1823.87Z" fill="#1AE3F0"/>
<path d="M636 1809.07L577.74 1786L520 1814.78L537.166 1891H585.543L636 1809.07Z" fill="#173FA7"/>
<path d="M611 1825.87L572.83 1814L535 1828.8L546.247 1868H577.942L611 1825.87Z" fill="#1AE3F0"/>
<path d="M748 1809.07L689.238 1786L631 1814.78L648.314 1891H697.108L748 1809.07Z" fill="#173FA7"/>
<path d="M723 1828.87L684.83 1817L647 1831.8L658.247 1871H689.942L723 1828.87Z" fill="#1AE3F0"/>
<path d="M839 1809.07L780.74 1786L723 1814.78L740.166 1891H788.543L839 1809.07Z" fill="#173FA7"/>
<path d="M819 1825.87L781.332 1814L744 1828.8L755.099 1868H786.377L819 1825.87Z" fill="#1AE3F0"/>
<path d="M937 1811.07L878.74 1788L821 1816.78L838.166 1893H886.543L937 1811.07Z" fill="#173FA7"/>
<path d="M914 1828.87L876.332 1817L839 1831.8L850.099 1871H881.377L914 1828.87Z" fill="#1AE3F0"/>
<path d="M1042 1811.07L983.74 1788L926 1816.78L943.166 1893H991.543L1042 1811.07Z" fill="#173FA7"/>
<path d="M1022 1828.87L983.83 1817L946 1831.8L957.247 1871H988.942L1022 1828.87Z" fill="#1AE3F0"/>
<rect y="1905" width="1207" height="24" rx="12" fill="black"/>
</svg>
