<svg width="976" height="1161" viewBox="0 0 976 1161" fill="none" xmlns="http://www.w3.org/2000/svg">
<path d="M876.022 33.5866L829.799 60.6796L771.119 107.256L714.913 165.398L585.167 323.495L460.173 480.264L398.143 558.062L335.178 637.033L372.939 668.419L411.517 701.096L416.549 710.225L422.859 706.943L431.997 707.834L446.297 719.235L473.392 740.838L480.755 733.92L560.883 618.754L660.078 476.586L757.712 313.988L786.408 263.328L810.182 219.615L825.11 189.312L831.139 175.574L837.727 160.363L848.538 134.452L859.767 101.839L869.427 67.3356L876.022 33.5866Z" fill="#C4C4C4"/>
<path d="M412.205 701.005L348.984 650.599L332.427 637.397L180.732 821.478L55.7373 978.247L28.5009 1014.72L24.3648 1033.81L24.927 1054.72L29.9063 1067L38.2612 1078.14L52.1848 1089.24L66.5266 1093.64L80.3517 1092.51L95.1118 1090.21L111.225 1080.04L122.952 1067.65L130.046 1054.12L132.441 1038.76L145.605 1004.5L190.806 970.194L229.385 939.565L259.632 905.489L280.463 882.45L296.102 859.748L308.558 840.264L317.328 822.317L333.986 784.44L351.924 756.538L375.424 747.137L401.633 744.374L408.814 739.228L417.23 728.672L416.679 711.607L412.205 701.005Z" fill="black"/>
<circle cx="85.1484" cy="999.748" r="14" transform="rotate(-140.88 85.1484 999.748)" fill="#C4C4C4"/>
<circle cx="203.766" cy="853.892" r="14" transform="rotate(-140.88 203.766 853.892)" fill="#C4C4C4"/>
<circle cx="319.859" cy="711.139" r="14" transform="rotate(-140.88 319.859 711.139)" fill="#C4C4C4"/>
</svg>
