<svg width="515" height="241" viewBox="0 0 515 241" fill="none" xmlns="http://www.w3.org/2000/svg">
<path d="M487.787 89.4527L513.93 102.771L487.597 224.5H29.397L1.07474 102.764L34.199 85.4602L68.5845 73.5H450.897L487.787 89.4527Z" fill="#413EB5" stroke="black"/>
<path d="M253.512 143.499H74.0483L76.9979 111.545L77 111.522V111.499V81.9988V81.9131L76.9715 81.8323L74.0037 73.4249L74.9991 50.0312L76.9862 25.6899C79.2409 22.8364 83.398 20.1596 89.0671 17.7297C94.7981 15.2732 102.014 13.0939 110.227 11.2386C126.652 7.52824 147.011 5.12482 167.331 4.37563C187.653 3.62639 207.911 4.5325 224.139 7.43032C232.253 8.87938 239.341 10.8234 244.919 13.2972C250.442 15.7467 254.427 18.6904 256.497 22.1315L253.512 143.499Z" fill="#413EB5" stroke="black"/>
<path d="M255 48.5221L257.485 19.6907C259.736 16.8453 263.925 14.2612 269.661 11.9927C275.459 9.69991 282.771 7.75415 291.101 6.17952C307.758 3.03057 328.429 1.37597 349.062 1.37598C369.697 1.37598 390.27 3.03076 406.733 6.49009C414.966 8.21994 422.154 10.3976 427.803 13.0356C433.399 15.6488 437.427 18.6872 439.498 22.1346L438.006 142.499H255V110.001V79.0006V48.5221Z" fill="#413EB5" stroke="black"/>
<path d="M427.995 140.5L445.822 149.851C449.14 159.485 450.673 166.863 450.617 174.043C450.561 181.179 448.934 188.157 445.874 197H262.834C259.948 183.603 257.998 171.759 258.614 162.11C259.231 152.44 262.418 145.055 269.761 140.5H427.995Z" fill="#413EB5" stroke="black"/>
<path d="M61.121 163.224C62.5948 155.208 66.7603 149.569 74.6462 144.5H257.638C261.12 155.075 262.731 163.195 262.671 171.1C262.612 178.999 260.885 186.719 257.639 196.5H63.907C60.8638 181.738 59.6426 171.266 61.121 163.224Z" fill="#413EB5" stroke="black"/>
<path d="M39 225H64L58.5 241H44L39 225Z" fill="#755709"/>
<path d="M451 225H476L470.5 241H456L451 225Z" fill="#755709"/>
</svg>
