<svg width="742" height="441" viewBox="0 0 742 441" fill="none" xmlns="http://www.w3.org/2000/svg">
<path d="M197 154L209 123L224 111L218 90.5L224 65L209 56.5L203 54.5L194.5 45.5L175.5 17L170 13.5L178 8.5L183.5 10L191 17L207 33.5L235 38L248.5 28L267.5 13.5H309H427L440.5 16.5L453.5 22.5V90.5L450.5 107.5L429.5 128.5L427 162L215.5 221V154H197Z" fill="black"/>
<path d="M453 22L674.5 20L679.5 0H691L707 5.5L720 20H742V91H453V22Z" fill="black"/>
<path d="M11.9999 378.5L80.4999 219.5L106.5 182L140 159.5L164 156L192.5 147L198.5 159.5L216.5 156L216.5 219.5L186 225.5L161.482 252L149 306L161.482 378.5L11.9999 378.5Z" fill="#583808"/>
<path d="M284.5 28.5H403.5V145.5H342H284.5V28.5Z" fill="black" stroke="#C4C4C4"/>
<path d="M330 90C331.456 82.1363 338.231 76.3736 346.226 76.1972L400.5 75V103H363.974C351.435 103 339.337 98.3707 330 90V90V90Z" fill="#C4C4C4"/>
<path d="M342 214L345 185L326.5 190.078M342 214L338.5 240.5L329.817 260.174L310.08 268.367L274.655 274L252.894 264.885L220 219.309L313.5 193.646M342 214L313.5 193.646M342 214L325.5 193.646L326.5 190.078M326.5 190.078L320 191.862M313.5 193.646L320 191.862M339.704 212L320 191.862" stroke="black" stroke-width="5"/>
<path d="M330 36.3571C331.526 33.3926 334.571 31.5191 337.905 31.4927L400 31V41H352.574C347.156 41 341.771 40.1532 336.615 38.4902L330 36.3571V36.3571Z" fill="#C4C4C4"/>
<path d="M330 142.357C331.526 139.393 334.571 137.519 337.905 137.493L400 137V147H352.574C347.156 147 341.771 146.153 336.615 144.49L330 142.357V142.357Z" fill="#C4C4C4"/>
<path d="M265 211L264 232L271.5 250L273.5 254L270 261.5L262.5 247.5L259.668 239.005C257.901 233.703 257 228.15 257 222.561L257 213L265 211Z" fill="black"/>
<path d="M244.502 208.433L244.502 234.5L254 258L275.733 270.933L250.502 264L243.002 250L219.233 216.933L237.733 213.5L244.502 208.433Z" fill="black"/>
<path d="M345.09 174.365L342.198 194.843L342.198 212.25L340.5 212.25L339.046 207.186L320 183.846L338.059 179.097L345.09 174.365Z" fill="black"/>
</svg>
