<svg width="618" height="942" viewBox="0 0 618 942" fill="none" xmlns="http://www.w3.org/2000/svg">
<path d="M276 291H342C490.012 291 610 410.988 610 559V905C610 921.016 597.016 934 581 934H37C20.9837 934 8 921.016 8 905V559C8 410.988 127.988 291 276 291Z" stroke="black" stroke-width="16"/>
<path d="M230 0H392V188H230V0Z" fill="#B48F78"/>
<path d="M242.398 282.046L224.002 284.845L224.003 115.201C224.003 96.9937 238.749 82.2268 256.956 82.2008L361.313 82.0522C379.252 82.0266 393.926 96.3367 394.351 114.271L398.392 284.987L356.47 280.028L356.236 280L356 280L311 280L265.5 280L265.323 280L265.146 280.016L242.646 282.016L242.522 282.027L242.398 282.046Z" stroke="black" stroke-width="8"/>
<path d="M12.5 545.766C12.5 490.823 54.1124 444.809 108.779 439.304L295.5 420.5L509.749 440.102C564.836 445.142 607 491.34 607 546.657V687.5L594 925H26L12.5 699.5V545.766Z" fill="#ABB56C"/>
<path d="M381.656 45.0517L391 114.756L230.292 114.756L229.949 45.8076L381.656 45.0517Z" fill="#B48F78"/>
<rect x="138" y="497" width="345" height="380" fill="white"/>
<path d="M385 638C385 674.451 351.421 704 310 704C268.579 704 235 674.451 235 638C235 601.549 268.579 572 310 572C351.421 572 385 601.549 385 638Z" fill="black"/>
<path d="M267 687H353.5V748H339V709.5H328.5V748H315V709.5H304.5V748H293V709.5H280V748H267V687Z" fill="black"/>
<path d="M255.965 626.383L283 617V659H252L255.965 626.383Z" fill="white"/>
<path d="M360.035 626.383L333 617V659H364L360.035 626.383Z" fill="white"/>
<rect width="129" height="8" transform="matrix(0.922247 0.386601 0.386601 -0.922247 249 772.378)" fill="black"/>
<rect x="249" y="814.872" width="129" height="8" transform="rotate(-22.7432 249 814.872)" fill="black"/>
</svg>
