<svg width="370" height="200" viewBox="0 0 370 200" fill="none" xmlns="http://www.w3.org/2000/svg">
<path d="M10.5 47L183 49L184.5 197.5H175L165.5 193.5L158 185L0 200L10.5 47Z" fill="black"/>
<path d="M359.5 47L187 49L185.5 197.5H195L204.5 193.5L212 185L370 200L359.5 47Z" fill="black"/>
<path d="M32.5 176H32.4085L32.3229 176.032L9.57128 184.648L21.2809 57.5H61.1881L90.1578 61.9465L112.204 71.3124L143.562 97.442L166.334 176H112.467H84H55.5H32.5Z" fill="white" stroke="black"/>
<path d="M337.5 176H337.592L337.677 176.032L360.429 184.648L348.719 57.5H308.812L279.842 61.9465L257.796 71.3124L226.438 97.442L203.666 176H257.533H286H314.5H337.5Z" fill="white" stroke="black"/>
<path d="M147.559 87.4391L171.314 174.783L116.546 166.006L116.507 166H116.467H88H59.5H36.5H36.4085L36.3229 166.032L13.5713 174.648L25.2809 47.5H65.1881L94.1578 51.9465L116.204 61.3124L147.559 87.4391Z" fill="white" stroke="black"/>
<path d="M222.441 87.4391L198.686 174.783L253.454 166.006L253.493 166H253.533H282H310.5H333.5H333.592L333.677 166.032L356.429 174.648L344.719 47.5H304.812L275.842 51.9465L253.796 61.3124L222.441 87.4391Z" fill="white" stroke="black"/>
<path d="M158.53 71.4154L172.396 174.265L127.629 158.926L127.584 158.911L127.537 158.904L99.5702 154.938L99.5353 154.933H99.5H68H48H47.959L47.9185 154.94L24.5573 158.801L36.2809 31.5H76.1881L105.158 35.9465L127.204 45.3124L158.53 71.4154Z" fill="white" stroke="black"/>
<path d="M211.47 71.4154L197.604 174.265L242.371 158.926L242.416 158.911L242.463 158.904L270.43 154.938L270.465 154.933H270.5H302H322H322.041L322.082 154.94L345.443 158.801L333.719 31.5H293.812L264.842 35.9465L242.796 45.3124L211.47 71.4154Z" fill="white" stroke="black"/>
<path d="M168.518 56.4048L177.431 172.129L141.736 153.059L141.713 153.047L141.689 153.037L109.689 139.971L109.598 139.933H109.5H78H58H57.959L57.9185 139.94L34.5573 143.801L46.2809 16.5H86.1881L115.158 20.9465L137.204 30.3124L168.518 56.4048Z" fill="white" stroke="black"/>
<path d="M201.482 56.4048L192.569 172.129L228.264 153.059L228.287 153.047L228.311 153.037L260.311 139.971L260.402 139.933H260.5H292H312H312.041L312.082 139.94L335.443 143.801L323.719 16.5H283.812L254.842 20.9465L232.796 30.3124L201.482 56.4048Z" fill="white" stroke="black"/>
<path d="M184.5 40.7351V175.398L153.329 148.124L153.284 148.084L153.23 148.056L125.23 133.556L125.18 133.53L125.127 133.516L92.6265 125.016L92.5643 125H92.5H75H74.9632L74.9267 125.005L48.5566 128.912L60.4558 0.5H100.962L130.363 4.98488L152.738 14.432L184.5 40.7351Z" fill="white" stroke="black"/>
<path d="M185.5 40.7351V175.398L216.671 148.124L216.716 148.084L216.77 148.056L244.77 133.556L244.82 133.53L244.873 133.516L277.373 125.016L277.436 125H277.5H295H295.037L295.073 125.005L321.443 128.912L309.544 0.5H269.038L239.637 4.98488L217.262 14.432L185.5 40.7351Z" fill="white" stroke="black"/>
<line x1="79.4056" y1="21.6421" x2="129.625" y2="35.1324" stroke="black"/>
<line x1="143.636" y1="41.0084" x2="175.683" y2="57.4807" stroke="black"/>
<line x1="78.2601" y1="30.0181" x2="128.48" y2="43.5084" stroke="black"/>
<line x1="76.4498" y1="38.8911" x2="126.669" y2="52.3814" stroke="black"/>
<line x1="75.4544" y1="49.8462" x2="125.674" y2="63.3365" stroke="black"/>
<line x1="74.3687" y1="61.7964" x2="124.588" y2="75.2867" stroke="black"/>
<line x1="73.1019" y1="75.7388" x2="123.322" y2="89.2291" stroke="black"/>
<line x1="72.8309" y1="89.772" x2="123.051" y2="103.262" stroke="black"/>
<line x1="71.5643" y1="103.714" x2="121.784" y2="117.205" stroke="black"/>
<line x1="142.49" y1="49.3844" x2="174.538" y2="65.8567" stroke="black"/>
<line x1="140.68" y1="58.2565" x2="172.727" y2="74.7288" stroke="black"/>
<line x1="139.685" y1="69.2116" x2="171.732" y2="85.6839" stroke="black"/>
<line x1="138.599" y1="81.1627" x2="170.646" y2="97.635" stroke="black"/>
<line x1="137.332" y1="95.1051" x2="169.38" y2="111.577" stroke="black"/>
<line x1="137.061" y1="109.138" x2="169.109" y2="125.611" stroke="black"/>
<line x1="135.794" y1="123.081" x2="167.842" y2="139.553" stroke="black"/>
<line y1="-0.5" x2="52" y2="-0.5" transform="matrix(-0.965762 0.259428 0.259428 0.965762 301.617 19.125)" stroke="black"/>
<line y1="-0.5" x2="36.033" y2="-0.5" transform="matrix(-0.889392 0.457145 0.457145 0.889392 237.486 38.4531)" stroke="black"/>
<line y1="-0.5" x2="52" y2="-0.5" transform="matrix(-0.965762 0.259428 0.259428 0.965762 302.763 27.501)" stroke="black"/>
<line y1="-0.5" x2="52" y2="-0.5" transform="matrix(-0.965762 0.259428 0.259428 0.965762 304.573 36.374)" stroke="black"/>
<line y1="-0.5" x2="52" y2="-0.5" transform="matrix(-0.965762 0.259428 0.259428 0.965762 305.569 47.3291)" stroke="black"/>
<line y1="-0.5" x2="52" y2="-0.5" transform="matrix(-0.965762 0.259428 0.259428 0.965762 306.654 59.2793)" stroke="black"/>
<line y1="-0.5" x2="52" y2="-0.5" transform="matrix(-0.965762 0.259428 0.259428 0.965762 307.921 73.2217)" stroke="black"/>
<line y1="-0.5" x2="52" y2="-0.5" transform="matrix(-0.965762 0.259428 0.259428 0.965762 308.192 87.2549)" stroke="black"/>
<line y1="-0.5" x2="52" y2="-0.5" transform="matrix(-0.965762 0.259428 0.259428 0.965762 309.459 101.197)" stroke="black"/>
<line y1="-0.5" x2="36.033" y2="-0.5" transform="matrix(-0.889392 0.457145 0.457145 0.889392 238.632 46.8291)" stroke="black"/>
<line y1="-0.5" x2="36.033" y2="-0.5" transform="matrix(-0.889392 0.457145 0.457145 0.889392 240.442 55.7012)" stroke="black"/>
<line y1="-0.5" x2="36.033" y2="-0.5" transform="matrix(-0.889392 0.457145 0.457145 0.889392 241.437 66.6562)" stroke="black"/>
<line y1="-0.5" x2="36.033" y2="-0.5" transform="matrix(-0.889392 0.457145 0.457145 0.889392 242.523 78.6074)" stroke="black"/>
<line y1="-0.5" x2="36.033" y2="-0.5" transform="matrix(-0.889392 0.457145 0.457145 0.889392 243.79 92.5498)" stroke="black"/>
<line y1="-0.5" x2="36.033" y2="-0.5" transform="matrix(-0.889392 0.457145 0.457145 0.889392 244.061 106.583)" stroke="black"/>
<line y1="-0.5" x2="36.033" y2="-0.5" transform="matrix(-0.889392 0.457145 0.457145 0.889392 245.327 120.525)" stroke="black"/>
<path d="M361.387 63.8499L230.101 81.8728L237.359 75.1459L255.1 70.9575L352.033 50.1424C360.264 52.4158 362.58 55.2329 361.387 63.8499Z" fill="#FEA263"/>
<path d="M237.52 78.3183L238.004 79.2068L240.101 80.6029L229.94 81.999L233.811 78.3183L237.036 75.2722L238.649 74.6376L237.52 78.3183Z" fill="#BE7777"/>
<path d="M349.709 57.9347L349.698 58.0502L349.74 58.1584L351.383 62.4268L351.464 62.6362L351.674 62.7152L355.975 64.3336L341.426 65.9936C339.903 64.6297 338.951 63.2471 338.45 61.2711C337.939 59.2564 337.889 56.5948 338.255 52.6596L350.38 50.3513L349.709 57.9347ZM362.081 56.5476C363.006 58.5874 362.382 60.7754 360.347 63.8078H357.417L352.236 61.8583L350.715 57.9074L351.406 50.1062L353.087 49.5415C355.678 50.8716 357.672 52.0732 359.147 53.2163C360.658 54.388 361.595 55.4761 362.081 56.5476Z" fill="#C06565" stroke="black"/>
<path d="M229.94 81.9996L233.488 78.5728L233.004 80.4766L235.263 81.3648L229.94 81.9996Z" fill="#020202"/>
</svg>
