<svg width="912" height="575" viewBox="0 0 912 575" fill="none" xmlns="http://www.w3.org/2000/svg">
<rect x="212" y="72" width="490" height="385" fill="black" stroke="#2A1717" stroke-width="20"/>
<path d="M5 6.65508L137.5 45.0609V202.8L5 195.759V6.65508ZM147.5 203.331V47.9594L202 63.7565V206.227L147.5 203.331ZM5 205.773L137.5 212.814V332.33L5 359.855V205.773ZM147.5 330.253V213.345L202 216.241V318.932L147.5 330.253ZM5 370.068L137.5 342.544V496.946L5 566.716V370.068ZM147.5 491.68V340.467L202 329.145V462.982L147.5 491.68Z" stroke="#2A1717" stroke-width="10"/>
<path d="M9.5 12.5L62.5 28L61 199L9.5 196.5V12.5Z" fill="#2B1717"/>
<path d="M10 183L63 198.5L61.5 369.5L10 367V183Z" fill="#2B1717"/>
<path d="M9 342L62 357.5V532L9 564.5V342Z" fill="#2B1717"/>
<path d="M138.5 84L138.5 50.1534L61.4575 26.6791L61.4575 61L138.5 84Z" fill="#2B1717"/>
<path d="M47.5 543L54.4321 508.739L139 463L139 494.5L47.5 543Z" fill="#2B1717"/>
<path d="M207.173 103.321L207.173 69.4742L130.13 45.9999L130.13 80.3208L207.173 103.321Z" fill="#2B1717"/>
<path d="M201 434L201 461L135.13 495.321L140 464L201 434Z" fill="#2B1717"/>
<line x1="79.4433" y1="126.769" x2="103.443" y2="172.769" stroke="#CCCCCC"/>
<line x1="100.443" y1="105.769" x2="124.443" y2="151.769" stroke="#CCCCCC"/>
<line x1="79.4433" y1="260.769" x2="103.443" y2="306.769" stroke="#CCCCCC"/>
<line x1="100.443" y1="239.769" x2="124.443" y2="285.769" stroke="#CCCCCC"/>
<line y1="-0.5" x2="50.0021" y2="-0.5" transform="matrix(0.319986 0.947422 -0.778596 0.627525 154 251.627)" stroke="#CCCCCC"/>
<line y1="-0.5" x2="50.0021" y2="-0.5" transform="matrix(0.319986 0.947422 -0.778596 0.627525 168 230)" stroke="#CCCCCC"/>
<line y1="-0.5" x2="50.0021" y2="-0.5" transform="matrix(0.319986 0.947422 -0.778596 0.627525 160 135.627)" stroke="#CCCCCC"/>
<line y1="-0.5" x2="50.0021" y2="-0.5" transform="matrix(0.319986 0.947422 -0.778596 0.627525 174 114)" stroke="#CCCCCC"/>
<line x1="78.4433" y1="401.769" x2="102.443" y2="447.769" stroke="#CCCCCC"/>
<line x1="99.4433" y1="380.769" x2="123.443" y2="426.769" stroke="#CCCCCC"/>
<line y1="-0.5" x2="47.7477" y2="-0.5" transform="matrix(0.268076 0.963398 -0.714834 0.699294 162 375)" stroke="#CCCCCC"/>
<line y1="-0.5" x2="47.7477" y2="-0.5" transform="matrix(0.268076 0.963398 -0.714834 0.699294 176.8 354)" stroke="#CCCCCC"/>
<path d="M906.303 6.65508L773.803 45.0609V202.8L906.303 195.759V6.65508ZM763.803 203.331V47.9594L709.303 63.7565V206.227L763.803 203.331ZM906.303 205.773L773.803 212.814V332.33L906.303 359.855V205.773ZM763.803 330.253V213.345L709.303 216.241V318.932L763.803 330.253ZM906.303 370.068L773.803 342.544V496.946L906.303 566.716V370.068ZM763.803 491.68V340.467L709.303 329.145V462.982L763.803 491.68Z" stroke="#2A1717" stroke-width="10"/>
<path d="M901.803 12.5L848.803 28L850.303 199L901.803 196.5V12.5Z" fill="#2B1717"/>
<path d="M901.303 183L848.303 198.5L849.803 369.5L901.303 367V183Z" fill="#2B1717"/>
<path d="M902.303 342L849.303 357.5V532L902.303 564.5V342Z" fill="#2B1717"/>
<path d="M772.803 84L772.803 50.1534L849.846 26.6791L849.846 61L772.803 84Z" fill="#2B1717"/>
<path d="M863.803 543L856.871 508.739L772.303 463L772.303 494.5L863.803 543Z" fill="#2B1717"/>
<path d="M704.13 103.321L704.13 69.4742L781.173 45.9999L781.173 80.3208L704.13 103.321Z" fill="#2B1717"/>
<path d="M710.304 434L710.303 461L776.173 495.321L771.303 464L710.304 434Z" fill="#2B1717"/>
<line y1="-0.5" x2="51.8845" y2="-0.5" transform="matrix(-0.462566 0.886585 0.886585 0.462566 837 132)" stroke="#CCCCCC"/>
<line y1="-0.5" x2="51.8845" y2="-0.5" transform="matrix(-0.462566 0.886585 0.886585 0.462566 816 111)" stroke="#CCCCCC"/>
<line y1="-0.5" x2="51.8845" y2="-0.5" transform="matrix(-0.462566 0.886585 0.886585 0.462566 837 266)" stroke="#CCCCCC"/>
<line y1="-0.5" x2="51.8845" y2="-0.5" transform="matrix(-0.462566 0.886585 0.886585 0.462566 816 245)" stroke="#CCCCCC"/>
<line y1="-0.5" x2="50.0021" y2="-0.5" transform="matrix(-0.319986 0.947422 0.778596 0.627525 762 256.627)" stroke="#CCCCCC"/>
<line y1="-0.5" x2="50.0021" y2="-0.5" transform="matrix(-0.319986 0.947422 0.778596 0.627525 748 235)" stroke="#CCCCCC"/>
<line y1="-0.5" x2="50.0021" y2="-0.5" transform="matrix(-0.319986 0.947422 0.778596 0.627525 756 140.627)" stroke="#CCCCCC"/>
<line y1="-0.5" x2="50.0021" y2="-0.5" transform="matrix(-0.319986 0.947422 0.778596 0.627525 742 119)" stroke="#CCCCCC"/>
<line y1="-0.5" x2="51.8845" y2="-0.5" transform="matrix(-0.462566 0.886585 0.886585 0.462566 838 407)" stroke="#CCCCCC"/>
<line y1="-0.5" x2="51.8845" y2="-0.5" transform="matrix(-0.462566 0.886585 0.886585 0.462566 817 386)" stroke="#CCCCCC"/>
<line y1="-0.5" x2="47.7477" y2="-0.5" transform="matrix(-0.268076 0.963398 0.714834 0.699294 754 380)" stroke="#CCCCCC"/>
<line y1="-0.5" x2="47.7477" y2="-0.5" transform="matrix(-0.268076 0.963398 0.714834 0.699294 739.2 359)" stroke="#CCCCCC"/>
</svg>
