<svg width="328" height="314" viewBox="0 0 328 314" fill="none" xmlns="http://www.w3.org/2000/svg">
<circle cx="134.248" cy="134.248" r="127" transform="rotate(-0.353935 134.248 134.248)" fill="white" stroke="black" stroke-width="11"/>
<line x1="234.794" y1="219.36" x2="320.794" y2="307.36" stroke="black" stroke-width="19"/>
<path d="M77.1037 86.9912L38.6355 123.721C33.6206 128.509 34.2327 136.686 39.9046 140.675L83.2181 171.131C84.8913 172.308 86.8594 172.994 88.9014 173.114L172.95 178.042C174.756 178.148 176.561 177.807 178.204 177.048L216.783 159.241C222.301 156.694 224.708 150.155 222.158 144.639L199.491 95.5989C197.95 92.2666 194.849 89.9223 191.223 89.3491L137.032 80.7824C136.228 80.6552 135.412 80.6178 134.599 80.6708L83.9845 83.9704C81.4074 84.1384 78.9716 85.2078 77.1037 86.9912Z" stroke="black" stroke-width="9"/>
<circle cx="134" cy="129" r="34" fill="black"/>
<path d="M36.5 87.5L107.355 30.5383C110.78 27.7845 115.516 27.3341 119.399 29.3928L229 87.5" stroke="black" stroke-width="13"/>
</svg>
