<svg width="100" height="123" viewBox="0 0 100 123" fill="none" xmlns="http://www.w3.org/2000/svg">
<path d="M100 47.4174C100 84.077 67.5 123 50 123C32.5 123 -0.000244141 77.9127 1.37549e-09 47.4174C1.37549e-09 21.2295 22.3858 0 50 0C77.6142 0 100 21.2295 100 47.4174Z" fill="#EFDEDE"/>
<path d="M9 33.4295C12.2 29.0295 29 31.5961 37 33.4295" stroke="#A4A2A2" stroke-width="6"/>
<path d="M89 33.4295C85.8 29.0295 69 31.5961 61 33.4295" stroke="#A4A2A2" stroke-width="6"/>
<path d="M24.806 40.5L37.8441 40.5C39.549 40.5 40.7538 42.1689 40.217 43.7871L35.9048 56.7871C35.5656 57.8097 34.6094 58.5 33.5319 58.5H17.4681C16.3906 58.5 15.4344 57.8097 15.0952 56.7871L10.783 43.7871C10.2462 42.1689 11.451 40.5 13.1559 40.5L24.806 40.5Z" stroke="black"/>
<circle cx="26" cy="50" r="7" fill="#FFFBFB"/>
<circle cx="25.5" cy="50.5" r="2.5" fill="#C4C4C4"/>
<path d="M73.806 40.5L86.8441 40.5C88.549 40.5 89.7538 42.1689 89.217 43.7871L84.9048 56.7871C84.5656 57.8097 83.6094 58.5 82.5319 58.5H66.4681C65.3906 58.5 64.4344 57.8097 64.0952 56.7871L59.783 43.7871C59.2462 42.1689 60.451 40.5 62.1559 40.5L73.806 40.5Z" stroke="black"/>
<circle cx="75" cy="50" r="7" fill="#FFFBFB"/>
<circle cx="74.5" cy="50.5" r="2.5" fill="#C4C4C4"/>
<path d="M26 80L43.5 74L40 80L29.5 83H23L26 80Z" fill="#3A3A3A" stroke="#3A3A3A"/>
<path d="M78.5 80L61 74L64.5 80L75 83H81.5L78.5 80Z" fill="#3A3A3A" stroke="#3A3A3A"/>
<path d="M32 98C35.7059 94.5867 39.3775 92.3111 40.75 91.6L45.8971 90H51.0441H57.2206L61.3382 91.6L65.4559 94.8L67.5 98" stroke="#211B1B"/>
<path d="M38.5 50L45.6775 45L50.5 44L54.1556 45L61.5 50" stroke="#211B1B"/>
</svg>
