<svg width="120" height="123" viewBox="0 0 120 123" fill="none" xmlns="http://www.w3.org/2000/svg">
<ellipse cx="10.5" cy="48.5" rx="10.5" ry="20.5" fill="#EFDEDE"/>
<path d="M110 47.4174C110 84.077 77.5 123 60 123C42.5 123 9.99976 77.9127 10 47.4174C10 21.2295 32.3858 0 60 0C87.6142 0 110 21.2295 110 47.4174Z" fill="#EFDEDE"/>
<path d="M19 33.4295C22.2 29.0295 39 31.5961 47 33.4295" stroke="#A4A2A2" stroke-width="6"/>
<path d="M99 33.4295C95.8 29.0295 79 31.5961 71 33.4295" stroke="#A4A2A2" stroke-width="6"/>
<path d="M34.806 40.5L47.8441 40.5C49.549 40.5 50.7538 42.1689 50.217 43.7871L45.9048 56.7871C45.5656 57.8097 44.6094 58.5 43.5319 58.5H27.4681C26.3906 58.5 25.4344 57.8097 25.0952 56.7871L20.783 43.7871C20.2462 42.1689 21.451 40.5 23.1559 40.5L34.806 40.5Z" stroke="black"/>
<circle cx="36" cy="50" r="7" fill="#FFFBFB"/>
<circle cx="35.5" cy="50.5" r="2.5" fill="#C4C4C4"/>
<path d="M83.806 40.5L96.8441 40.5C98.549 40.5 99.7538 42.1689 99.217 43.7871L94.9048 56.7871C94.5656 57.8097 93.6094 58.5 92.5319 58.5H76.4681C75.3906 58.5 74.4344 57.8097 74.0952 56.7871L69.783 43.7871C69.2462 42.1689 70.451 40.5 72.1559 40.5L83.806 40.5Z" stroke="black"/>
<circle cx="85" cy="50" r="7" fill="#FFFBFB"/>
<circle cx="84.5" cy="50.5" r="2.5" fill="#C4C4C4"/>
<path d="M36 80L53.5 74L50 80L39.5 83H33L36 80Z" fill="#3A3A3A" stroke="#3A3A3A"/>
<path d="M88.5 80L71 74L74.5 80L85 83H91.5L88.5 80Z" fill="#3A3A3A" stroke="#3A3A3A"/>
<path d="M42 98C45.7059 94.5867 49.3775 92.3111 50.75 91.6L55.8971 90H61.0441H67.2206L71.3382 91.6L75.4559 94.8L77.5 98" stroke="#211B1B"/>
<path d="M48.5 50L55.6775 45L60.5 44L64.1556 45L71.5 50" stroke="#211B1B"/>
<ellipse cx="109.5" cy="47.5" rx="10.5" ry="20.5" fill="#EFDEDE"/>
</svg>
