<svg width="1184" height="888" viewBox="0 0 1184 888" fill="none" xmlns="http://www.w3.org/2000/svg">
<rect y="429" width="1182" height="458" fill="#9C1313"/>
<path d="M1182 53L656 166.586V526.774L1182 602V53Z" fill="#937E6D"/>
<path d="M0 0H105.5L656 169.5V528L0 645.5V0Z" fill="#C0B8AD"/>
<path d="M556.708 272.931L656.137 286.623L656.137 533.499L554.442 545.915L556.708 272.931Z" fill="white"/>
<path d="M969.601 667.115L977.5 669.999L982 667.116L980 709.499L973 708.5L969.601 702.999L969.601 667.115Z" fill="#8B706C"/>
<path d="M991.941 656.063L996.285 657.833L998.756 656.071L997.682 682.012L993.834 681.396L991.963 678.027L988 670.5L987.5 663L991.941 656.063Z" fill="#8B706C"/>
<path d="M908.506 638.064L912.85 639.834L915.321 638.072L914.247 664.013L910.399 663.397L908.528 660.028L904.565 652.501L904.065 645.001L908.506 638.064Z" fill="#8B706C"/>
<path d="M855.506 662.064L859.85 663.834L862.321 662.072L861.247 688.013L857.399 687.397L855.528 684.028L851.565 676.501L851.065 669.001L855.506 662.064Z" fill="#8B706C"/>
<path d="M160 572.5L317 631L605.5 520V588.5L474 645L317 728.5L154 686L160 572.5Z" fill="#C06565"/>
<path d="M111 0H1182.5V56.5L647.5 169.5L578.5 149.5L111 0Z" fill="#C5C9CA"/>
<path d="M164.416 527.277L164.582 527.029L164.441 526.765L156.806 512.449L478.986 491.502L606.915 506.993L631.129 512.429L651.323 565.13L307.534 636.482L224.19 607.336L156.5 575.184V539.151L164.416 527.277Z" fill="#C4C4C4" stroke="black"/>
<path d="M775.701 554.401L775.721 554.416L775.743 554.429L788 561.783V579.843L775.589 597.715L775.415 597.965L775.559 598.235L787.789 621.227L496.498 727.469L344.5 673.647V547.424L506.578 520.494L506.582 520.493L551.039 513.5H720.834L775.701 554.401Z" fill="#983C3C" stroke="black"/>
<path d="M398.117 569.628C397.571 568.099 397.298 567.334 397.423 566.569C397.549 565.805 398.052 565.167 399.058 563.893L401.63 560.636C403.009 558.888 403.699 558.015 404.692 557.766C405.684 557.518 406.704 557.964 408.744 558.857L409.544 559.207C410.991 559.84 411.714 560.156 412.467 560.095C413.22 560.034 413.883 559.605 415.209 558.747L420.522 555.309C420.761 555.155 420.88 555.077 421.006 555.012C421.132 554.946 421.264 554.893 421.527 554.786L438.593 547.868C439.045 547.684 439.272 547.593 439.479 547.466C439.687 547.34 439.872 547.181 440.243 546.863L446.938 541.125C448.421 539.853 449.163 539.217 450.072 539.111C450.98 539.004 451.849 539.451 453.587 540.345L465.38 546.41C466.427 546.948 466.951 547.217 467.328 547.65C467.706 548.083 467.902 548.638 468.294 549.748L473.5 564.5L479 576L489.672 599.285C489.836 599.642 489.918 599.821 489.975 600.008C490.033 600.195 490.066 600.388 490.132 600.775L495.803 633.99C496.359 637.243 496.636 638.869 495.737 639.935C494.838 641 493.189 641 489.889 641H412C411.172 641 410.5 641.672 410.5 642.5V627.5V614.041C410.5 613.771 410.5 613.636 410.512 613.501C410.524 613.367 410.548 613.234 410.597 612.968L412.126 604.554C412.311 603.537 412.404 603.028 412.326 602.527C412.247 602.026 412.004 601.57 411.517 600.658L404.708 587.89C404.604 587.695 404.552 587.598 404.507 587.497C404.463 587.396 404.426 587.292 404.351 587.084L398.117 569.628Z" fill="#C14343"/>
<path d="M345.5 673.5L502.5 732L791 621V689.5L659.5 746L502.5 815.5L345.5 746V673.5Z" fill="#C06565"/>
<path d="M584.646 522.784C583.167 520.298 582.427 519.056 582.753 517.834C583.079 516.613 584.339 515.903 586.86 514.485L588.131 513.771C588.812 513.387 589.153 513.196 589.527 513.098C589.9 513 590.291 513 591.073 513H605.001L628.326 515.21C628.538 515.23 628.645 515.24 628.751 515.242C628.858 515.245 628.964 515.24 629.177 515.23L670.576 513.258C673.154 513.136 674.443 513.074 675.336 513.808C676.229 514.543 676.419 515.819 676.797 518.372L681.879 552.676C681.94 553.088 681.97 553.293 682.029 553.492C682.087 553.691 682.172 553.88 682.343 554.259L696.532 585.791C698.112 589.303 698.902 591.058 698.118 592.395C697.334 593.731 695.415 593.898 691.579 594.23L607.171 601.552C604.706 601.765 603.473 601.872 602.568 601.217C601.663 600.562 601.379 599.357 600.812 596.948L600.16 594.178C600.081 593.839 600.041 593.67 600.021 593.498C600.001 593.325 600.001 593.151 600.001 592.804V578.5V565.041C600.001 564.771 600.001 564.636 600.013 564.501C600.025 564.367 600.049 564.234 600.098 563.968L601.627 555.554C601.812 554.537 601.905 554.028 601.827 553.527C601.748 553.026 601.505 552.57 601.018 551.658L594.001 538.5L584.646 522.784Z" fill="#8C1919"/>
<path d="M630.417 516.958C629.493 515.05 629.031 514.095 629.208 513.13C629.385 512.164 630.156 511.436 631.697 509.98L634.7 507.145C636.06 505.86 636.74 505.218 637.605 505.055C638.469 504.892 639.336 505.243 641.071 505.945L657.417 512.562C657.957 512.78 658.227 512.889 658.511 512.945C658.795 513 659.086 513 659.668 513H681L726.398 517.551C728.553 517.767 729.631 517.875 730.367 518.552C731.103 519.228 731.301 520.293 731.698 522.422L737.222 552.054C737.313 552.546 737.359 552.791 737.444 553.025C737.53 553.259 737.653 553.476 737.899 553.911L752.308 579.359C754.416 583.082 755.47 584.943 754.686 586.401C753.902 587.86 751.768 588.007 747.499 588.301L655.117 594.669C652.815 594.828 651.665 594.907 650.799 594.306C649.933 593.704 649.606 592.598 648.951 590.387L648.386 588.48C648.263 588.064 648.202 587.856 648.171 587.642C648.139 587.428 648.139 587.211 648.139 586.777V574.669V563.234C648.139 562.895 648.139 562.726 648.158 562.558C648.177 562.391 648.215 562.226 648.291 561.896L649.738 555.567C650.023 554.321 650.166 553.698 650.053 553.088C649.94 552.478 649.584 551.947 648.872 550.886L641.608 540.062L630.417 516.958Z" fill="#D26E6E"/>
<path d="M508.5 632.252C508.5 631.22 508.501 630.487 508.565 629.913C508.628 629.352 508.748 628.994 508.956 628.699C509.164 628.404 509.461 628.171 509.968 627.922C510.486 627.669 511.176 627.421 512.148 627.073L576.482 604.074C577.346 603.765 577.686 603.648 578.034 603.63C578.381 603.611 578.731 603.691 579.623 603.906L647.878 620.364C648.138 620.427 648.24 620.452 648.338 620.485C648.436 620.518 648.532 620.559 648.777 620.665L651.725 621.944C654.895 623.319 657.222 624.33 658.747 625.254C660.301 626.196 660.807 626.921 660.764 627.656C660.72 628.391 660.132 629.051 658.477 629.802C656.853 630.54 654.423 631.268 651.114 632.259L591.731 650.034L518.921 671.828C517.74 672.181 517.276 672.311 516.816 672.269C516.356 672.226 515.925 672.014 514.828 671.45L511.484 669.73C510.683 669.318 510.115 669.025 509.69 668.748C509.275 668.478 509.033 668.245 508.866 667.972C508.699 667.698 508.603 667.376 508.552 666.883C508.501 666.379 508.5 665.74 508.5 664.839V653.5V640.5V632.252Z" fill="#D26E6E" stroke="black"/>
<path d="M598.151 648.477L598.151 648.477L598.161 648.473L663.906 626.071C664.805 625.765 665.158 625.65 665.518 625.64C665.878 625.629 666.237 625.724 667.152 625.978L670.268 626.843C671.269 627.121 671.979 627.32 672.518 627.537C673.044 627.749 673.358 627.962 673.587 628.243C673.816 628.524 673.961 628.875 674.062 629.434C674.165 630.005 674.215 630.741 674.284 631.777L675.698 652.989C675.772 654.094 675.823 654.88 675.792 655.495C675.762 656.098 675.653 656.483 675.443 656.803C675.232 657.123 674.92 657.374 674.379 657.64C673.825 657.912 673.083 658.174 672.038 658.542L530.898 708.273C530.022 708.581 529.401 708.799 528.893 708.921C528.397 709.039 528.053 709.053 527.732 708.98C527.41 708.908 527.106 708.746 526.71 708.425C526.304 708.096 525.838 707.631 525.181 706.974L523.863 705.656L516.412 697.377C515.625 696.503 515.324 696.157 515.166 695.744C515.008 695.332 515 694.873 515 693.698V681.265L515 681.232C515 680.881 515 680.661 514.972 680.44C514.944 680.219 514.888 680.005 514.8 679.666L514.792 679.634L514.09 676.925C513.506 674.675 513.085 673.043 512.954 671.82C512.824 670.602 513.001 669.936 513.453 669.491C513.905 669.046 514.573 668.88 515.789 669.029C517.01 669.178 518.636 669.625 520.876 670.243L523.652 671.009L523.726 671.029C524.507 671.245 524.998 671.381 525.507 671.371C526.016 671.361 526.502 671.207 527.274 670.962L527.347 670.939L598.151 648.477Z" fill="#D26E6E" stroke="black"/>
<path d="M461.508 543.29C460.317 540.99 459.721 539.84 460.018 538.72C460.316 537.599 461.404 536.896 463.579 535.49L464.4 534.96C465.138 534.484 465.507 534.245 465.922 534.123C466.338 534 466.777 534 467.656 534H479.228L496.334 535.862C497.965 536.039 498.78 536.128 499.5 535.822C500.22 535.516 500.722 534.868 501.726 533.571L511.717 520.674C513.915 517.837 515.014 516.418 516.492 516.424C517.971 516.43 519.058 517.858 521.233 520.712L556.117 566.497C556.308 566.748 556.404 566.874 556.486 567.009C556.568 567.143 556.635 567.286 556.77 567.572L574.472 605.084C575.878 608.062 576.58 609.551 576.003 610.817C575.425 612.084 573.84 612.529 570.671 613.421L546.6 620.191C546.051 620.345 545.777 620.422 545.524 620.548C545.271 620.674 545.044 620.847 544.591 621.192L525.889 635.421C524.252 636.667 523.433 637.29 522.477 637.322C521.522 637.353 520.664 636.786 518.947 635.652L495.109 619.894C494.069 619.206 493.549 618.863 493.213 618.358C492.876 617.854 492.759 617.242 492.525 616.017L488.94 597.296C488.722 596.161 488.614 595.594 488.314 595.117C488.014 594.639 487.551 594.295 486.623 593.607L477.842 587.088C476.421 586.033 475.71 585.505 475.394 584.73C475.077 583.954 475.215 583.08 475.492 581.332L476.36 575.851C476.502 574.955 476.573 574.507 476.511 574.064C476.449 573.621 476.258 573.21 475.876 572.386L469.759 559.213L461.508 543.29Z" fill="#8C1919"/>
<path d="M917.972 567.334L917.942 567.249L917.884 567.18L910.509 558.328L912.485 509.913L937.1 504.99L937.121 504.986L937.141 504.98L949.073 501.5H957.501H968.464L978.427 502.994L978.439 502.996L978.452 502.998L988.391 503.991L995.322 506.467L1009.76 512.441L1023 521.76V539.432L1018.02 557.366L1018 557.425L1018 557.487L1017.54 575.051L1013.9 570.2L1013.75 570H1013.5H1001.5H1001.31L1001.16 570.133L987.683 582.612L975.208 591.594L975.041 591.715L975.007 591.918L973.507 600.918L973.5 600.959V601V613.217L971.362 614.5H963.581L942.658 607.526L942.604 607.508L942.547 607.502L922.06 605.551L924.496 586.062L924.511 585.945L924.472 585.834L917.972 567.334ZM909.79 559.027L917.058 567.751L923.489 586.055L921.05 605.57L900.958 609H886.5H886.408L886.323 609.033L871.91 614.5H861.026L862.501 583.524L862.516 583.209L862.239 583.06L856.001 579.701V575.151L860.812 567.936L883.593 561.993L909.79 559.027ZM860.672 615.5H872.001H872.093L872.179 615.467L886.592 610H901H901.042L901.084 609.993L921.519 606.504L942.396 608.492L963.342 615.474L963.419 615.5H963.5H971.07L973.506 631.575L973.541 631.811L973.747 631.931L987.609 640.056L988.001 640.286V664.691L978.419 669.482L945.086 664.507L945.075 664.505L927.613 661.512L910.139 656.519L910.112 656.511L910.084 656.507L892.098 653.509L872.13 649.016L854.392 643.596L848.091 625.178L860.672 615.5ZM996.583 656.707L989.001 663.843V640V639.714L988.754 639.569L988.501 639.42L991.956 631.704L992 631.607V631.5V612V606.322L997.208 603.955L997.227 603.947L997.244 603.937L1001.73 601.442L1008.62 598H1009.39L1005.01 620.404L1005.01 620.414L1005.01 620.424L1001.02 646.361L996.583 656.707ZM991 631.393L987.634 638.912L974.459 631.189L972.045 615.256L974.257 613.929L974.5 613.783V613.5V601.041L975.959 592.285L988.292 583.406L988.317 583.388L988.34 583.367L1001.7 571H1013.25L1017.5 576.667V585.843L1009.74 597H1008.5H1008.38L1008.28 597.053L1001.28 600.553L1001.27 600.558L1001.26 600.563L996.776 603.053L991.293 605.545L991 605.678V606V612V631.393Z" fill="#BABCAF" stroke="black"/>
<path d="M744.99 763.098L744.5 763L744.998 763.045L752.442 680.168L767.346 684.976L767.56 685.045L767.754 684.931L775.419 680.422L767.002 778.457L766.914 779.483L767.774 778.918L799.774 757.918L799.297 757.043L794.958 758.971L787.629 757.017L787.579 757.004L787.528 757.001L779.132 756.534L780.403 751.45L809.567 747.495L809.801 747.464L809.925 747.263L820.425 730.263L820.488 730.162L820.498 730.044L824.972 679.833L842.481 671.789L841 733.488L840.997 733.622L841.061 733.739L844.061 739.239L844.071 739.257L844.082 739.274L863.082 768.274L863.134 768.353L863.211 768.408L883.296 782.614L878.354 789.354L851.806 775.097L829.861 752.154L829.685 751.97L829.432 752.005L818.432 753.505L818.288 753.524L818.177 753.618L775.677 789.618L775.333 789.909L775.587 790.281L791.587 813.781L791.627 813.841L791.683 813.886L818.714 836.091L792.2 837.984L752.362 796.155L752.165 795.948L751.886 796.013L719.984 803.49L700 800.078V793.416L717.529 790.17C731.357 787.609 742.232 776.888 744.99 763.098Z" fill="#8B6751" stroke="black"/>
<path d="M838.885 624.987L838.898 624.99L838.912 624.992L880.89 632.488L901.183 637.933L905.274 644.295L811.803 689.45C805.717 692.391 798.847 693.295 792.207 692.03L739.615 682.013L693.396 668.877C692.623 668.657 691.896 668.297 691.252 667.814C686.987 664.615 688.114 657.933 693.194 656.311L811.52 618.519L838.885 624.987Z" fill="#8B6751" stroke="black"/>
<path d="M407.649 473.658H407.637L407.625 473.658L358.163 475.992L347.309 467.449L347.264 467.414L347.212 467.389L327.967 458.4L333.217 454.462L358.059 448.5H399.974L423.903 450.993L451.326 458.97L471.5 468.164V471.344L451.471 473.658H407.649Z" fill="white" stroke="black"/>
<path d="M253.5 769.5V769.588L253.53 769.672L263.03 795.672L263.102 795.868L263.292 795.955L287.292 806.955L287.446 807.025L287.612 806.987L374.612 786.987L374.623 786.985L374.633 786.982L435.903 770.045L442.5 774.757V806.5V806.555L442.512 806.609L449.012 835.609L449.045 835.756L449.154 835.861L461.654 847.861L461.799 848H462H471.913L484.155 852.407L488.463 860.065L486.023 868.851L482.028 880.336L481.977 880.481L482.017 880.629L483.849 887.5H112.369L65.4778 735.353L65.4713 735.332L65.4629 735.311L35.4629 661.811L35.4631 661.811L35.4575 661.798L22.5 632.395V607.5V607.459L22.4935 607.419L18.53 583.143L27.7355 572H39.5H39.6275L39.7394 571.939L50.4021 566.123L59.6375 575.844L59.7853 576H60H78H90.8661L103.684 583.395L120.632 601.838L120.667 601.877L120.71 601.908L139.65 615.364L153.104 632.805L153.218 632.952L153.399 632.99L228.726 648.454L249.041 673.229L253.5 691.56V746V769.5ZM471.5 847H462.201L449.955 835.244L443.5 806.445V774.5V774.243L443.291 774.093L436.291 769.093L436.097 768.955L435.867 769.018L374.377 786.015L287.554 805.975L263.898 795.132L254.5 769.411V746.307L287.62 729.5H294.5H294.545L294.589 729.492L322.045 724.5H350.92L417.81 746.464L455.156 764.888L461.563 774.745L471.5 795.613V847ZM287 728.693L254.5 745.186V691.911L294.435 684.022L303.469 688.302L302.517 698.301L298.187 703.593L287.293 708.545L287 708.678V709V728.693Z" fill="#AF9186" stroke="black"/>
<path d="M1060 134.5L1182.41 111V227.5L1060 239L1060 134.5Z" fill="white" fill-opacity="0.1"/>
<path d="M704 198.5L826.413 175V291.5L704 303L704 198.5Z" fill="white" fill-opacity="0.1"/>
<path d="M1065.5 362H1183.5V492L1069 484L1065.5 362Z" fill="#A5C7ED"/>
<path d="M1061 238L1181.5 227L1183 362H1065.5L1061 238Z" fill="#9FC2EC"/>
<path d="M245.951 489.002L245.933 489.004L245.916 489.007L190.681 498.462L177.864 484.816L177.716 484.658H177.5H156.5V473.347L160.091 472H167H167.246L167.396 471.805L172.289 465.445L197.097 459.491L239.038 453H296.462L312.876 455.487L340.268 465.448L351.5 473.261V478.391L290.451 484.66L290.449 484.661L245.951 489.002Z" fill="#E7E7E7" stroke="black"/>
<path d="M254.951 507.502L254.933 507.504L254.916 507.507L199.681 516.962L186.864 503.316L186.716 503.158H186.5H165.5V491.847L169.091 490.5H176H176.246L176.396 490.305L181.289 483.945L206.097 477.991L248.038 471.5H305.462L321.876 473.987L349.268 483.948L360.5 491.761V496.891L299.451 503.16L299.449 503.161L254.951 507.502Z" fill="#E7E7E7" stroke="black"/>
<path d="M400.563 496.437L400.544 496.439L400.526 496.442L363.418 502.933L354.848 493.609L354.699 493.447H354.48H340.5V485.924L342.786 485.048H347.408H347.658L347.808 484.849L351.068 480.518L367.711 476.436L395.937 471.973H434.584L445.608 473.679L464.019 480.521L471.5 485.838V489.15L430.532 493.449L430.529 493.45L400.563 496.437Z" fill="#E7E7E7" stroke="black"/>
<path d="M519.923 724.15L502.4 729.359L498.993 708.918L498.99 708.896L498.984 708.875L488.484 668.375L488.437 668.194L488.284 668.088L473.784 658.088L473.72 658.044L473.646 658.022L344.5 618.63V587.5H380.927L498.249 622.447L503.043 626.761L508 651.05V668.5V668.555L508.012 668.608L517.009 709.095L517.012 709.108L519.923 724.15Z" fill="#983C3C" stroke="black"/>
</svg>
