<svg width="2001" height="1501" viewBox="0 0 2001 1501" fill="none" xmlns="http://www.w3.org/2000/svg">
<path d="M1366.5 949.5H640.5V409.5H1366.5V949.5Z" fill="#A9A082" stroke="black"/>
<path d="M636.5 951H1368.5L1816 1243.5L143.5 1231.5L636.5 951Z" fill="#583808"/>
<path d="M640 1036H1373.5L1747.5 1243H374L640 1036Z" fill="#C4C4C4" fill-opacity="0.66"/>
<path d="M742 828.5L758 827L764 831.5L772.5 834L842 837.5L892 834L924.5 830L943 834L954.5 827L1064 844.5L1135 834V837.5L1143 844.5L1139.5 861.5H1148L1149.5 863L1150.5 878L1178.5 883L1186.5 889L1189 890L1193.5 894.5L1197 902L1186.5 902.5L1165 906.5L1160.5 927.5L1152 961.5L1149 1004.5H732.5V960.5L728.5 937L719.5 924.5H698.5L691 911V894.5L713 883L736.5 878H742L739.5 869.5L737.5 848.5V834L742 828.5Z" fill="#C4C4C4" fill-opacity="0.75"/>
<path d="M742 1011L737.5 1006H759.5L758 1010.5L762 1018L758 1022.5L753 1026.5V1029L752.5 1035.5H749.5H747L745 1031L746 1028.5L746.5 1026.5L745 1024.5L740.5 1021L737.5 1018L742 1011Z" fill="#311F04"/>
<path d="M0.5 0H214L640.5 410V950L0.5 1310V0Z" fill="#B7B294"/>
<path d="M1691.5 297.5L1877.5 172.5L1882 270.5L1834.5 302L1691.5 314.5V297.5Z" fill="#C4C4C4" fill-opacity="0.59"/>
<rect x="1154" y="607" width="213" height="343" fill="#C4C4C4" fill-opacity="0.41"/>
<path d="M214.5 0H1737L1356.5 409H638.5L214.5 0Z" fill="#CBC4B9"/>
<path d="M738 831L759.5 827.5L769 834L811 837H823H842L875 834L903.5 831L927.5 827.5L935.5 831L938 836L939 847.5L938 861H935.5L932 865L935.5 882.5L938 899L935.5 914V923L934 925.5L927.5 923L913.5 920.5L860 924.5L837.5 923H785.5L769 891L742 878L739.5 868.5L738 849.5V831Z" fill="#C4C4C4" fill-opacity="0.12"/>
<path d="M944 835.5L950.5 826H961L965 829.5H976.5L994.5 834L1011 835.5H1020H1031.5L1037.5 839.5L1048 841.5L1081 838.5L1109.5 835.5L1133.5 832L1138 838.5L1141.5 845.5L1138 859L1139.75 867.5L1141.5 865.5L1138 869.5L1141.5 887L1144 903.5L1141.5 918.5V927.5L1140 930L1133.5 927.5L1119.5 925L1066 929L1043.5 927.5H991.5L938 925L944 883L945.5 873L944 854V835.5Z" fill="#C8C2B9" fill-opacity="0.25"/>
<path d="M819.293 859.29C819.143 856.075 822.027 853.558 825.193 854.141L838 856.5L863.731 859.413C864.241 859.471 864.756 859.45 865.26 859.35L890.776 854.325C894.1 853.67 897.1 856.442 896.708 859.808L892.619 894.975C892.541 895.651 892.601 896.336 892.797 896.989L898.069 914.563C899.031 917.771 896.629 921 893.28 921H820.592C817.281 921 814.885 917.84 815.777 914.652L820.783 896.776C820.927 896.262 820.987 895.728 820.963 895.195L819.293 859.29Z" fill="#C4C4C4"/>
<path d="M987 858.904C987 855.651 990.057 853.264 993.213 854.053L1005 857L1023.91 862.674C1024.63 862.889 1025.38 862.94 1026.12 862.825L1057.73 857.899C1060.76 857.427 1063.5 859.771 1063.5 862.84V900L1065.45 919.502C1065.74 922.446 1063.43 925 1060.48 925H986.592C983.281 925 980.885 921.84 981.777 918.652L986.815 900.661C986.938 900.223 987 899.769 987 899.313V858.904Z" fill="#C4C4C4"/>
<path d="M1690 311.5L1832 303L1843 951L1671.5 905L1667 691.5L1671.5 618.5L1690 311.5Z" fill="#C4C4C4"/>
<path d="M1365.5 930H1376.5L1462.5 933.5L1512.5 930L1557.5 863.5L1569 867L1575.5 883.5L1684.5 908L1775 930L1808.5 918.5L1820.5 923L1831 944.5L1826.5 966.5L1873 979L1966.5 1008.5L1959 1083.5L1955.5 1114.5L1937 1155.5L1930 1203L1684.5 1229.5L1467 1256.5L1425.5 1221.5L1311.5 1096L1319 1033V1020.5L1316 1001.5V984L1311.5 965.5L1316 950.5V940.5L1325 937.5H1333.5L1338.5 930H1365.5Z" fill="#C2B8A0"/>
<path d="M1733.05 846L1728.61 845.012L1728.55 845H1728.5H1605.5H1599.62L1596.15 843.266L1597.96 839.207L1597.96 839.203L1666.83 687.483L1712.01 685H1763.5H1789.48L1815.17 687.471L1871.55 803.219L1871.55 803.221L1888.55 837.721L1888.64 837.899L1888.82 837.968L1892.5 839.347V845H1810.25H1768.88H1750H1749.97L1749.94 845.003L1741.47 846H1733.05ZM1733.61 847H1740.89L1740.51 848.902L1740.49 849L1740.51 849.098L1741 851.557L1742.5 901.015L1742.51 901.246L1742.69 901.39L1745.18 903.384L1745.19 903.39L1748.16 905.87L1751.15 908.854L1751.27 908.98L1751.45 908.998L1761 909.952V914V914.5H1761.5H1764.77L1767.06 917.258L1768.38 920.595V925.5V925.825L1768.67 925.957L1774.26 928.443L1778.06 930.812L1779.42 937.167L1770.84 940.026L1770.71 940.07L1770.62 940.176L1768.62 942.523L1763.95 943.003L1763.5 943.049V943.5V951V951.207L1763.65 951.354L1770.91 958.618L1735.97 962.5H1701.89L1705.36 956.877L1711.74 953.44L1712 953.299V953V947V940.5V940H1711.5H1706.36L1705.47 937.342L1705.39 937.081L1705.12 937.015L1701.14 936.02L1697 934.64V930.573L1698.39 925.927L1705.1 924.489L1705.4 924.426L1705.48 924.137L1706.47 920.659L1708.93 914.279L1714.25 908.959L1728.6 905.99L1728.76 905.956L1728.87 905.832L1732.87 901.332L1733 901.19V901V851.596L1733.96 849.186L1734.02 849.048L1733.99 848.902L1733.61 847Z" fill="#F9F3F3" stroke="black"/>
<path d="M744 1048L760 1037.5L779 1030L825.5 1027.5H849L878 1030H902H940.5H1023L1055 1040.5L1059 1044.5H1066.5L1076.5 1052L1072.5 1061L1076.5 1074V1103L1055 1102.5L1049.5 1114.5V1150.5H731.5H727.5L724.5 1141L723 1133V1103L715.5 1101.5L703.5 1095L701 1085.5L703.5 1079L708 1073L720 1063.5L727.5 1056L744 1048Z" fill="#C4C4C4"/>
<path d="M790 921L841.5 924.5H874.5L914.5 921L934 927.5L939 951.5V964.5L926 970.5H900.5H863.5H785.5L765.5 964.5L763.5 953L765.5 937.5L790 921Z" fill="#C1BDBC" fill-opacity="0.87"/>
<path d="M790 921L841.5 924.5H874.5L914.5 921L934 927.5L939 951.5V964.5L926 970.5H900.5H863.5H785.5L765.5 964.5L763.5 953L765.5 937.5L790 921Z" fill="#C1BDBC" fill-opacity="0.87"/>
<path d="M965.5 921L1017 924.5L1048.5 928H1087.5L1109 941.5L1114.5 951.5V964.5L1101.5 970.5H1076H1039H961L941 964.5L939 953L941 937.5L965.5 921Z" fill="#C4C0BF"/>
<path d="M965.5 921L1017 924.5L1048.5 928H1087.5L1109 941.5L1114.5 951.5V964.5L1101.5 970.5H1076H1039H961L941 964.5L939 953L941 937.5L965.5 921Z" fill="#C4C0BF"/>
<path d="M2 1371L852.5 1380L1410.5 1371L1689 1362.5L1846.5 1354L1896.5 1362.5H1951.5L2000.5 1371V1495L2 1501V1371Z" fill="#C4C4C4" fill-opacity="0.26"/>
<path d="M637.5 979.11L632.468 980.368L630.999 951.974L630.001 952.026L631.472 980.479L593.964 979.018L591.498 947.461L591.498 947.451L591.497 947.442L590.497 938.942L590.476 938.769L590.354 938.646L587 935.293V901H587L587 900.987L585.513 843.988L629.011 843L629.06 842.999L629.107 842.988L671.997 833.622L671.5 930.497H671.5L671.5 930.509L671.992 959.029L664.5 959.47V956V955.205L663.783 955.549L637.783 968.049L637.5 968.186V968.5V979.11Z" fill="#F8F7E5" stroke="black"/>
</svg>
