<svg width="286" height="347" viewBox="0 0 286 347" fill="none" xmlns="http://www.w3.org/2000/svg">
<path d="M117.745 33.9029C125.259 20.1533 145.25 20.8974 151.721 35.1676L171.829 79.507C173.863 83.9928 177.56 87.5133 182.139 89.3261L233.247 109.557C242.224 113.11 247.108 122.831 244.603 132.154L241.2 144.816C239.8 150.025 240.68 155.583 243.62 160.105L270.413 201.308C277.817 212.695 271.228 227.948 257.862 230.363L225.677 236.178C216.633 237.812 210.055 245.684 210.055 254.875V278.592C210.055 292.257 196.063 301.454 183.519 296.033L146.382 279.986C139.984 277.222 132.587 278.182 127.107 282.487L75.7386 322.848C63.2722 332.643 45 323.762 45 307.908V249.696C45 243.055 41.5331 236.896 35.8558 233.452L24.1605 226.356C12.7585 219.438 11.8456 203.233 22.3986 195.078L48.1543 175.175C55.9554 169.147 57.8496 158.153 52.516 149.862L24.6793 106.588C15.6132 92.4943 27.9048 74.419 44.3443 77.6698L75.3262 83.7961C83.4645 85.4054 91.706 81.5485 95.6845 74.2688L117.745 33.9029Z" fill="#C4C4C4"/>
<ellipse cx="136" cy="181" rx="59" ry="60" fill="#484242"/>
</svg>
