<svg width="219" height="104" viewBox="0 0 219 104" fill="none" xmlns="http://www.w3.org/2000/svg">
<path d="M6.27205 23.5056C6.27205 23.5056 9.05123 9.99036 20.5929 17.9419" stroke="black"/>
<path d="M8.69364 42.7928C8.69364 42.7928 13.2044 34.8224 13.4665 32.2336C13.3785 24.3922 22.5764 24.1352 21.7376 30.6789L17.5243 42.6783" stroke="black"/>
<path d="M5.9461 31.3692C5.9461 31.3692 8.40866 8.02956 26.5094 23.3803" stroke="black"/>
<path d="M8.22634 37.2386C8.22634 37.2386 9.89222 20.9116 18.937 23.6498C24.5752 25.3567 24.4728 33.7418 27.9677 38.4841C29.0352 39.9325 30.6641 41.3442 33.1077 42.54" stroke="black"/>
<path d="M6.72145 35.5407C6.72145 35.5407 9.60669 14.9791 21.9898 22.7321C25.8761 25.1653 26.7924 30.3457 28.5591 34.5769C29.7308 37.383 32.0445 40.463 36.5478 42.6923" stroke="black"/>
<line y1="-0.5" x2="15.4679" y2="-0.5" transform="matrix(-0.345863 0.938285 -0.944759 -0.327767 17.8016 29.2504)" stroke="black"/>
<path d="M24.1237 36.7837L24.2451 38.4274C24.3565 39.9358 25.1479 41.3141 26.397 42.1754L27.8817 43.1992" stroke="black"/>
<path d="M22.7895 45.0976L21.4595 45.0102C19.7084 44.8952 17.9938 45.5539 16.7678 46.8126L15.7377 47.8701" stroke="black"/>
<path d="M80.2727 9.15174C80.2727 9.15174 72.7879 -2.43971 64.9091 9.15174" stroke="black"/>
<path d="M85 28.0068C85 28.0068 77.9091 22.2109 76.7273 19.8928C73.9697 12.5517 65.303 15.643 68.4545 21.4388L76.7273 31.0979" stroke="black"/>
<path d="M83.4243 16.3637C83.4243 16.3637 72.6768 -4.50003 61.3637 16.3637" stroke="black"/>
<path d="M83.4243 22.6604C83.4243 22.6604 75.9589 8.04481 68.5197 13.8726C63.8823 17.5055 67.0143 25.2843 65.4739 30.9703C65.0034 32.707 63.9962 34.6128 62.1515 36.6124" stroke="black"/>
<path d="M84.2121 20.5327C84.2121 20.5327 74.0766 2.4115 65.3417 14.1226C62.6003 17.7981 63.6222 22.9587 63.5076 27.5425C63.4317 30.5824 62.3903 34.2912 59 37.9999" stroke="black"/>
<line y1="-0.5" x2="15.4679" y2="-0.5" transform="matrix(0.662172 0.749352 0.761939 -0.647648 71.6061 18.6818)" stroke="black"/>
<path d="M68.4411 27.9934L68.9233 29.5695C69.3656 31.0158 69.1271 32.5872 68.2747 33.8424L67.2615 35.3343" stroke="black"/>
<path d="M72.6955 35.2597L73.9037 34.6966C75.4942 33.9553 77.331 33.9483 78.9296 34.6776L80.2727 35.2904" stroke="black"/>
<path d="M117.727 6.15174C117.727 6.15174 125.212 -5.43971 133.091 6.15174" stroke="black"/>
<path d="M113 25.0068C113 25.0068 120.091 19.2109 121.273 16.8928C124.03 9.55172 132.697 12.643 129.545 18.4388L121.273 28.0979" stroke="black"/>
<path d="M114.576 13.3637C114.576 13.3637 125.323 -7.50003 136.636 13.3637" stroke="black"/>
<path d="M114.576 19.6604C114.576 19.6604 122.041 5.04481 129.48 10.8726C134.118 14.5055 130.986 22.2843 132.526 27.9703C132.997 29.707 134.004 31.6128 135.848 33.6124" stroke="black"/>
<path d="M113.788 17.5327C113.788 17.5327 123.923 -0.588504 132.658 11.1226C135.4 14.7981 134.378 19.9587 134.492 24.5425C134.568 27.5824 135.61 31.2912 139 34.9999" stroke="black"/>
<line y1="-0.5" x2="15.4679" y2="-0.5" transform="matrix(-0.662172 0.749352 -0.761939 -0.647648 126.394 15.6818)" stroke="black"/>
<path d="M129.559 24.9934L129.077 26.5695C128.634 28.0158 128.873 29.5872 129.725 30.8424L130.738 32.3343" stroke="black"/>
<path d="M125.304 32.2597L124.096 31.6966C122.506 30.9553 120.669 30.9483 119.07 31.6776L117.727 32.2904" stroke="black"/>
<path d="M168.064 22.7166C168.064 22.7166 179.923 15.6635 181.825 29.5495" stroke="black"/>
<path d="M155.444 37.5018C155.444 37.5018 164.373 35.4644 166.463 33.9137C172.197 28.5651 178.585 35.1883 173.185 38.9777L161.479 43.9497" stroke="black"/>
<path d="M162.034 27.7744C162.034 27.7744 180.939 13.8676 181.793 37.5858" stroke="black"/>
<path d="M159.234 33.414C159.234 33.414 172.42 23.6437 176.491 32.172C179.029 37.4883 172.764 43.0625 171.615 48.8403C171.264 50.605 171.319 52.7599 172.082 55.3712" stroke="black"/>
<path d="M159.474 31.1581C159.474 31.1581 176.611 19.4355 179.226 33.8095C180.047 38.3206 176.837 42.4883 174.901 46.6447C173.617 49.4012 172.9 53.1861 174.287 58.0158" stroke="black"/>
<line y1="-0.5" x2="15.4679" y2="-0.5" transform="matrix(-0.926351 0.376662 -0.394395 -0.918941 171.588 35.1068)" stroke="black"/>
<path d="M170.281 44.8543L169.149 46.0516C168.109 47.1502 167.624 48.6636 167.829 50.167L168.073 51.9539" stroke="black"/>
<path d="M163.239 49.4704L162.408 48.4287C161.313 47.0574 159.671 46.2343 157.915 46.1765L156.439 46.1279" stroke="black"/>
<path d="M203.819 71.5593C203.819 71.5593 217.55 72.918 210.842 85.224" stroke="black"/>
<path d="M184.888 75.9736C184.888 75.9736 193.284 79.631 195.886 79.6225C203.676 78.7195 204.888 87.8408 198.293 87.6871L185.92 84.7444" stroke="black"/>
<path d="M195.964 72.0529C195.964 72.0529 219.433 72.075 206.048 91.6739" stroke="black"/>
<path d="M190.364 74.9312C190.364 74.9312 206.775 74.8902 204.992 84.1706C203.881 89.9558 195.531 90.7259 191.178 94.695C189.848 95.9074 188.614 97.6743 187.678 100.229" stroke="black"/>
<path d="M191.896 73.258C191.896 73.258 212.646 73.9893 206.223 87.1115C204.207 91.2298 199.15 92.6798 195.125 94.877C192.456 96.3341 189.634 98.9556 187.885 103.666" stroke="black"/>
<line y1="-0.5" x2="15.4679" y2="-0.5" transform="matrix(-0.969165 -0.246413 0.227741 -0.973722 199.304 83.6239)" stroke="black"/>
<path d="M192.469 90.6952L190.847 90.9869C189.358 91.2545 188.07 92.1849 187.343 93.5168L186.479 95.0999" stroke="black"/>
<path d="M184.062 90.2328L184.01 88.9008C183.943 87.1473 183.109 85.5105 181.73 84.422L180.571 83.5075" stroke="black"/>
</svg>
