<svg width="718" height="940" viewBox="0 0 718 940" fill="none" xmlns="http://www.w3.org/2000/svg">
<rect y="5.90918" width="709.623" height="929.321" transform="rotate(-0.47711 0 5.90918)" fill="white"/>
<path d="M83.4028 60.696C83.4028 63.352 82.2668 65.512 79.9948 67.176C77.7228 68.808 75.2108 69.624 72.4588 69.624C69.7068 69.624 67.2748 69.144 65.1628 68.184L65.5468 69.144C65.6428 69.336 65.5628 69.512 65.3068 69.672C65.0828 69.864 64.8268 69.96 64.5388 69.96C64.2508 69.96 64.0588 69.88 63.9628 69.72C62.9388 67.128 62.3148 64.12 62.0908 60.696C62.0908 60.376 62.3468 60.216 62.8588 60.216C63.3708 60.216 63.6428 60.328 63.6748 60.552C64.3788 62.984 65.8028 64.936 67.9468 66.408C69.2588 67.336 70.7788 67.8 72.5068 67.8C74.2668 67.8 75.6748 67.304 76.7308 66.312C77.8188 65.288 78.3628 64.072 78.3628 62.664C78.3628 61.224 77.9948 59.944 77.2588 58.824C76.5228 57.672 75.6108 56.744 74.5228 56.04C73.4348 55.336 72.2508 54.6 70.9708 53.832C69.6908 53.032 68.5068 52.28 67.4188 51.576C66.3308 50.84 65.4188 49.864 64.6828 48.648C63.9468 47.432 63.5788 46.056 63.5788 44.52C63.5788 42.184 64.6188 40.216 66.6988 38.616C68.8108 36.984 71.4508 36.168 74.6188 36.168C76.0588 36.168 77.4028 36.36 78.6508 36.744L79.2268 36.888C79.0988 36.376 79.0188 36.024 78.9868 35.832C78.9868 35.64 79.0508 35.512 79.1788 35.448C79.3388 35.352 79.5628 35.304 79.8508 35.304C80.1708 35.304 80.3788 35.432 80.4748 35.688C81.2108 38.28 81.6428 40.824 81.7708 43.32C81.6748 43.512 81.4028 43.608 80.9548 43.608C80.5388 43.608 80.2828 43.56 80.1868 43.464C79.8348 42.152 79.3388 41.08 78.6988 40.248C78.0588 39.384 77.3548 38.792 76.5868 38.472C75.8188 38.152 74.9228 37.992 73.8988 37.992C71.9148 37.992 70.4908 38.504 69.6268 39.528C68.7948 40.52 68.3788 41.624 68.3788 42.84C68.3788 44.024 68.6508 45.048 69.1948 45.912C69.7708 46.744 70.4908 47.48 71.3548 48.12C72.2508 48.728 73.2268 49.336 74.2828 49.944C75.3388 50.52 76.3948 51.144 77.4508 51.816C78.5388 52.488 79.5308 53.224 80.4268 54.024C82.4108 55.784 83.4028 58.008 83.4028 60.696ZM115.903 43.128C115.903 43.384 115.647 43.512 115.135 43.512C114.623 43.512 114.351 43.368 114.319 43.08C113.935 41 113.279 39.816 112.351 39.528C110.719 39.112 108.047 38.872 104.335 38.808C103.695 38.84 103.263 39.016 103.039 39.336C102.815 39.656 102.703 40.216 102.703 41.016V63.192C102.703 66.008 103.039 67.416 103.711 67.416H106.495C106.751 67.416 106.879 67.688 106.879 68.232C106.879 68.744 106.751 69 106.495 69L100.447 68.952L93.7269 69.096C93.4709 69.096 93.3429 68.824 93.3429 68.28C93.3429 67.736 93.4709 67.464 93.7269 67.464H95.7909C96.5909 67.464 97.1189 67.32 97.3749 67.032C97.6309 66.712 97.7589 66.12 97.7589 65.256V43.032C97.7589 40.216 97.4389 38.808 96.7989 38.808H95.7909C92.6229 38.808 90.0629 39.048 88.1109 39.528C87.1829 39.816 86.5269 41 86.1429 43.08C86.1109 43.368 85.8389 43.512 85.3269 43.512C84.8149 43.512 84.5589 43.384 84.5589 43.128L84.9429 35.784C84.9429 35.496 85.1989 35.352 85.7109 35.352C86.2229 35.352 86.4789 35.496 86.4789 35.784V36.696C88.6549 36.76 90.6549 36.792 92.4789 36.792H106.831C109.423 36.792 111.807 36.76 113.983 36.696V35.784C113.983 35.496 114.239 35.352 114.751 35.352C115.263 35.352 115.519 35.496 115.519 35.784L115.903 43.128ZM118.687 66.792C118.687 67.56 118.415 68.232 117.871 68.808C117.359 69.352 116.719 69.624 115.951 69.624C115.215 69.624 114.575 69.368 114.031 68.856C113.487 68.312 113.215 67.672 113.215 66.936C113.215 66.2 113.455 65.56 113.935 65.016C114.447 64.44 115.071 64.152 115.807 64.152C116.575 64.152 117.247 64.408 117.823 64.92C118.399 65.4 118.687 66.024 118.687 66.792ZM172.952 68.952L166.664 69.096C166.408 69.096 166.28 68.824 166.28 68.28C166.28 67.736 166.408 67.464 166.664 67.464H168.488C169.096 67.464 169.528 67.336 169.784 67.08C170.04 66.824 170.152 66.424 170.12 65.88C170.088 65.304 169.944 63.304 169.688 59.88C168.92 50.344 168.536 44.888 168.536 43.512H168.344C167.8 44.728 166.024 48.792 163.016 55.704C160.008 62.584 158.136 66.792 157.4 68.328C157.24 68.584 156.952 68.712 156.536 68.712C156.12 68.712 155.848 68.584 155.72 68.328C154.92 67.08 153.304 63.448 150.872 57.432C148.44 51.384 146.6 46.6 145.352 43.08H145.16C144.36 54.344 143.96 61.224 143.96 63.72C143.96 66.184 144.36 67.416 145.16 67.416H147.272C147.688 67.416 147.896 67.688 147.896 68.232C147.896 68.744 147.688 69 147.272 69L142.232 68.952L136.184 69.096C135.896 69.096 135.752 68.824 135.752 68.28C135.752 67.736 135.896 67.464 136.184 67.464H137.768C138.632 67.464 139.224 67.4 139.544 67.272C139.896 67.112 140.12 66.744 140.216 66.168C140.536 64.312 141.032 60.232 141.704 53.928C142.408 47.24 142.76 43.256 142.76 41.976C142.76 40.664 142.664 39.72 142.472 39.144C142.312 38.536 141.992 38.232 141.512 38.232H139.112C138.856 38.232 138.728 37.976 138.728 37.464C138.728 36.952 138.856 36.696 139.112 36.696L148.184 36.792C148.6 38.2 150.056 42.344 152.552 49.224C155.08 56.072 156.744 60.648 157.544 62.952H157.736C158.632 60.712 159.912 57.56 161.576 53.496C164.808 45.56 166.936 39.992 167.96 36.792L176.024 36.648C176.312 36.648 176.456 36.92 176.456 37.464C176.456 37.976 176.312 38.232 176.024 38.232H174.2C173.592 38.232 173.192 38.408 173 38.76C172.808 39.08 172.712 39.448 172.712 39.864C172.712 40.248 172.712 40.648 172.712 41.064C172.744 41.48 173.048 44.728 173.624 50.808C174.232 56.856 174.728 61.464 175.112 64.632C175.304 66.488 175.672 67.416 176.216 67.416H179.24C179.592 67.416 179.768 67.688 179.768 68.232C179.768 68.744 179.592 69 179.24 69L172.952 68.952ZM189.987 36.744L196.707 36.6C196.963 36.6 197.091 36.872 197.091 37.416C197.091 37.96 196.963 38.232 196.707 38.232H194.643C193.843 38.232 193.315 38.392 193.059 38.712C192.803 39 192.675 39.576 192.675 40.44V63.192C192.675 66.008 193.011 67.416 193.683 67.416H196.467C196.723 67.416 196.851 67.688 196.851 68.232C196.851 68.744 196.723 69 196.467 69L190.419 68.952L183.699 69.096C183.443 69.096 183.315 68.824 183.315 68.28C183.315 67.736 183.443 67.464 183.699 67.464H185.763C186.563 67.464 187.091 67.32 187.347 67.032C187.603 66.712 187.731 66.12 187.731 65.256V42.504C187.731 39.688 187.395 38.28 186.723 38.28H183.939C183.683 38.28 183.555 38.024 183.555 37.512C183.555 36.968 183.683 36.696 183.939 36.696L189.987 36.744ZM230.201 62.328C230.265 61.976 230.537 61.8 231.017 61.8C231.529 61.8 231.785 61.944 231.785 62.232L231.401 68.904C231.401 69.16 231.145 69.288 230.633 69.288C230.153 69.288 229.913 69.16 229.913 68.904V67.752C226.777 69 223.705 69.624 220.697 69.624C215.193 69.624 210.617 68.248 206.969 65.496C203.321 62.712 201.497 58.872 201.497 53.976C201.497 50.296 202.457 47.08 204.377 44.328C206.297 41.544 208.729 39.496 211.673 38.184C214.617 36.84 217.625 36.168 220.697 36.168C223.801 36.168 226.569 36.792 229.001 38.04V36.936C229.001 36.648 229.225 36.504 229.673 36.504C230.153 36.504 230.393 36.648 230.393 36.936C230.393 39.528 230.553 41.896 230.873 44.04C230.937 44.36 230.697 44.52 230.153 44.52C229.609 44.52 229.321 44.36 229.289 44.04L228.905 41.784C226.409 39.48 223.417 38.328 219.929 38.328C216.473 38.328 213.529 39.608 211.097 42.168C208.665 44.696 207.449 48.296 207.449 52.968C207.449 57.608 208.729 61.192 211.289 63.72C213.881 66.216 217.113 67.464 220.985 67.464C224.121 67.464 227.097 66.504 229.913 64.584L230.201 62.328ZM265.364 36.744L272.084 36.6C272.34 36.6 272.468 36.872 272.468 37.416C272.468 37.96 272.34 38.232 272.084 38.232H270.02C269.22 38.232 268.692 38.392 268.436 38.712C268.18 39 268.052 39.576 268.052 40.44V63.192C268.052 66.008 268.388 67.416 269.06 67.416H271.844C272.1 67.416 272.228 67.688 272.228 68.232C272.228 68.744 272.1 69 271.844 69L265.796 68.952L259.076 69.096C258.82 69.096 258.692 68.824 258.692 68.28C258.692 67.736 258.82 67.464 259.076 67.464H261.14C261.94 67.464 262.468 67.32 262.724 67.032C262.98 66.712 263.108 66.12 263.108 65.256V53.928H245.972V63.192C245.972 66.008 246.308 67.416 246.98 67.416H249.764C250.02 67.416 250.148 67.688 250.148 68.232C250.148 68.744 250.02 69 249.764 69L243.716 68.952L236.996 69.096C236.74 69.096 236.612 68.824 236.612 68.28C236.612 67.736 236.74 67.464 236.996 67.464H239.06C239.86 67.464 240.388 67.32 240.644 67.032C240.9 66.712 241.028 66.12 241.028 65.256V42.504C241.028 39.688 240.692 38.28 240.02 38.28H237.236C236.98 38.28 236.852 38.024 236.852 37.512C236.852 36.968 236.98 36.696 237.236 36.696L243.284 36.744L250.004 36.6C250.26 36.6 250.388 36.872 250.388 37.416C250.388 37.96 250.26 38.232 250.004 38.232H247.94C247.14 38.232 246.612 38.392 246.356 38.712C246.1 39 245.972 39.576 245.972 40.44V51.96H263.108V42.504C263.108 39.688 262.772 38.28 262.1 38.28H259.316C259.06 38.28 258.932 38.024 258.932 37.512C258.932 36.968 259.06 36.696 259.316 36.696L265.364 36.744ZM300.295 68.952L294.199 69.096C293.911 69.096 293.767 68.824 293.767 68.28C293.767 67.736 293.911 67.464 294.199 67.464H296.935C297.607 67.464 297.943 67.192 297.943 66.648C297.943 66.424 297.335 64.52 296.119 60.936C294.903 57.32 294.151 55.064 293.863 54.168H285.175C282.903 61.4 281.767 65.576 281.767 66.696C281.767 67.176 281.863 67.416 282.055 67.416H285.511C285.863 67.416 286.039 67.688 286.039 68.232C286.039 68.744 285.831 69 285.415 69L279.223 68.952L273.895 69.096C273.607 69.096 273.463 68.824 273.463 68.28C273.463 67.736 273.607 67.464 273.895 67.464H276.295C276.999 67.464 277.527 67.112 277.879 66.408C279.223 63.496 280.919 59.16 282.967 53.4C285.047 47.64 286.455 43.832 287.191 41.976C287.959 40.088 288.343 39.048 288.343 38.856C288.343 38.632 288.279 38.392 288.151 38.136C288.023 37.88 287.959 37.72 287.959 37.656C287.959 37.4 288.183 37.272 288.631 37.272C289.111 37.272 289.543 37.16 289.927 36.936C290.343 36.712 290.615 36.456 290.743 36.168C291.095 35.464 291.415 35.112 291.703 35.112C291.831 35.112 292.055 35.592 292.375 36.552L302.023 62.616C303.239 65.816 304.087 67.416 304.567 67.416H306.295C306.615 67.416 306.775 67.688 306.775 68.232C306.775 68.744 306.647 69 306.391 69L300.295 68.952ZM289.543 41.688C288.551 44.248 287.303 47.768 285.799 52.248H293.191C291.047 45.752 289.895 42.232 289.735 41.688H289.543ZM309.236 36.696L315.284 36.792H329.204V35.784C329.204 35.496 329.428 35.352 329.876 35.352C330.356 35.352 330.596 35.496 330.596 35.784C330.596 38.984 330.756 41.416 331.076 43.08C331.14 43.336 330.916 43.464 330.404 43.464C329.892 43.464 329.604 43.336 329.54 43.08C329.028 41.064 328.42 39.896 327.716 39.576C326.02 38.936 323.3 38.6 319.556 38.568C318.916 38.6 318.484 38.776 318.26 39.096C318.068 39.416 317.972 39.976 317.972 40.776V52.104C319.956 52.072 321.892 51.976 323.78 51.816C325.668 51.656 326.692 51.528 326.852 51.432L327.332 48.6C327.364 48.376 327.556 48.264 327.908 48.264C328.58 48.264 328.884 48.408 328.82 48.696C328.66 49.944 328.58 51.352 328.58 52.92C328.58 54.488 328.66 55.896 328.82 57.144C328.884 57.4 328.644 57.528 328.1 57.528C327.588 57.528 327.332 57.432 327.332 57.24L326.804 54.36C326.612 54.264 325.588 54.136 323.732 53.976C321.908 53.784 319.988 53.672 317.972 53.64V62.856C317.972 65.672 318.308 67.08 318.98 67.08H321.428C326.388 67.016 329.78 66.344 331.604 65.064L331.94 62.424C332.004 62.168 332.276 62.04 332.756 62.04C333.268 62.04 333.524 62.136 333.524 62.328L333.092 70.056C333.092 70.28 332.836 70.392 332.324 70.392C331.844 70.392 331.604 70.28 331.604 70.056V69H319.748L308.996 69.096C308.74 69.096 308.612 68.824 308.612 68.28C308.612 67.736 308.74 67.464 308.996 67.464H311.06C311.86 67.464 312.388 67.32 312.644 67.032C312.9 66.712 313.028 66.12 313.028 65.256V42.504C313.028 39.688 312.692 38.28 312.02 38.28H309.236C308.98 38.28 308.852 38.024 308.852 37.512C308.852 36.968 308.98 36.696 309.236 36.696ZM344.768 36.744L351.488 36.6C351.744 36.6 351.872 36.872 351.872 37.416C351.872 37.96 351.744 38.232 351.488 38.232H349.424C348.624 38.232 348.096 38.392 347.84 38.712C347.584 39 347.456 39.576 347.456 40.44V67.08H350.24C355.328 67.08 358.848 66.408 360.8 65.064L361.136 62.424C361.2 62.168 361.472 62.04 361.952 62.04C362.464 62.04 362.72 62.136 362.72 62.328L362.288 70.056C362.288 70.28 362.032 70.392 361.52 70.392C361.04 70.392 360.8 70.28 360.8 70.056V69H345.2L338.48 69.096C338.224 69.096 338.096 68.824 338.096 68.28C338.096 67.736 338.224 67.464 338.48 67.464H340.544C341.344 67.464 341.872 67.32 342.128 67.032C342.384 66.712 342.512 66.12 342.512 65.256V42.504C342.512 39.688 342.176 38.28 341.504 38.28H338.72C338.464 38.28 338.336 38.024 338.336 37.512C338.336 36.968 338.464 36.696 338.72 36.696C338.72 36.696 340.736 36.712 344.768 36.744ZM371.752 42.936C371.752 41.784 370.984 41.208 369.448 41.208C369.256 41.208 369.048 41.224 368.824 41.256C367.992 40.84 367.576 40.168 367.576 39.24C367.576 38.312 367.832 37.592 368.344 37.08C368.856 36.536 369.576 36.264 370.504 36.264C371.464 36.264 372.264 36.68 372.904 37.512C373.544 38.344 373.864 39.304 373.864 40.392C373.864 42.472 373.304 44.152 372.184 45.432C371.096 46.712 369.544 47.912 367.528 49.032L367 48.12C368.344 47.448 369.464 46.616 370.36 45.624C371.288 44.632 371.752 43.736 371.752 42.936ZM401.262 60.696C401.262 63.352 400.126 65.512 397.854 67.176C395.582 68.808 393.07 69.624 390.318 69.624C387.566 69.624 385.134 69.144 383.022 68.184L383.406 69.144C383.502 69.336 383.422 69.512 383.166 69.672C382.942 69.864 382.686 69.96 382.398 69.96C382.11 69.96 381.918 69.88 381.822 69.72C380.798 67.128 380.174 64.12 379.95 60.696C379.95 60.376 380.206 60.216 380.718 60.216C381.23 60.216 381.502 60.328 381.534 60.552C382.238 62.984 383.662 64.936 385.806 66.408C387.118 67.336 388.638 67.8 390.366 67.8C392.126 67.8 393.534 67.304 394.59 66.312C395.678 65.288 396.222 64.072 396.222 62.664C396.222 61.224 395.854 59.944 395.118 58.824C394.382 57.672 393.47 56.744 392.382 56.04C391.294 55.336 390.11 54.6 388.83 53.832C387.55 53.032 386.366 52.28 385.278 51.576C384.19 50.84 383.278 49.864 382.542 48.648C381.806 47.432 381.438 46.056 381.438 44.52C381.438 42.184 382.478 40.216 384.558 38.616C386.67 36.984 389.31 36.168 392.478 36.168C393.918 36.168 395.262 36.36 396.51 36.744L397.086 36.888C396.958 36.376 396.878 36.024 396.846 35.832C396.846 35.64 396.91 35.512 397.038 35.448C397.198 35.352 397.422 35.304 397.71 35.304C398.03 35.304 398.238 35.432 398.334 35.688C399.07 38.28 399.502 40.824 399.63 43.32C399.534 43.512 399.262 43.608 398.814 43.608C398.398 43.608 398.142 43.56 398.046 43.464C397.694 42.152 397.198 41.08 396.558 40.248C395.918 39.384 395.214 38.792 394.446 38.472C393.678 38.152 392.782 37.992 391.758 37.992C389.774 37.992 388.35 38.504 387.486 39.528C386.654 40.52 386.238 41.624 386.238 42.84C386.238 44.024 386.51 45.048 387.054 45.912C387.63 46.744 388.35 47.48 389.214 48.12C390.11 48.728 391.086 49.336 392.142 49.944C393.198 50.52 394.254 51.144 395.31 51.816C396.398 52.488 397.39 53.224 398.286 54.024C400.27 55.784 401.262 58.008 401.262 60.696ZM447.239 36.744L453.959 36.6C454.215 36.6 454.343 36.872 454.343 37.416C454.343 37.96 454.215 38.232 453.959 38.232H451.895C451.095 38.232 450.567 38.392 450.311 38.712C450.055 39 449.927 39.576 449.927 40.44V63.192C449.927 66.008 450.263 67.416 450.935 67.416H453.719C453.975 67.416 454.103 67.688 454.103 68.232C454.103 68.744 453.975 69 453.719 69L447.671 68.952L440.951 69.096C440.695 69.096 440.567 68.824 440.567 68.28C440.567 67.736 440.695 67.464 440.951 67.464H443.015C443.815 67.464 444.343 67.32 444.599 67.032C444.855 66.712 444.983 66.12 444.983 65.256V53.928H427.847V63.192C427.847 66.008 428.183 67.416 428.855 67.416H431.639C431.895 67.416 432.023 67.688 432.023 68.232C432.023 68.744 431.895 69 431.639 69L425.591 68.952L418.871 69.096C418.615 69.096 418.487 68.824 418.487 68.28C418.487 67.736 418.615 67.464 418.871 67.464H420.935C421.735 67.464 422.263 67.32 422.519 67.032C422.775 66.712 422.903 66.12 422.903 65.256V42.504C422.903 39.688 422.567 38.28 421.895 38.28H419.111C418.855 38.28 418.727 38.024 418.727 37.512C418.727 36.968 418.855 36.696 419.111 36.696L425.159 36.744L431.879 36.6C432.135 36.6 432.263 36.872 432.263 37.416C432.263 37.96 432.135 38.232 431.879 38.232H429.815C429.015 38.232 428.487 38.392 428.231 38.712C427.975 39 427.847 39.576 427.847 40.44V51.96H444.983V42.504C444.983 39.688 444.647 38.28 443.975 38.28H441.191C440.935 38.28 440.807 38.024 440.807 37.512C440.807 36.968 440.935 36.696 441.191 36.696L447.239 36.744ZM464.026 41.064C467.45 37.8 471.562 36.168 476.362 36.168C481.162 36.168 485.274 37.8 488.698 41.064C492.122 44.328 493.834 48.28 493.834 52.92C493.834 57.528 492.122 61.464 488.698 64.728C485.274 67.992 481.162 69.624 476.362 69.624C471.562 69.624 467.45 67.992 464.026 64.728C460.602 61.464 458.89 57.528 458.89 52.92C458.89 48.28 460.602 44.328 464.026 41.064ZM484.57 42.552C482.458 39.768 479.722 38.376 476.362 38.376C473.002 38.376 470.25 39.768 468.106 42.552C465.994 45.336 464.938 48.792 464.938 52.92C464.938 57.016 465.994 60.456 468.106 63.24C470.25 66.024 473.002 67.416 476.362 67.416C479.722 67.416 482.458 66.024 484.57 63.24C486.714 60.456 487.786 57.016 487.786 52.92C487.786 48.792 486.714 45.336 484.57 42.552ZM519.668 60.696C519.668 63.352 518.532 65.512 516.26 67.176C513.988 68.808 511.476 69.624 508.724 69.624C505.972 69.624 503.54 69.144 501.428 68.184L501.812 69.144C501.908 69.336 501.828 69.512 501.572 69.672C501.348 69.864 501.092 69.96 500.804 69.96C500.516 69.96 500.324 69.88 500.228 69.72C499.204 67.128 498.58 64.12 498.356 60.696C498.356 60.376 498.612 60.216 499.124 60.216C499.636 60.216 499.908 60.328 499.94 60.552C500.644 62.984 502.068 64.936 504.212 66.408C505.524 67.336 507.044 67.8 508.772 67.8C510.532 67.8 511.94 67.304 512.996 66.312C514.084 65.288 514.628 64.072 514.628 62.664C514.628 61.224 514.26 59.944 513.524 58.824C512.788 57.672 511.876 56.744 510.788 56.04C509.7 55.336 508.516 54.6 507.236 53.832C505.956 53.032 504.772 52.28 503.684 51.576C502.596 50.84 501.684 49.864 500.948 48.648C500.212 47.432 499.844 46.056 499.844 44.52C499.844 42.184 500.884 40.216 502.964 38.616C505.076 36.984 507.716 36.168 510.884 36.168C512.324 36.168 513.668 36.36 514.916 36.744L515.492 36.888C515.364 36.376 515.284 36.024 515.252 35.832C515.252 35.64 515.316 35.512 515.444 35.448C515.604 35.352 515.828 35.304 516.116 35.304C516.436 35.304 516.644 35.432 516.74 35.688C517.476 38.28 517.908 40.824 518.036 43.32C517.94 43.512 517.668 43.608 517.22 43.608C516.804 43.608 516.548 43.56 516.452 43.464C516.1 42.152 515.604 41.08 514.964 40.248C514.324 39.384 513.62 38.792 512.852 38.472C512.084 38.152 511.188 37.992 510.164 37.992C508.18 37.992 506.756 38.504 505.892 39.528C505.06 40.52 504.644 41.624 504.644 42.84C504.644 44.024 504.916 45.048 505.46 45.912C506.036 46.744 506.756 47.48 507.62 48.12C508.516 48.728 509.492 49.336 510.548 49.944C511.604 50.52 512.66 51.144 513.716 51.816C514.804 52.488 515.796 53.224 516.692 54.024C518.676 55.784 519.668 58.008 519.668 60.696ZM525.049 36.696L531.097 36.792H536.617C540.841 36.792 544.009 37.608 546.121 39.24C548.265 40.872 549.337 42.872 549.337 45.24C549.337 47.576 548.361 49.672 546.409 51.528C544.457 53.352 541.961 54.264 538.921 54.264C537.257 54.264 535.545 53.88 533.785 53.112V63.192C533.785 66.008 534.121 67.416 534.793 67.416H537.577C537.897 67.416 538.057 67.688 538.057 68.232C538.057 68.744 537.897 69 537.577 69H535.513L533.449 68.952H531.529L524.809 69.096C524.553 69.096 524.425 68.824 524.425 68.28C524.425 67.736 524.553 67.464 524.809 67.464H526.873C527.673 67.464 528.201 67.32 528.457 67.032C528.713 66.712 528.841 66.12 528.841 65.256V42.504C528.841 39.688 528.505 38.28 527.833 38.28H525.049C524.793 38.28 524.665 38.024 524.665 37.512C524.665 36.968 524.793 36.696 525.049 36.696ZM536.329 51.864C538.793 51.864 540.713 51.256 542.089 50.04C543.465 48.824 544.153 47.32 544.153 45.528C544.153 43.704 543.401 42.12 541.897 40.776C540.425 39.4 538.297 38.712 535.513 38.712C534.905 38.712 534.457 38.872 534.169 39.192C533.913 39.512 533.785 40.088 533.785 40.92V51.576C534.649 51.768 535.497 51.864 536.329 51.864ZM559.737 36.744L566.457 36.6C566.713 36.6 566.841 36.872 566.841 37.416C566.841 37.96 566.713 38.232 566.457 38.232H564.393C563.593 38.232 563.065 38.392 562.809 38.712C562.553 39 562.425 39.576 562.425 40.44V63.192C562.425 66.008 562.761 67.416 563.433 67.416H566.217C566.473 67.416 566.601 67.688 566.601 68.232C566.601 68.744 566.473 69 566.217 69L560.169 68.952L553.449 69.096C553.193 69.096 553.065 68.824 553.065 68.28C553.065 67.736 553.193 67.464 553.449 67.464H555.513C556.313 67.464 556.841 67.32 557.097 67.032C557.353 66.712 557.481 66.12 557.481 65.256V42.504C557.481 39.688 557.145 38.28 556.473 38.28H553.689C553.433 38.28 553.305 38.024 553.305 37.512C553.305 36.968 553.433 36.696 553.689 36.696L559.737 36.744ZM599.231 43.128C599.231 43.384 598.975 43.512 598.463 43.512C597.951 43.512 597.679 43.368 597.647 43.08C597.263 41 596.607 39.816 595.679 39.528C594.047 39.112 591.375 38.872 587.663 38.808C587.023 38.84 586.591 39.016 586.367 39.336C586.143 39.656 586.031 40.216 586.031 41.016V63.192C586.031 66.008 586.367 67.416 587.039 67.416H589.823C590.079 67.416 590.207 67.688 590.207 68.232C590.207 68.744 590.079 69 589.823 69L583.775 68.952L577.055 69.096C576.799 69.096 576.671 68.824 576.671 68.28C576.671 67.736 576.799 67.464 577.055 67.464H579.119C579.919 67.464 580.447 67.32 580.703 67.032C580.959 66.712 581.087 66.12 581.087 65.256V43.032C581.087 40.216 580.767 38.808 580.127 38.808H579.119C575.951 38.808 573.391 39.048 571.439 39.528C570.511 39.816 569.855 41 569.471 43.08C569.439 43.368 569.167 43.512 568.655 43.512C568.143 43.512 567.887 43.384 567.887 43.128L568.271 35.784C568.271 35.496 568.527 35.352 569.039 35.352C569.551 35.352 569.807 35.496 569.807 35.784V36.696C571.983 36.76 573.983 36.792 575.807 36.792H590.159C592.751 36.792 595.135 36.76 597.311 36.696V35.784C597.311 35.496 597.567 35.352 598.079 35.352C598.591 35.352 598.847 35.496 598.847 35.784L599.231 43.128ZM623.545 68.952L617.449 69.096C617.161 69.096 617.017 68.824 617.017 68.28C617.017 67.736 617.161 67.464 617.449 67.464H620.185C620.857 67.464 621.193 67.192 621.193 66.648C621.193 66.424 620.585 64.52 619.369 60.936C618.153 57.32 617.401 55.064 617.113 54.168H608.425C606.153 61.4 605.017 65.576 605.017 66.696C605.017 67.176 605.113 67.416 605.305 67.416H608.761C609.113 67.416 609.289 67.688 609.289 68.232C609.289 68.744 609.081 69 608.665 69L602.473 68.952L597.145 69.096C596.857 69.096 596.713 68.824 596.713 68.28C596.713 67.736 596.857 67.464 597.145 67.464H599.545C600.249 67.464 600.777 67.112 601.129 66.408C602.473 63.496 604.169 59.16 606.217 53.4C608.297 47.64 609.705 43.832 610.441 41.976C611.209 40.088 611.593 39.048 611.593 38.856C611.593 38.632 611.529 38.392 611.401 38.136C611.273 37.88 611.209 37.72 611.209 37.656C611.209 37.4 611.433 37.272 611.881 37.272C612.361 37.272 612.793 37.16 613.177 36.936C613.593 36.712 613.865 36.456 613.993 36.168C614.345 35.464 614.665 35.112 614.953 35.112C615.081 35.112 615.305 35.592 615.625 36.552L625.273 62.616C626.489 65.816 627.337 67.416 627.817 67.416H629.545C629.865 67.416 630.025 67.688 630.025 68.232C630.025 68.744 629.897 69 629.641 69L623.545 68.952ZM612.793 41.688C611.801 44.248 610.553 47.768 609.049 52.248H616.441C614.297 45.752 613.145 42.232 612.985 41.688H612.793ZM638.534 36.744L645.254 36.6C645.51 36.6 645.638 36.872 645.638 37.416C645.638 37.96 645.51 38.232 645.254 38.232H643.19C642.39 38.232 641.862 38.392 641.606 38.712C641.35 39 641.222 39.576 641.222 40.44V67.08H644.006C649.094 67.08 652.614 66.408 654.566 65.064L654.902 62.424C654.966 62.168 655.238 62.04 655.718 62.04C656.23 62.04 656.486 62.136 656.486 62.328L656.054 70.056C656.054 70.28 655.798 70.392 655.286 70.392C654.806 70.392 654.566 70.28 654.566 70.056V69H638.966L632.246 69.096C631.99 69.096 631.862 68.824 631.862 68.28C631.862 67.736 631.99 67.464 632.246 67.464H634.31C635.11 67.464 635.638 67.32 635.894 67.032C636.15 66.712 636.278 66.12 636.278 65.256V42.504C636.278 39.688 635.942 38.28 635.27 38.28H632.486C632.23 38.28 632.102 38.024 632.102 37.512C632.102 36.968 632.23 36.696 632.486 36.696C632.486 36.696 634.502 36.712 638.534 36.744Z" fill="black"/>
<path d="M259.38 761.128C259.38 761.384 259.124 761.512 258.612 761.512C258.1 761.512 257.828 761.368 257.796 761.08C257.412 759 256.756 757.816 255.828 757.528C254.196 757.112 251.524 756.872 247.812 756.808C247.172 756.84 246.74 757.016 246.516 757.336C246.292 757.656 246.18 758.216 246.18 759.016V781.192C246.18 784.008 246.516 785.416 247.188 785.416H249.972C250.228 785.416 250.356 785.688 250.356 786.232C250.356 786.744 250.228 787 249.972 787L243.924 786.952L237.204 787.096C236.948 787.096 236.82 786.824 236.82 786.28C236.82 785.736 236.948 785.464 237.204 785.464H239.268C240.068 785.464 240.596 785.32 240.852 785.032C241.108 784.712 241.236 784.12 241.236 783.256V761.032C241.236 758.216 240.916 756.808 240.276 756.808H239.268C236.1 756.808 233.54 757.048 231.588 757.528C230.66 757.816 230.004 759 229.62 761.08C229.588 761.368 229.316 761.512 228.803 761.512C228.291 761.512 228.035 761.384 228.035 761.128L228.419 753.784C228.419 753.496 228.675 753.352 229.188 753.352C229.7 753.352 229.956 753.496 229.956 753.784V754.696C232.132 754.76 234.132 754.792 235.956 754.792H250.308C252.9 754.792 255.284 754.76 257.46 754.696V753.784C257.46 753.496 257.716 753.352 258.228 753.352C258.74 753.352 258.996 753.496 258.996 753.784L259.38 761.128ZM263.773 766.888C266.365 764.488 269.373 763.288 272.797 763.288C276.221 763.288 279.213 764.488 281.773 766.888C284.365 769.288 285.661 772.136 285.661 775.432C285.661 778.696 284.365 781.544 281.773 783.976C279.213 786.408 276.221 787.624 272.797 787.624C269.373 787.624 266.365 786.408 263.773 783.976C261.213 781.544 259.933 778.696 259.933 775.432C259.933 772.136 261.213 769.288 263.773 766.888ZM278.605 768.04C277.101 766.024 275.165 765.016 272.797 765.016C270.429 765.016 268.493 766.024 266.989 768.04C265.485 770.024 264.733 772.488 264.733 775.432C264.733 778.344 265.485 780.824 266.989 782.872C268.493 784.888 270.429 785.896 272.797 785.896C275.165 785.896 277.101 784.888 278.605 782.872C280.109 780.824 280.861 778.344 280.861 775.432C280.861 772.488 280.109 770.024 278.605 768.04ZM311.356 768.952C311.356 769.144 311.132 769.24 310.684 769.24C310.268 769.24 310.06 769.128 310.06 768.904C309.74 767.336 309.26 766.472 308.62 766.312C307.468 766.056 305.724 765.896 303.388 765.832H302.476C302.156 765.864 301.996 766.12 301.996 766.6V781.864C301.996 784.296 302.316 785.512 302.956 785.512H305.356C305.612 785.512 305.74 785.768 305.74 786.28C305.74 786.76 305.644 787 305.452 787L299.884 786.952L295.084 787.096C294.86 787.096 294.748 786.856 294.748 786.376C294.748 785.896 294.844 785.656 295.036 785.656H297.196C297.548 785.656 297.756 785.592 297.82 785.464C297.884 785.304 297.916 784.904 297.916 784.264V769.672C297.916 767.272 297.628 765.992 297.052 765.832C294.46 765.832 292.524 765.992 291.244 766.312C290.604 766.472 290.124 767.336 289.804 768.904C289.804 769.128 289.58 769.24 289.132 769.24C288.716 769.24 288.508 769.144 288.508 768.952L288.748 763.192C288.748 763 288.956 762.904 289.372 762.904C289.82 762.904 290.044 763 290.044 763.192V763.816C290.044 763.816 292.14 763.848 296.332 763.912H299.884C304.748 763.912 308.012 763.88 309.676 763.816H309.82V763.192C309.82 763 310.028 762.904 310.444 762.904C310.892 762.904 311.116 763 311.116 763.192L311.356 768.952ZM314.744 787L310.952 787.096C310.728 787.096 310.616 786.888 310.616 786.472C310.616 786.056 310.728 785.848 310.952 785.848H312.488C312.84 785.848 313.096 785.704 313.256 785.416C313.992 784.2 315.464 780.968 317.672 775.72C319.88 770.44 321.464 766.44 322.424 763.72C322.552 763.432 322.856 763.288 323.336 763.288C323.848 763.288 324.168 763.448 324.296 763.768C324.68 765.368 325.8 768.392 327.656 772.84C329.544 777.288 331.192 781 332.6 783.976C332.984 784.744 333.336 785.24 333.656 785.464C333.976 785.688 334.472 785.8 335.144 785.8C335.336 785.8 335.432 786.024 335.432 786.472C335.432 786.888 335.352 787.096 335.192 787.096L330.584 787L325.4 787.096C325.208 787.096 325.112 786.888 325.112 786.472C325.112 786.056 325.208 785.848 325.4 785.848H327.704C328.056 785.848 328.232 785.704 328.232 785.416C328.232 785.384 327.336 782.92 325.544 778.024H318.872C317.304 781.896 316.52 784.168 316.52 784.84C316.52 785.48 316.712 785.8 317.096 785.8H319.064C319.32 785.8 319.448 786.024 319.448 786.472C319.448 786.888 319.352 787.096 319.16 787.096L314.744 787ZM324.92 776.392C324.824 776.104 323.992 773.672 322.424 769.096H322.28C321.512 771.304 320.6 773.736 319.544 776.392H324.92ZM337.805 763.816L341.597 763.912C341.949 763.912 342.253 763.912 342.509 763.912L347.501 763.816C347.725 763.816 347.837 764.056 347.837 764.536C347.837 764.984 347.709 765.208 347.453 765.208H345.245C344.829 765.208 344.621 765.464 344.621 765.976V781.864C344.621 784.264 344.941 785.464 345.581 785.464H346.829C350.349 785.4 352.781 784.904 354.125 783.976L354.365 782.104C354.429 781.912 354.589 781.816 354.845 781.816C355.133 781.816 355.325 781.816 355.421 781.816C355.613 781.88 355.709 781.976 355.709 782.104C355.517 783.448 355.421 785.336 355.421 787.768C355.421 787.928 355.197 788.008 354.749 788.008C354.333 788.008 354.125 787.928 354.125 787.768V787H345.869L337.709 787.096C337.485 787.096 337.373 786.856 337.373 786.376C337.373 785.896 337.469 785.656 337.661 785.656H339.821C340.173 785.656 340.381 785.592 340.445 785.464C340.509 785.304 340.541 784.904 340.541 784.264V769.144C340.541 766.584 340.221 765.304 339.581 765.304H337.853C337.469 765.304 337.277 765.064 337.277 764.584C337.277 764.072 337.453 763.816 337.805 763.816ZM399.928 780.328C399.992 779.976 400.264 779.8 400.744 779.8C401.256 779.8 401.512 779.944 401.512 780.232L401.128 786.904C401.128 787.16 400.872 787.288 400.36 787.288C399.88 787.288 399.64 787.16 399.64 786.904V785.752C396.504 787 393.432 787.624 390.424 787.624C384.92 787.624 380.344 786.248 376.696 783.496C373.048 780.712 371.224 776.872 371.224 771.976C371.224 768.296 372.184 765.08 374.104 762.328C376.024 759.544 378.456 757.496 381.4 756.184C384.344 754.84 387.352 754.168 390.424 754.168C393.528 754.168 396.296 754.792 398.728 756.04V754.936C398.728 754.648 398.952 754.504 399.4 754.504C399.88 754.504 400.12 754.648 400.12 754.936C400.12 757.528 400.28 759.896 400.6 762.04C400.664 762.36 400.424 762.52 399.88 762.52C399.336 762.52 399.048 762.36 399.016 762.04L398.632 759.784C396.136 757.48 393.144 756.328 389.656 756.328C386.2 756.328 383.256 757.608 380.824 760.168C378.392 762.696 377.176 766.296 377.176 770.968C377.176 775.608 378.456 779.192 381.016 781.72C383.608 784.216 386.84 785.464 390.712 785.464C393.848 785.464 396.824 784.504 399.64 782.584L399.928 780.328ZM409.555 766.888C412.147 764.488 415.155 763.288 418.579 763.288C422.003 763.288 424.995 764.488 427.555 766.888C430.147 769.288 431.443 772.136 431.443 775.432C431.443 778.696 430.147 781.544 427.555 783.976C424.995 786.408 422.003 787.624 418.579 787.624C415.155 787.624 412.147 786.408 409.555 783.976C406.995 781.544 405.715 778.696 405.715 775.432C405.715 772.136 406.995 769.288 409.555 766.888ZM424.387 768.04C422.883 766.024 420.947 765.016 418.579 765.016C416.211 765.016 414.275 766.024 412.771 768.04C411.267 770.024 410.515 772.488 410.515 775.432C410.515 778.344 411.267 780.824 412.771 782.872C414.275 784.888 416.211 785.896 418.579 785.896C420.947 785.896 422.883 784.888 424.387 782.872C425.891 780.824 426.643 778.344 426.643 775.432C426.643 772.488 425.891 770.024 424.387 768.04ZM449.217 763.72L450.225 769C450.225 769.256 450.033 769.384 449.649 769.384C449.265 769.384 449.025 769.256 448.929 769C448.513 767.816 447.857 766.84 446.961 766.072C446.065 765.304 445.089 764.92 444.033 764.92C443.009 764.888 442.097 765.176 441.297 765.784C440.529 766.392 440.145 767.144 440.145 768.04C440.145 768.904 440.401 769.704 440.913 770.44C441.457 771.144 442.113 771.752 442.881 772.264C443.649 772.776 444.497 773.368 445.425 774.04C446.353 774.68 447.201 775.32 447.969 775.96C448.737 776.6 449.377 777.432 449.889 778.456C450.433 779.48 450.705 780.584 450.705 781.768C450.705 783.624 449.889 785.064 448.257 786.088C446.625 787.112 444.849 787.624 442.929 787.624C441.041 787.624 439.297 787.256 437.697 786.52C437.697 786.904 437.665 787.144 437.601 787.24C437.569 787.336 437.409 787.4 437.121 787.432H436.929C436.673 787.432 436.529 787.304 436.497 787.048C436.433 786.28 436.305 785.224 436.113 783.88C435.921 782.536 435.777 781.448 435.681 780.616C435.681 780.296 435.873 780.136 436.257 780.136C436.673 780.136 436.897 780.216 436.929 780.376C437.377 781.944 438.161 783.304 439.281 784.456C440.401 785.576 441.569 786.136 442.785 786.136C444.001 786.136 445.009 785.848 445.809 785.272C446.609 784.664 447.009 783.832 447.009 782.776C447.009 781.72 446.641 780.76 445.905 779.896C445.201 779 444.337 778.2 443.313 777.496C442.289 776.792 441.265 776.088 440.241 775.384C439.217 774.648 438.337 773.752 437.601 772.696C436.897 771.64 436.545 770.488 436.545 769.24C436.545 767.448 437.297 766.024 438.801 764.968C440.337 763.912 442.145 763.384 444.225 763.384C445.409 763.384 446.673 763.608 448.017 764.056C447.953 763.864 447.921 763.64 447.921 763.384C447.921 763.096 448.065 762.952 448.353 762.952C448.673 762.952 448.881 763 448.977 763.096C449.073 763.16 449.153 763.368 449.217 763.72ZM476.356 768.952C476.356 769.144 476.132 769.24 475.684 769.24C475.268 769.24 475.06 769.128 475.06 768.904C474.74 767.336 474.26 766.472 473.62 766.312C472.468 766.056 470.724 765.896 468.388 765.832H467.476C467.156 765.864 466.996 766.12 466.996 766.6V781.864C466.996 784.296 467.316 785.512 467.956 785.512H470.356C470.612 785.512 470.74 785.768 470.74 786.28C470.74 786.76 470.644 787 470.452 787L464.884 786.952L460.084 787.096C459.86 787.096 459.748 786.856 459.748 786.376C459.748 785.896 459.844 785.656 460.036 785.656H462.196C462.548 785.656 462.756 785.592 462.82 785.464C462.884 785.304 462.916 784.904 462.916 784.264V769.672C462.916 767.272 462.628 765.992 462.052 765.832C459.46 765.832 457.524 765.992 456.244 766.312C455.604 766.472 455.124 767.336 454.804 768.904C454.804 769.128 454.58 769.24 454.132 769.24C453.716 769.24 453.508 769.144 453.508 768.952L453.748 763.192C453.748 763 453.956 762.904 454.372 762.904C454.82 762.904 455.044 763 455.044 763.192V763.816C455.044 763.816 457.14 763.848 461.332 763.912H464.884C469.748 763.912 473.012 763.88 474.676 763.816H474.82V763.192C474.82 763 475.028 762.904 475.444 762.904C475.892 762.904 476.116 763 476.116 763.192L476.356 768.952ZM486.32 768.664C486.32 769.432 486.048 770.104 485.504 770.68C484.992 771.224 484.352 771.496 483.584 771.496C482.848 771.496 482.208 771.24 481.664 770.728C481.12 770.184 480.848 769.544 480.848 768.808C480.848 768.072 481.088 767.432 481.568 766.888C482.08 766.312 482.704 766.024 483.44 766.024C484.208 766.024 484.88 766.28 485.456 766.792C486.032 767.272 486.32 767.896 486.32 768.664ZM486.32 784.792C486.32 785.56 486.048 786.232 485.504 786.808C484.992 787.352 484.352 787.624 483.584 787.624C482.848 787.624 482.208 787.368 481.664 786.856C481.12 786.312 480.848 785.672 480.848 784.936C480.848 784.2 481.088 783.56 481.568 783.016C482.08 782.44 482.704 782.152 483.44 782.152C484.208 782.152 484.88 782.408 485.456 782.92C486.032 783.4 486.32 784.024 486.32 784.792Z" fill="black"/>
<path d="M229.188 791.8H489.824V794.2H229.188V791.8Z" fill="black"/>
<path d="M311.992 884.896L317.512 884.176C317.736 884.176 317.848 884.592 317.848 885.424C317.848 886.256 317.72 886.672 317.464 886.672C317.048 886.672 316.344 886.624 315.352 886.528C314.392 886.4 313.48 886.32 312.616 886.288C313.128 887.6 313.384 888.8 313.384 889.888C313.384 890.976 313.24 891.952 312.952 892.816C313.496 892.944 314.28 893.168 315.304 893.488C317.544 894.192 319.496 894.544 321.16 894.544C322.824 894.544 324.04 893.984 324.808 892.864C324.968 892.608 325.16 892.528 325.384 892.624C325.608 892.72 325.72 892.848 325.72 893.008C325.72 893.104 325.704 893.2 325.672 893.296C324.072 896.848 322.04 898.624 319.576 898.624C317.944 898.624 316.104 897.968 314.056 896.656C313.064 896.048 312.28 895.616 311.704 895.36C310.232 897.536 308.552 898.624 306.664 898.624C305.896 898.624 305.256 898.416 304.744 898C304.264 897.552 304.024 897.008 304.024 896.368C304.024 895.28 304.536 894.368 305.56 893.632C306.584 892.896 307.992 892.512 309.784 892.48V892.432C309.784 891.472 309.64 890.64 309.352 889.936C309.064 889.232 308.696 888.48 308.248 887.68C307.8 886.848 307.56 886.4 307.528 886.336C305.992 886.4 305 886.432 304.552 886.432C304.264 886.432 304.12 886.16 304.12 885.616C304.12 885.072 304.296 884.8 304.648 884.8C304.84 884.8 305.16 884.832 305.608 884.896C306.088 884.928 306.504 884.96 306.856 884.992C306.312 883.744 306.04 882.496 306.04 881.248C306.04 879.008 306.888 877.072 308.584 875.44C310.28 873.776 312.376 872.944 314.872 872.944C317.368 872.944 319.832 873.744 322.264 875.344C322.488 875.024 322.696 874.752 322.888 874.528C323.272 874.272 323.56 874.288 323.752 874.576C323.976 874.832 324.056 875.008 323.992 875.104C322.616 877.376 321.768 879.36 321.448 881.056C321.384 881.184 321.224 881.248 320.968 881.248C320.744 881.248 320.504 881.168 320.248 881.008C320.024 880.816 319.944 880.624 320.008 880.432C320.36 879.664 320.52 879.168 320.488 878.944C320.488 878.72 320.456 878.528 320.392 878.368C320.328 878.208 320.168 877.936 319.912 877.552C319.688 877.168 319.4 876.816 319.048 876.496C318.088 875.696 316.888 875.296 315.448 875.296C314.04 875.296 312.872 875.776 311.944 876.736C311.016 877.696 310.552 878.848 310.552 880.192C310.552 881.536 311.032 883.104 311.992 884.896ZM306.712 896.992C307.992 896.992 308.888 896.224 309.4 894.688C308.888 894.624 308.36 894.592 307.816 894.592C307.272 894.592 306.776 894.752 306.328 895.072C305.88 895.36 305.656 895.728 305.656 896.176C305.656 896.72 306.008 896.992 306.712 896.992ZM337.788 883.216C340.54 883.216 342.636 883.872 344.076 885.184C345.548 886.464 346.284 888.144 346.284 890.224C346.284 892.272 345.34 894.192 343.452 895.984C341.564 897.744 339.068 898.624 335.964 898.624C334.044 898.624 332.364 898.224 330.924 897.424C329.516 896.592 328.812 895.504 328.812 894.16C328.812 893.552 329.02 893.008 329.436 892.528C329.852 892.048 330.412 891.808 331.116 891.808C331.276 891.808 331.516 891.84 331.836 891.904C332.252 893.472 333.004 894.656 334.092 895.456C335.212 896.224 336.524 896.608 338.028 896.608C339.564 896.608 340.828 896.128 341.82 895.168C342.844 894.176 343.356 893.008 343.356 891.664C343.356 890.32 342.748 889.152 341.532 888.16C340.348 887.136 338.636 886.624 336.396 886.624C335.436 886.624 334.572 886.72 333.804 886.912C333.036 887.072 332.604 887.248 332.508 887.44C332.38 887.76 332.06 887.92 331.548 887.92C331.068 887.92 330.828 887.776 330.828 887.488L332.316 875.632L341.628 874.768C343.388 874.64 344.428 874.304 344.748 873.76C344.876 873.536 345.068 873.424 345.324 873.424C345.58 873.424 345.708 873.552 345.708 873.808C345.388 876.528 343.932 878.016 341.34 878.272L333.756 879.04L332.892 883.936C334.396 883.456 336.028 883.216 337.788 883.216ZM350.092 886.432C350.092 882.912 350.924 880.016 352.588 877.744C354.252 875.44 356.652 874.288 359.788 874.288C362.956 874.288 365.42 875.44 367.18 877.744C368.94 880.048 369.82 882.944 369.82 886.432C369.82 889.888 368.94 892.784 367.18 895.12C365.42 897.456 362.956 898.624 359.788 898.624C356.652 898.624 354.252 897.472 352.588 895.168C350.924 892.832 350.092 889.92 350.092 886.432ZM364.108 879.136C363.756 878.08 363.212 877.296 362.476 876.784C361.772 876.272 360.86 876.016 359.74 876.016C358.652 876.016 357.772 876.272 357.1 876.784C356.428 877.296 355.932 878.08 355.612 879.136C355.324 880.192 355.132 881.248 355.036 882.304C354.94 883.36 354.892 884.72 354.892 886.384C354.892 888.048 354.94 889.424 355.036 890.512C355.132 891.568 355.324 892.64 355.612 893.728C356.22 895.84 357.596 896.896 359.74 896.896C361.948 896.896 363.404 895.856 364.108 893.776C364.716 891.952 365.02 889.872 365.02 887.536C365.02 885.168 364.956 883.44 364.828 882.352C364.7 881.232 364.46 880.16 364.108 879.136ZM372.92 886.432C372.92 882.912 373.752 880.016 375.416 877.744C377.08 875.44 379.48 874.288 382.616 874.288C385.784 874.288 388.248 875.44 390.008 877.744C391.768 880.048 392.648 882.944 392.648 886.432C392.648 889.888 391.768 892.784 390.008 895.12C388.248 897.456 385.784 898.624 382.616 898.624C379.48 898.624 377.08 897.472 375.416 895.168C373.752 892.832 372.92 889.92 372.92 886.432ZM386.936 879.136C386.584 878.08 386.04 877.296 385.304 876.784C384.6 876.272 383.688 876.016 382.568 876.016C381.48 876.016 380.6 876.272 379.928 876.784C379.256 877.296 378.76 878.08 378.44 879.136C378.152 880.192 377.96 881.248 377.864 882.304C377.768 883.36 377.72 884.72 377.72 886.384C377.72 888.048 377.768 889.424 377.864 890.512C377.96 891.568 378.152 892.64 378.44 893.728C379.048 895.84 380.424 896.896 382.568 896.896C384.776 896.896 386.232 895.856 386.936 893.776C387.544 891.952 387.848 889.872 387.848 887.536C387.848 885.168 387.784 883.44 387.656 882.352C387.528 881.232 387.288 880.16 386.936 879.136ZM395.748 886.432C395.748 882.912 396.58 880.016 398.244 877.744C399.908 875.44 402.308 874.288 405.444 874.288C408.612 874.288 411.076 875.44 412.836 877.744C414.596 880.048 415.476 882.944 415.476 886.432C415.476 889.888 414.596 892.784 412.836 895.12C411.076 897.456 408.612 898.624 405.444 898.624C402.308 898.624 399.908 897.472 398.244 895.168C396.58 892.832 395.748 889.92 395.748 886.432ZM409.764 879.136C409.412 878.08 408.868 877.296 408.132 876.784C407.428 876.272 406.516 876.016 405.396 876.016C404.308 876.016 403.428 876.272 402.756 876.784C402.084 877.296 401.588 878.08 401.268 879.136C400.98 880.192 400.788 881.248 400.692 882.304C400.596 883.36 400.548 884.72 400.548 886.384C400.548 888.048 400.596 889.424 400.692 890.512C400.788 891.568 400.98 892.64 401.268 893.728C401.876 895.84 403.252 896.896 405.396 896.896C407.604 896.896 409.06 895.856 409.764 893.776C410.372 891.952 410.676 889.872 410.676 887.536C410.676 885.168 410.612 883.44 410.484 882.352C410.356 881.232 410.116 880.16 409.764 879.136Z" fill="black"/>
<path d="M302.008 902.8H417.012V905.2H302.008V902.8Z" fill="black"/>
<line x1="76" y1="110.5" x2="641" y2="110.5" stroke="black"/>
<line x1="76" y1="291.5" x2="343" y2="291.5" stroke="black"/>
<line x1="374" y1="291.5" x2="641" y2="291.5" stroke="black"/>
<line x1="76" y1="362.5" x2="343" y2="362.5" stroke="black"/>
<line x1="374" y1="362.5" x2="641" y2="362.5" stroke="black"/>
<line x1="76" y1="447.5" x2="343" y2="447.5" stroke="black"/>
<line x1="374" y1="447.5" x2="641" y2="447.5" stroke="black"/>
<line x1="76" y1="527.5" x2="343" y2="527.5" stroke="black"/>
<line x1="374" y1="527.5" x2="641" y2="527.5" stroke="black"/>
</svg>
