<svg width="976" height="1160" viewBox="0 0 976 1160" fill="none" xmlns="http://www.w3.org/2000/svg">
<path d="M876.018 32.704L829.795 59.797L771.114 106.374L714.909 164.515L585.163 322.612L460.168 479.381L398.138 557.18L335.174 636.151L372.934 667.537L411.512 700.214L416.545 709.342L422.855 706.06L431.993 706.951L446.293 718.353L473.387 739.956L480.75 733.037L560.878 617.871L660.074 475.703L757.707 313.105L786.404 262.446L810.177 218.732L825.105 188.429L831.134 174.692L837.722 159.481L848.533 133.569L859.763 100.957L869.422 66.4531L876.018 32.704Z" fill="#C4C4C4"/>
<path d="M412.201 700.123L348.98 649.716L332.422 636.514L180.727 820.595L55.7329 977.365L28.4965 1013.84L24.3604 1032.92L24.9226 1053.84L29.9019 1066.12L38.2568 1077.26L52.1804 1088.36L66.5222 1092.76L80.3473 1091.63L95.1074 1089.33L111.221 1079.16L122.948 1066.77L130.041 1053.24L132.436 1037.88L145.601 1003.61L190.801 969.312L229.381 938.682L259.627 904.606L280.459 881.568L296.097 858.865L308.554 839.382L317.324 821.435L333.981 783.558L351.92 755.655L375.419 746.255L401.629 743.491L408.809 738.345L417.225 727.79L416.674 710.724L412.201 700.123Z" fill="black"/>
<path d="M874.433 32.0806C875.176 30.9002 877 31.4262 877 32.8208V32.8208C877 32.9398 876.985 33.0583 876.955 33.1733L855.502 114.999L825.502 188.499L772.002 291L700.019 405.897C696.331 411.785 688.882 414.077 682.522 411.281L678.83 409.658C671.746 406.545 668.532 398.276 671.652 391.196L672.756 388.691C673.25 387.568 673.595 386.386 673.782 385.174L677.472 361.19C678.122 356.964 680.667 353.267 684.383 351.152L703.341 340.36C708.023 337.695 710.76 332.581 710.381 327.207L708.643 302.593C708.253 297.065 711.16 291.827 716.058 289.234L726.051 283.944C730.634 281.517 733.501 276.756 733.501 271.571L733.501 262.652C733.501 257.349 736.497 252.502 741.24 250.13L741.762 249.869C746.505 247.498 749.501 242.65 749.501 237.347L749.501 227.722C749.501 223.457 752.959 220 757.224 220V220C762.652 220 766.386 214.547 764.424 209.485L761.853 202.854C760.304 198.86 762.427 194.384 766.501 193.058L772.215 191.198C775.655 190.077 776.364 185.523 773.427 183.41V183.41C770.684 181.437 771.081 177.241 774.145 175.817L788.472 169.16C794.319 166.443 797.47 160.006 796.03 153.721L795.012 149.278C793.786 143.931 795.796 138.362 800.154 135.03L816.497 122.532C817.822 121.519 818.955 120.277 819.843 118.865L874.433 32.0806Z" fill="#9C0000"/>
</svg>
