<svg width="718" height="936" viewBox="0 0 718 936" fill="none" xmlns="http://www.w3.org/2000/svg">
<rect y="5.90906" width="709.623" height="929.321" transform="rotate(-0.47711 0 5.90906)" fill="#FFFFEC"/>
<path d="M119.338 181.789L156.393 163.435C166.856 158.252 179.033 157.776 189.868 162.127L221.547 174.846C232.533 179.258 244.891 178.704 255.439 173.329L274.406 163.663C284.856 158.337 297.087 157.742 308.005 162.029L342.947 175.747C352.821 179.623 363.814 179.522 373.615 175.463L405.466 162.275C416.205 157.828 428.328 158.149 438.817 163.157L460.328 173.429C471.412 178.721 484.285 178.765 495.405 173.55L517.834 163.03C528.341 158.102 540.444 157.857 551.141 162.357L597.338 181.789" stroke="black" stroke-width="7"/>
<path d="M119.338 266.789L156.393 248.435C166.856 243.252 179.033 242.776 189.868 247.127L221.547 259.846C232.533 264.258 244.891 263.704 255.439 258.329L274.406 248.663C284.856 243.337 297.087 242.742 308.005 247.029L342.947 260.747C352.821 264.623 363.814 264.522 373.615 260.463L405.466 247.275C416.205 242.828 428.328 243.149 438.817 248.157L460.328 258.429C471.412 263.721 484.285 263.765 495.405 258.55L517.834 248.03C528.341 243.102 540.444 242.857 551.141 247.357L597.338 266.789" stroke="black" stroke-width="7"/>
<path d="M119.338 181.789L156.393 163.435C166.856 158.252 179.033 157.776 189.868 162.127L221.547 174.846C232.533 179.258 244.891 178.704 255.439 173.329L274.406 163.663C284.856 158.337 297.087 157.742 308.005 162.029L342.947 175.747C352.821 179.623 363.814 179.522 373.615 175.463L405.466 162.275C416.205 157.828 428.328 158.149 438.817 163.157L460.328 173.429C471.412 178.721 484.285 178.765 495.405 173.55L517.834 163.03C528.341 158.102 540.444 157.857 551.141 162.357L597.338 181.789" stroke="black" stroke-width="7"/>
<path d="M119.338 181.789L156.393 163.435C166.856 158.252 179.033 157.776 189.868 162.127L221.547 174.846C232.533 179.258 244.891 178.704 255.439 173.329L274.406 163.663C284.856 158.337 297.087 157.742 308.005 162.029L342.947 175.747C352.821 179.623 363.814 179.522 373.615 175.463L405.466 162.275C416.205 157.828 428.328 158.149 438.817 163.157L460.328 173.429C471.412 178.721 484.285 178.765 495.405 173.55L517.834 163.03C528.341 158.102 540.444 157.857 551.141 162.357L597.338 181.789" stroke="black" stroke-width="7"/>
<path d="M119.338 181.789L156.393 163.435C166.856 158.252 179.033 157.776 189.868 162.127L221.547 174.846C232.533 179.258 244.891 178.704 255.439 173.329L274.406 163.663C284.856 158.337 297.087 157.742 308.005 162.029L342.947 175.747C352.821 179.623 363.814 179.522 373.615 175.463L405.466 162.275C416.205 157.828 428.328 158.149 438.817 163.157L460.328 173.429C471.412 178.721 484.285 178.765 495.405 173.55L517.834 163.03C528.341 158.102 540.444 157.857 551.141 162.357L597.338 181.789" stroke="black" stroke-width="7"/>
<path d="M119.338 181.789L156.393 163.435C166.856 158.252 179.033 157.776 189.868 162.127L221.547 174.846C232.533 179.258 244.891 178.704 255.439 173.329L274.406 163.663C284.856 158.337 297.087 157.742 308.005 162.029L342.947 175.747C352.821 179.623 363.814 179.522 373.615 175.463L405.466 162.275C416.205 157.828 428.328 158.149 438.817 163.157L460.328 173.429C471.412 178.721 484.285 178.765 495.405 173.55L517.834 163.03C528.341 158.102 540.444 157.857 551.141 162.357L597.338 181.789" stroke="black" stroke-width="7"/>
<path d="M119.338 814.789L156.393 796.435C166.856 791.252 179.033 790.776 189.868 795.127L221.547 807.846C232.533 812.258 244.891 811.704 255.439 806.329L274.406 796.663C284.856 791.337 297.087 790.742 308.005 795.029L342.947 808.747C352.821 812.623 363.814 812.522 373.615 808.463L405.466 795.275C416.205 790.828 428.328 791.149 438.817 796.157L460.328 806.429C471.412 811.721 484.285 811.765 495.405 806.55L517.834 796.03C528.341 791.102 540.444 790.857 551.141 795.357L597.338 814.789" stroke="black" stroke-width="7"/>
<path d="M119.338 729.789L156.393 711.435C166.856 706.252 179.033 705.776 189.868 710.127L221.547 722.846C232.533 727.258 244.891 726.704 255.439 721.329L274.406 711.663C284.856 706.337 297.087 705.742 308.005 710.029L342.947 723.747C352.821 727.623 363.814 727.522 373.615 723.463L405.466 710.275C416.205 705.828 428.328 706.149 438.817 711.157L460.328 721.429C471.412 726.721 484.285 726.765 495.405 721.55L517.834 711.03C528.341 706.102 540.444 705.857 551.141 710.357L597.338 729.789" stroke="black" stroke-width="7"/>
<path d="M119.338 644.789L156.393 626.435C166.856 621.252 179.033 620.776 189.868 625.127L221.547 637.846C232.533 642.258 244.891 641.704 255.439 636.329L274.406 626.663C284.856 621.337 297.087 620.742 308.005 625.029L342.947 638.747C352.821 642.623 363.814 642.522 373.615 638.463L405.466 625.275C416.205 620.828 428.328 621.149 438.817 626.157L460.328 636.429C471.412 641.721 484.285 641.765 495.405 636.55L517.834 626.03C528.341 621.102 540.444 620.857 551.141 625.357L597.338 644.789" stroke="black" stroke-width="7"/>
<path d="M119.338 559.789L156.393 541.435C166.856 536.252 179.033 535.776 189.868 540.127L221.547 552.846C232.533 557.258 244.891 556.704 255.439 551.329L274.406 541.663C284.856 536.337 297.087 535.742 308.005 540.029L342.947 553.747C352.821 557.623 363.814 557.522 373.615 553.463L405.466 540.275C416.205 535.828 428.328 536.149 438.817 541.157L460.328 551.429C471.412 556.721 484.285 556.765 495.405 551.55L517.834 541.03C528.341 536.102 540.444 535.857 551.141 540.357L597.338 559.789" stroke="black" stroke-width="7"/>
<path d="M119.338 455.789L156.393 437.435C166.856 432.252 179.033 431.776 189.868 436.127L221.547 448.846C232.533 453.258 244.891 452.704 255.439 447.329L274.406 437.663C284.856 432.337 297.087 431.742 308.005 436.029L342.947 449.747C352.821 453.623 363.814 453.522 373.615 449.463L405.466 436.275C416.205 431.828 428.328 432.149 438.817 437.157L460.328 447.429C471.412 452.721 484.285 452.765 495.405 447.55L517.834 437.03C528.341 432.102 540.444 431.857 551.141 436.357L597.338 455.789" stroke="black" stroke-width="7"/>
<path d="M119.338 370.789L156.393 352.435C166.856 347.252 179.033 346.776 189.868 351.127L221.547 363.846C232.533 368.258 244.891 367.704 255.439 362.329L274.406 352.663C284.856 347.337 297.087 346.742 308.005 351.029L342.947 364.747C352.821 368.623 363.814 368.522 373.615 364.463L405.466 351.275C416.205 346.828 428.328 347.149 438.817 352.157L460.328 362.429C471.412 367.721 484.285 367.765 495.405 362.55L517.834 352.03C528.341 347.102 540.444 346.857 551.141 351.357L597.338 370.789" stroke="black" stroke-width="7"/>
<path d="M130.747 54.0331L137.467 53.8891C137.723 53.8891 137.851 54.1611 137.851 54.7051C137.851 55.2491 137.723 55.5211 137.467 55.5211H135.403C134.603 55.5211 134.075 55.6811 133.819 56.0011C133.563 56.2891 133.435 56.8651 133.435 57.7291V84.3691H136.219C141.307 84.3691 144.827 83.6971 146.779 82.3531L147.115 79.7131C147.179 79.4571 147.451 79.3291 147.931 79.3291C148.443 79.3291 148.699 79.4251 148.699 79.6171L148.267 87.3451C148.267 87.5691 148.011 87.6811 147.499 87.6811C147.019 87.6811 146.779 87.5691 146.779 87.3451V86.2891H131.179L124.459 86.3851C124.203 86.3851 124.075 86.1131 124.075 85.5691C124.075 85.0251 124.203 84.7531 124.459 84.7531H126.523C127.323 84.7531 127.851 84.6091 128.107 84.3211C128.363 84.0011 128.491 83.4091 128.491 82.5451V59.7931C128.491 56.9771 128.155 55.5691 127.483 55.5691H124.699C124.443 55.5691 124.315 55.3131 124.315 54.8011C124.315 54.2571 124.443 53.9851 124.699 53.9851C124.699 53.9851 126.715 54.0011 130.747 54.0331ZM151.73 86.2891L147.938 86.3851C147.714 86.3851 147.602 86.1771 147.602 85.7611C147.602 85.3451 147.714 85.1371 147.938 85.1371H149.474C149.826 85.1371 150.082 84.9931 150.242 84.7051C150.978 83.4891 152.45 80.2571 154.658 75.0091C156.866 69.7291 158.45 65.7291 159.41 63.0091C159.538 62.7211 159.842 62.5771 160.322 62.5771C160.834 62.5771 161.154 62.7371 161.282 63.0571C161.666 64.6571 162.786 67.6811 164.642 72.1291C166.53 76.5771 168.178 80.2891 169.586 83.2651C169.97 84.0331 170.322 84.5291 170.642 84.7531C170.962 84.9771 171.458 85.0891 172.13 85.0891C172.322 85.0891 172.418 85.3131 172.418 85.7611C172.418 86.1771 172.338 86.3851 172.178 86.3851L167.57 86.2891L162.386 86.3851C162.194 86.3851 162.098 86.1771 162.098 85.7611C162.098 85.3451 162.194 85.1371 162.386 85.1371H164.69C165.042 85.1371 165.218 84.9931 165.218 84.7051C165.218 84.6731 164.322 82.2091 162.53 77.3131H155.858C154.29 81.1851 153.506 83.4571 153.506 84.1291C153.506 84.7691 153.698 85.0891 154.082 85.0891H156.05C156.306 85.0891 156.434 85.3131 156.434 85.7611C156.434 86.1771 156.338 86.3851 156.146 86.3851L151.73 86.2891ZM161.906 75.6811C161.81 75.3931 160.978 72.9611 159.41 68.3851H159.266C158.498 70.5931 157.586 73.0251 156.53 75.6811H161.906ZM185.303 86.2411L180.503 86.3851C180.279 86.3851 180.167 86.1451 180.167 85.6651C180.167 85.1851 180.263 84.9451 180.455 84.9451H182.615C182.967 84.9451 183.175 84.8811 183.239 84.7531C183.303 84.5931 183.335 84.1931 183.335 83.5531V75.9211H183.287C183.319 74.9611 181.063 71.8731 176.519 66.6571C175.271 65.1851 174.311 64.4491 173.639 64.4491H172.535C172.279 64.4491 172.151 64.2411 172.151 63.8251C172.151 63.3771 172.247 63.1531 172.439 63.1531L176.999 63.2011L181.991 63.1531C182.183 63.1531 182.279 63.3611 182.279 63.7771C182.279 64.1931 182.199 64.4011 182.039 64.4011H179.639C179.639 64.4651 180.039 64.9771 180.839 65.9371C183.495 69.1051 185.223 71.5051 186.023 73.1371H186.167C186.647 72.3371 187.623 71.0091 189.095 69.1531C190.567 67.2971 191.399 66.1771 191.591 65.7931C191.815 65.3771 191.927 65.0571 191.927 64.8331C191.927 64.5771 191.799 64.4491 191.543 64.4491H190.199C190.039 64.4491 189.959 64.2411 189.959 63.8251C189.959 63.3771 190.071 63.1531 190.295 63.1531L194.759 63.2011L198.551 63.1531C198.775 63.1531 198.887 63.3611 198.887 63.7771C198.887 64.1931 198.759 64.4011 198.503 64.4011H197.639C197.063 64.4011 196.567 64.5771 196.151 64.9291C194.583 66.2411 192.791 68.0331 190.775 70.3051C188.791 72.5451 187.671 74.1131 187.415 75.0091V81.1531C187.415 83.5851 187.735 84.8011 188.375 84.8011H190.775C191.031 84.8011 191.159 85.0571 191.159 85.5691C191.159 86.0491 191.063 86.2891 190.871 86.2891L185.303 86.2411ZM230.572 63.2011L234.076 63.1051C234.3 63.1051 234.412 63.3131 234.412 63.7291C234.412 64.1451 234.3 64.3531 234.076 64.3531H232.828C232.476 64.3531 232.22 64.4971 232.06 64.7851C231.164 66.2571 229.612 69.8731 227.404 75.6331C225.228 81.3611 223.868 85.1371 223.324 86.9611C223.196 87.2491 222.876 87.3931 222.364 87.3931C221.884 87.3931 221.58 87.2331 221.452 86.9131C219.852 80.6731 218.252 75.6491 216.652 71.8411C215.276 75.2651 213.612 80.3051 211.66 86.9611C211.532 87.2491 211.212 87.3931 210.7 87.3931C210.22 87.3931 209.916 87.2331 209.788 86.9131C209.404 85.3451 208.236 82.3211 206.284 77.8411C204.364 73.3291 202.636 69.4571 201.1 66.2251C200.716 65.4571 200.364 64.9611 200.044 64.7371C199.724 64.5131 199.228 64.4011 198.556 64.4011C198.364 64.4011 198.268 64.1931 198.268 63.7771C198.268 63.3291 198.364 63.1051 198.556 63.1051L203.116 63.2011L207.58 63.1051C207.772 63.1051 207.868 63.3131 207.868 63.7291C207.868 64.1451 207.772 64.3531 207.58 64.3531H205.996C205.644 64.3531 205.468 64.4971 205.468 64.7851C205.468 65.0731 206.38 67.6171 208.204 72.4171C210.06 77.1851 211.18 80.0971 211.564 81.1531C211.948 79.8731 212.652 77.7771 213.676 74.8651C214.732 71.9531 215.356 70.0011 215.548 69.0091C214.492 66.5131 213.756 65.1211 213.34 64.8331C212.956 64.5451 212.428 64.4011 211.756 64.4011C211.564 64.4011 211.468 64.1931 211.468 63.7771C211.468 63.3291 211.564 63.1051 211.756 63.1051L216.316 63.2011L221.5 63.1051C221.692 63.1051 221.788 63.3131 221.788 63.7291C221.788 64.1451 221.692 64.3531 221.5 64.3531H219.196C218.844 64.3531 218.668 64.5131 218.668 64.8331C218.668 65.1211 219.26 67.4091 220.444 71.6971C221.628 75.9531 222.636 79.3131 223.468 81.7771C224.076 79.7611 224.844 77.4571 225.772 74.8651C226.7 72.2411 227.436 70.1451 227.98 68.5771C228.524 66.9771 228.796 65.8891 228.796 65.3131C228.796 64.7051 228.604 64.4011 228.22 64.4011H226.252C226.028 64.4011 225.916 64.1931 225.916 63.7771C225.916 63.3291 225.996 63.1051 226.156 63.1051L230.572 63.2011ZM236.76 63.1051L241.656 63.2011H251.592V62.4331C251.592 62.2411 251.8 62.1451 252.216 62.1451C252.664 62.1451 252.888 62.2411 252.888 62.4331C252.888 64.9611 253 66.7691 253.224 67.8571C253.288 68.0491 253.112 68.1451 252.696 68.1451C252.152 68.1451 251.88 68.0491 251.88 67.8571C251.432 66.3851 251 65.5531 250.584 65.3611C249.24 64.8811 247.288 64.6411 244.728 64.6411C244.28 64.6731 243.976 64.8011 243.816 65.0251C243.656 65.2491 243.576 65.6491 243.576 66.2251V74.0971C247.448 73.9691 249.576 73.7931 249.96 73.5691L250.296 71.5531C250.36 71.3931 250.584 71.3131 250.968 71.3131C251.384 71.3131 251.592 71.4251 251.592 71.6491C251.464 72.5771 251.4 73.6171 251.4 74.7691C251.4 75.8891 251.464 76.9131 251.592 77.8411C251.592 78.0331 251.368 78.1291 250.92 78.1291C250.504 78.1291 250.296 78.0651 250.296 77.9371L249.912 75.8731C249.528 75.6491 247.416 75.4731 243.576 75.3451V81.1531C243.576 83.5531 243.896 84.7531 244.536 84.7531H246.072C249.592 84.6891 252.024 84.1931 253.368 83.2651L253.608 81.3931C253.672 81.2011 253.832 81.1051 254.088 81.1051C254.376 81.1051 254.568 81.1051 254.664 81.1051C254.856 81.1691 254.952 81.2651 254.952 81.3931C254.76 82.7371 254.664 84.6251 254.664 87.0571C254.664 87.2171 254.44 87.2971 253.992 87.2971C253.576 87.2971 253.368 87.2171 253.368 87.0571V86.2891H244.824L236.664 86.3851C236.44 86.3851 236.328 86.1451 236.328 85.6651C236.328 85.1851 236.424 84.9451 236.616 84.9451H238.776C239.128 84.9451 239.336 84.8811 239.4 84.7531C239.464 84.5931 239.496 84.1931 239.496 83.5531V68.4331C239.496 65.8731 239.176 64.5931 238.536 64.5931H236.808C236.424 64.5931 236.232 64.3531 236.232 63.8731C236.232 63.3611 236.408 63.1051 236.76 63.1051ZM264.206 86.2891L259.07 86.3851C258.846 86.3851 258.734 86.1451 258.734 85.6651C258.734 85.1851 258.814 84.9451 258.974 84.9451H261.326C261.71 84.9451 261.902 84.6731 261.902 84.1291V68.3851C261.902 65.8571 261.55 64.5931 260.846 64.5931H259.166C258.814 64.5931 258.638 64.3531 258.638 63.8731C258.638 63.3611 258.782 63.1051 259.07 63.1051C261.918 63.1691 264.83 63.2011 267.806 63.2011C270.782 63.2011 273.086 63.8411 274.718 65.1211C276.382 66.3691 277.214 67.9211 277.214 69.7771C277.214 71.6011 276.558 73.0731 275.246 74.1931C273.934 75.3131 272.35 75.9531 270.494 76.1131C271.422 76.7531 272.622 78.0331 274.094 79.9531C274.638 80.6891 275.486 81.5371 276.638 82.4971C277.79 83.4251 279.086 84.2571 280.526 84.9931C279.886 86.2731 278.91 86.9131 277.598 86.9131C276.286 86.9131 275.134 86.4331 274.142 85.4731C273.15 84.5131 272.382 83.4571 271.838 82.3051C271.294 81.1211 270.686 79.9051 270.014 78.6571C269.374 77.4091 268.766 76.5931 268.19 76.2091L265.982 76.0651V81.6331C265.982 83.7451 266.302 84.8011 266.942 84.8011H268.958C269.214 84.8011 269.342 85.0571 269.342 85.5691C269.342 86.0491 269.262 86.2891 269.102 86.2891H264.206ZM266.942 64.6411C266.302 64.6411 265.982 65.1691 265.982 66.2251V74.1931C266.43 74.2891 266.878 74.3371 267.326 74.3371C268.766 74.3371 270.014 73.9371 271.07 73.1371C272.126 72.3371 272.654 71.2491 272.654 69.8731C272.654 68.4971 272.174 67.2811 271.214 66.2251C270.286 65.1691 268.862 64.6411 266.942 64.6411ZM295.683 86.2891L291.891 86.3851C291.667 86.3851 291.555 86.1771 291.555 85.7611C291.555 85.3451 291.667 85.1371 291.891 85.1371H293.427C293.779 85.1371 294.035 84.9931 294.195 84.7051C294.931 83.4891 296.403 80.2571 298.611 75.0091C300.819 69.7291 302.403 65.7291 303.363 63.0091C303.491 62.7211 303.795 62.5771 304.275 62.5771C304.787 62.5771 305.107 62.7371 305.235 63.0571C305.619 64.6571 306.739 67.6811 308.595 72.1291C310.483 76.5771 312.131 80.2891 313.539 83.2651C313.923 84.0331 314.275 84.5291 314.595 84.7531C314.915 84.9771 315.411 85.0891 316.083 85.0891C316.275 85.0891 316.371 85.3131 316.371 85.7611C316.371 86.1771 316.291 86.3851 316.131 86.3851L311.523 86.2891L306.339 86.3851C306.147 86.3851 306.051 86.1771 306.051 85.7611C306.051 85.3451 306.147 85.1371 306.339 85.1371H308.643C308.995 85.1371 309.171 84.9931 309.171 84.7051C309.171 84.6731 308.275 82.2091 306.483 77.3131H299.811C298.243 81.1851 297.459 83.4571 297.459 84.1291C297.459 84.7691 297.651 85.0891 298.035 85.0891H300.003C300.259 85.0891 300.387 85.3131 300.387 85.7611C300.387 86.1771 300.291 86.3851 300.099 86.3851L295.683 86.2891ZM305.859 75.6811C305.763 75.3931 304.931 72.9611 303.363 68.3851H303.219C302.451 70.5931 301.539 73.0251 300.483 75.6811H305.859ZM340.345 63.2011L344.761 63.1051C344.953 63.1051 345.049 63.3451 345.049 63.8251C345.049 64.2731 344.953 64.4971 344.761 64.4971H343.081C342.633 64.4971 342.345 64.6091 342.217 64.8331C341.641 65.8251 341.353 73.0251 341.353 86.4331C341.353 86.7531 341.081 86.9131 340.537 86.9131C340.025 86.9131 339.657 86.8011 339.433 86.5771C333.033 78.9611 327.881 72.7851 323.977 68.0491H323.833C323.929 73.7131 324.025 78.4491 324.121 82.2571C324.121 83.9211 324.361 84.7531 324.841 84.7531H326.761C326.953 84.7531 327.049 85.0091 327.049 85.5211C327.049 86.0011 326.953 86.2411 326.761 86.2411H322.777L318.409 86.3371C318.249 86.3371 318.169 86.1131 318.169 85.6651C318.169 85.1851 318.249 84.9451 318.409 84.9451H319.561C320.553 84.9451 321.065 84.6251 321.097 83.9851C321.577 78.8011 321.817 72.7371 321.817 65.7931C321.305 65.1851 320.873 64.8331 320.521 64.7371C320.169 64.6411 319.513 64.5931 318.553 64.5931C318.361 64.5931 318.265 64.3531 318.265 63.8731C318.265 63.3611 318.361 63.1051 318.553 63.1051L325.321 63.2011C333.097 73.0571 337.673 78.8971 339.049 80.7211H339.145C339.017 72.3371 338.905 67.5531 338.809 66.3691C338.713 65.1851 338.457 64.5931 338.041 64.5931H336.361C336.137 64.5931 336.025 64.3531 336.025 63.8731C336.025 63.3611 336.137 63.1051 336.361 63.1051L340.345 63.2011ZM353.222 86.2891L348.086 86.3851C347.862 86.3851 347.75 86.1451 347.75 85.6651C347.75 85.1851 347.83 84.9451 347.99 84.9451H350.342C350.726 84.9451 350.918 84.6731 350.918 84.1291V68.3851C350.918 65.8571 350.566 64.5931 349.862 64.5931H348.182C347.83 64.5931 347.654 64.3531 347.654 63.8731C347.654 63.3611 347.798 63.1051 348.086 63.1051C349.75 63.1691 351.43 63.2011 353.126 63.2011H357.782C361.942 63.2011 365.302 64.3371 367.862 66.6091C370.454 68.8491 371.75 71.6491 371.75 75.0091C371.75 78.3691 370.486 81.0891 367.958 83.1691C365.462 85.2491 362.294 86.2891 358.454 86.2891H353.222ZM356.15 64.6411C355.382 64.6411 354.998 65.1051 354.998 66.0331V81.0091C354.998 83.5051 355.334 84.7531 356.006 84.7531H357.734C360.678 84.7531 362.934 83.9211 364.502 82.2571C366.102 80.5931 366.902 78.2731 366.902 75.2971C366.902 72.2891 366.038 69.7931 364.31 67.8091C362.582 65.8251 359.91 64.7691 356.294 64.6411C356.23 64.6411 356.182 64.6411 356.15 64.6411ZM409.663 77.9851C409.663 80.6411 408.527 82.8011 406.255 84.4651C403.983 86.0971 401.471 86.9131 398.719 86.9131C395.967 86.9131 393.535 86.4331 391.423 85.4731L391.807 86.4331C391.903 86.6251 391.823 86.8011 391.567 86.9611C391.343 87.1531 391.087 87.2491 390.799 87.2491C390.511 87.2491 390.319 87.1691 390.223 87.0091C389.199 84.4171 388.575 81.4091 388.351 77.9851C388.351 77.6651 388.607 77.5051 389.119 77.5051C389.631 77.5051 389.903 77.6171 389.935 77.8411C390.639 80.2731 392.063 82.2251 394.207 83.6971C395.519 84.6251 397.039 85.0891 398.767 85.0891C400.527 85.0891 401.935 84.5931 402.991 83.6011C404.079 82.5771 404.623 81.3611 404.623 79.9531C404.623 78.5131 404.255 77.2331 403.519 76.1131C402.783 74.9611 401.871 74.0331 400.783 73.3291C399.695 72.6251 398.511 71.8891 397.231 71.1211C395.951 70.3211 394.767 69.5691 393.679 68.8651C392.591 68.1291 391.679 67.1531 390.943 65.9371C390.207 64.7211 389.839 63.3451 389.839 61.8091C389.839 59.4731 390.879 57.5051 392.959 55.9051C395.071 54.2731 397.711 53.4571 400.879 53.4571C402.319 53.4571 403.663 53.6491 404.911 54.0331L405.487 54.1771C405.359 53.6651 405.279 53.3131 405.247 53.1211C405.247 52.9291 405.311 52.8011 405.439 52.7371C405.599 52.6411 405.823 52.5931 406.111 52.5931C406.431 52.5931 406.639 52.7211 406.735 52.9771C407.471 55.5691 407.903 58.1131 408.031 60.6091C407.935 60.8011 407.663 60.8971 407.215 60.8971C406.799 60.8971 406.543 60.8491 406.447 60.7531C406.095 59.4411 405.599 58.3691 404.959 57.5371C404.319 56.6731 403.615 56.0811 402.847 55.7611C402.079 55.4411 401.183 55.2811 400.159 55.2811C398.175 55.2811 396.751 55.7931 395.887 56.8171C395.055 57.8091 394.639 58.9131 394.639 60.1291C394.639 61.3131 394.911 62.3371 395.455 63.2011C396.031 64.0331 396.751 64.7691 397.615 65.4091C398.511 66.0171 399.487 66.6251 400.543 67.2331C401.599 67.8091 402.655 68.4331 403.711 69.1051C404.799 69.7771 405.791 70.5131 406.687 71.3131C408.671 73.0731 409.663 75.2971 409.663 77.9851ZM417.635 66.1771C420.227 63.7771 423.235 62.5771 426.659 62.5771C430.083 62.5771 433.075 63.7771 435.635 66.1771C438.227 68.5771 439.523 71.4251 439.523 74.7211C439.523 77.9851 438.227 80.8331 435.635 83.2651C433.075 85.6971 430.083 86.9131 426.659 86.9131C423.235 86.9131 420.227 85.6971 417.635 83.2651C415.075 80.8331 413.795 77.9851 413.795 74.7211C413.795 71.4251 415.075 68.5771 417.635 66.1771ZM432.467 67.3291C430.963 65.3131 429.027 64.3051 426.659 64.3051C424.291 64.3051 422.355 65.3131 420.851 67.3291C419.347 69.3131 418.595 71.7771 418.595 74.7211C418.595 77.6331 419.347 80.1131 420.851 82.1611C422.355 84.1771 424.291 85.1851 426.659 85.1851C429.027 85.1851 430.963 84.1771 432.467 82.1611C433.971 80.1131 434.723 77.6331 434.723 74.7211C434.723 71.7771 433.971 69.3131 432.467 67.3291ZM465.313 63.2011L469.729 63.1051C469.921 63.1051 470.017 63.3451 470.017 63.8251C470.017 64.2731 469.921 64.4971 469.729 64.4971H468.049C467.601 64.4971 467.313 64.6091 467.185 64.8331C466.609 65.8251 466.321 73.0251 466.321 86.4331C466.321 86.7531 466.049 86.9131 465.505 86.9131C464.993 86.9131 464.625 86.8011 464.401 86.5771C458.001 78.9611 452.849 72.7851 448.945 68.0491H448.801C448.897 73.7131 448.993 78.4491 449.089 82.2571C449.089 83.9211 449.329 84.7531 449.809 84.7531H451.729C451.921 84.7531 452.017 85.0091 452.017 85.5211C452.017 86.0011 451.921 86.2411 451.729 86.2411H447.745L443.377 86.3371C443.217 86.3371 443.137 86.1131 443.137 85.6651C443.137 85.1851 443.217 84.9451 443.377 84.9451H444.529C445.521 84.9451 446.033 84.6251 446.065 83.9851C446.545 78.8011 446.785 72.7371 446.785 65.7931C446.273 65.1851 445.841 64.8331 445.489 64.7371C445.137 64.6411 444.481 64.5931 443.521 64.5931C443.329 64.5931 443.233 64.3531 443.233 63.8731C443.233 63.3611 443.329 63.1051 443.521 63.1051L450.289 63.2011C458.065 73.0571 462.641 78.8971 464.017 80.7211H464.113C463.985 72.3371 463.873 67.5531 463.777 66.3691C463.681 65.1851 463.425 64.5931 463.009 64.5931H461.329C461.105 64.5931 460.993 64.3531 460.993 63.8731C460.993 63.3611 461.105 63.1051 461.329 63.1051L465.313 63.2011ZM487.438 63.0091L488.446 68.2891C488.446 68.5451 488.254 68.6731 487.87 68.6731C487.486 68.6731 487.246 68.5451 487.15 68.2891C486.734 67.1051 486.078 66.1291 485.182 65.3611C484.286 64.5931 483.31 64.2091 482.254 64.2091C481.23 64.1771 480.318 64.4651 479.518 65.0731C478.75 65.6811 478.366 66.4331 478.366 67.3291C478.366 68.1931 478.622 68.9931 479.134 69.7291C479.678 70.4331 480.334 71.0411 481.102 71.5531C481.87 72.0651 482.718 72.6571 483.646 73.3291C484.574 73.9691 485.422 74.6091 486.19 75.2491C486.958 75.8891 487.598 76.7211 488.11 77.7451C488.654 78.7691 488.926 79.8731 488.926 81.0571C488.926 82.9131 488.11 84.3531 486.478 85.3771C484.846 86.4011 483.07 86.9131 481.15 86.9131C479.262 86.9131 477.518 86.5451 475.918 85.8091C475.918 86.1931 475.886 86.4331 475.822 86.5291C475.79 86.6251 475.63 86.6891 475.342 86.7211H475.15C474.894 86.7211 474.75 86.5931 474.718 86.3371C474.654 85.5691 474.526 84.5131 474.334 83.1691C474.142 81.8251 473.998 80.7371 473.902 79.9051C473.902 79.5851 474.094 79.4251 474.478 79.4251C474.894 79.4251 475.118 79.5051 475.15 79.6651C475.598 81.2331 476.382 82.5931 477.502 83.7451C478.622 84.8651 479.79 85.4251 481.006 85.4251C482.222 85.4251 483.23 85.1371 484.03 84.5611C484.83 83.9531 485.23 83.1211 485.23 82.0651C485.23 81.0091 484.862 80.0491 484.126 79.1851C483.422 78.2891 482.558 77.4891 481.534 76.7851C480.51 76.0811 479.486 75.3771 478.462 74.6731C477.438 73.9371 476.558 73.0411 475.822 71.9851C475.118 70.9291 474.766 69.7771 474.766 68.5291C474.766 66.7371 475.518 65.3131 477.022 64.2571C478.558 63.2011 480.366 62.6731 482.446 62.6731C483.63 62.6731 484.894 62.8971 486.238 63.3451C486.174 63.1531 486.142 62.9291 486.142 62.6731C486.142 62.3851 486.286 62.2411 486.574 62.2411C486.894 62.2411 487.102 62.2891 487.198 62.3851C487.294 62.4491 487.374 62.6571 487.438 63.0091ZM512.309 54.0331L519.029 53.8891C519.285 53.8891 519.413 54.1611 519.413 54.7051C519.413 55.2491 519.285 55.5211 519.029 55.5211H516.965C516.165 55.5211 515.637 55.6811 515.381 56.0011C515.125 56.2891 514.997 56.8651 514.997 57.7291V84.3691H517.781C522.869 84.3691 526.389 83.6971 528.341 82.3531L528.677 79.7131C528.741 79.4571 529.013 79.3291 529.493 79.3291C530.005 79.3291 530.261 79.4251 530.261 79.6171L529.829 87.3451C529.829 87.5691 529.573 87.6811 529.061 87.6811C528.581 87.6811 528.341 87.5691 528.341 87.3451V86.2891H512.741L506.021 86.3851C505.765 86.3851 505.637 86.1131 505.637 85.5691C505.637 85.0251 505.765 84.7531 506.021 84.7531H508.085C508.885 84.7531 509.413 84.6091 509.669 84.3211C509.925 84.0011 510.053 83.4091 510.053 82.5451V59.7931C510.053 56.9771 509.717 55.5691 509.045 55.5691H506.261C506.005 55.5691 505.877 55.3131 505.877 54.8011C505.877 54.2571 506.005 53.9851 506.261 53.9851C506.261 53.9851 508.277 54.0011 512.309 54.0331ZM554.749 68.2411C554.749 68.4331 554.525 68.5291 554.077 68.5291C553.661 68.5291 553.453 68.4171 553.453 68.1931C553.133 66.6251 552.653 65.7611 552.013 65.6011C550.861 65.3451 549.117 65.1851 546.781 65.1211H545.869C545.549 65.1531 545.389 65.4091 545.389 65.8891V81.1531C545.389 83.5851 545.709 84.8011 546.349 84.8011H548.749C549.005 84.8011 549.133 85.0571 549.133 85.5691C549.133 86.0491 549.037 86.2891 548.845 86.2891L543.277 86.2411L538.477 86.3851C538.253 86.3851 538.141 86.1451 538.141 85.6651C538.141 85.1851 538.237 84.9451 538.429 84.9451H540.589C540.941 84.9451 541.149 84.8811 541.213 84.7531C541.277 84.5931 541.309 84.1931 541.309 83.5531V68.9611C541.309 66.5611 541.021 65.2811 540.445 65.1211C537.853 65.1211 535.917 65.2811 534.637 65.6011C533.997 65.7611 533.517 66.6251 533.197 68.1931C533.197 68.4171 532.973 68.5291 532.525 68.5291C532.109 68.5291 531.901 68.4331 531.901 68.2411L532.141 62.4811C532.141 62.2891 532.349 62.1931 532.765 62.1931C533.213 62.1931 533.437 62.2891 533.437 62.4811V63.1051C533.437 63.1051 535.533 63.1371 539.725 63.2011H543.277C548.141 63.2011 551.405 63.1691 553.069 63.1051H553.213V62.4811C553.213 62.2891 553.421 62.1931 553.837 62.1931C554.285 62.1931 554.509 62.2891 554.509 62.4811L554.749 68.2411ZM563.128 86.2891L557.992 86.3851C557.768 86.3851 557.656 86.1451 557.656 85.6651C557.656 85.1851 557.736 84.9451 557.896 84.9451H560.248C560.632 84.9451 560.824 84.6731 560.824 84.1291V68.3851C560.824 65.8571 560.472 64.5931 559.768 64.5931H558.088C557.736 64.5931 557.56 64.3531 557.56 63.8731C557.56 63.3611 557.704 63.1051 557.992 63.1051C559.656 63.1691 561.336 63.2011 563.032 63.2011H567.688C571.848 63.2011 575.208 64.3371 577.768 66.6091C580.36 68.8491 581.656 71.6491 581.656 75.0091C581.656 78.3691 580.392 81.0891 577.864 83.1691C575.368 85.2491 572.2 86.2891 568.36 86.2891H563.128ZM566.056 64.6411C565.288 64.6411 564.904 65.1051 564.904 66.0331V81.0091C564.904 83.5051 565.24 84.7531 565.912 84.7531H567.64C570.584 84.7531 572.84 83.9211 574.408 82.2571C576.008 80.5931 576.808 78.2731 576.808 75.2971C576.808 72.2891 575.944 69.7931 574.216 67.8091C572.488 65.8251 569.816 64.7691 566.2 64.6411C566.136 64.6411 566.088 64.6411 566.056 64.6411ZM592.556 84.0811C592.556 84.8491 592.284 85.5211 591.74 86.0971C591.228 86.6411 590.588 86.9131 589.82 86.9131C589.084 86.9131 588.444 86.6571 587.9 86.1451C587.356 85.6011 587.084 84.9611 587.084 84.2251C587.084 83.4891 587.324 82.8491 587.804 82.3051C588.316 81.7291 588.94 81.4411 589.676 81.4411C590.444 81.4411 591.116 81.6971 591.692 82.2091C592.268 82.6891 592.556 83.3131 592.556 84.0811Z" fill="black"/>
</svg>
