<svg width="718" height="936" viewBox="0 0 718 936" fill="none" xmlns="http://www.w3.org/2000/svg">
<rect y="5.90906" width="709.623" height="929.321" transform="rotate(-0.47711 0 5.90906)" fill="#FFFFEC"/>
<path d="M119.337 181.789L156.393 163.435C166.856 158.252 179.032 157.776 189.868 162.127L221.546 174.846C232.533 179.258 244.89 178.704 255.439 173.329L274.405 163.663C284.856 158.337 297.087 157.742 308.005 162.029L342.946 175.747C352.821 179.623 363.813 179.522 373.614 175.463L405.465 162.275C416.205 157.828 428.327 158.149 438.817 163.157L460.328 173.429C471.412 178.721 484.284 178.765 495.404 173.55L517.833 163.03C528.34 158.102 540.443 157.857 551.141 162.357L597.337 181.789" stroke="black" stroke-width="7"/>
<path d="M119.337 266.789L156.393 248.435C166.856 243.252 179.032 242.776 189.868 247.127L221.546 259.846C232.533 264.258 244.89 263.704 255.439 258.329L274.405 248.663C284.856 243.337 297.087 242.742 308.005 247.029L342.946 260.747C352.821 264.623 363.813 264.522 373.614 260.463L405.465 247.275C416.205 242.828 428.327 243.149 438.817 248.157L460.328 258.429C471.412 263.721 484.284 263.765 495.404 258.55L517.833 248.03C528.34 243.102 540.443 242.857 551.141 247.357L597.337 266.789" stroke="black" stroke-width="7"/>
<path d="M119.337 181.789L156.393 163.435C166.856 158.252 179.032 157.776 189.868 162.127L221.546 174.846C232.533 179.258 244.89 178.704 255.439 173.329L274.405 163.663C284.856 158.337 297.087 157.742 308.005 162.029L342.946 175.747C352.821 179.623 363.813 179.522 373.614 175.463L405.465 162.275C416.205 157.828 428.327 158.149 438.817 163.157L460.328 173.429C471.412 178.721 484.284 178.765 495.404 173.55L517.833 163.03C528.34 158.102 540.443 157.857 551.141 162.357L597.337 181.789" stroke="black" stroke-width="7"/>
<path d="M119.337 181.789L156.393 163.435C166.856 158.252 179.032 157.776 189.868 162.127L221.546 174.846C232.533 179.258 244.89 178.704 255.439 173.329L274.405 163.663C284.856 158.337 297.087 157.742 308.005 162.029L342.946 175.747C352.821 179.623 363.813 179.522 373.614 175.463L405.465 162.275C416.205 157.828 428.327 158.149 438.817 163.157L460.328 173.429C471.412 178.721 484.284 178.765 495.404 173.55L517.833 163.03C528.34 158.102 540.443 157.857 551.141 162.357L597.337 181.789" stroke="black" stroke-width="7"/>
<path d="M119.337 181.789L156.393 163.435C166.856 158.252 179.032 157.776 189.868 162.127L221.546 174.846C232.533 179.258 244.89 178.704 255.439 173.329L274.405 163.663C284.856 158.337 297.087 157.742 308.005 162.029L342.946 175.747C352.821 179.623 363.813 179.522 373.614 175.463L405.465 162.275C416.205 157.828 428.327 158.149 438.817 163.157L460.328 173.429C471.412 178.721 484.284 178.765 495.404 173.55L517.833 163.03C528.34 158.102 540.443 157.857 551.141 162.357L597.337 181.789" stroke="black" stroke-width="7"/>
<path d="M119.337 181.789L156.393 163.435C166.856 158.252 179.032 157.776 189.868 162.127L221.546 174.846C232.533 179.258 244.89 178.704 255.439 173.329L274.405 163.663C284.856 158.337 297.087 157.742 308.005 162.029L342.946 175.747C352.821 179.623 363.813 179.522 373.614 175.463L405.465 162.275C416.205 157.828 428.327 158.149 438.817 163.157L460.328 173.429C471.412 178.721 484.284 178.765 495.404 173.55L517.833 163.03C528.34 158.102 540.443 157.857 551.141 162.357L597.337 181.789" stroke="black" stroke-width="7"/>
<path d="M119.337 814.789L156.393 796.435C166.856 791.252 179.032 790.776 189.868 795.127L221.546 807.846C232.533 812.258 244.89 811.704 255.439 806.329L274.405 796.663C284.856 791.337 297.087 790.742 308.005 795.029L342.946 808.747C352.821 812.623 363.813 812.522 373.614 808.463L405.465 795.275C416.205 790.828 428.327 791.149 438.817 796.157L460.328 806.429C471.412 811.721 484.284 811.765 495.404 806.55L517.833 796.03C528.34 791.102 540.443 790.857 551.141 795.357L597.337 814.789" stroke="black" stroke-width="7"/>
<path d="M119.337 729.789L156.393 711.435C166.856 706.252 179.032 705.776 189.868 710.127L221.546 722.846C232.533 727.258 244.89 726.704 255.439 721.329L274.405 711.663C284.856 706.337 297.087 705.742 308.005 710.029L342.946 723.747C352.821 727.623 363.813 727.522 373.614 723.463L405.465 710.275C416.205 705.828 428.327 706.149 438.817 711.157L460.328 721.429C471.412 726.721 484.284 726.765 495.404 721.55L517.833 711.03C528.34 706.102 540.443 705.857 551.141 710.357L597.337 729.789" stroke="black" stroke-width="7"/>
<path d="M119.337 644.789L156.393 626.435C166.856 621.252 179.032 620.776 189.868 625.127L221.546 637.846C232.533 642.258 244.89 641.704 255.439 636.329L274.405 626.663C284.856 621.337 297.087 620.742 308.005 625.029L342.946 638.747C352.821 642.623 363.813 642.522 373.614 638.463L405.465 625.275C416.205 620.828 428.327 621.149 438.817 626.157L460.328 636.429C471.412 641.721 484.284 641.765 495.404 636.55L517.833 626.03C528.34 621.102 540.443 620.857 551.141 625.357L597.337 644.789" stroke="black" stroke-width="7"/>
<path d="M119.337 559.789L156.393 541.435C166.856 536.252 179.032 535.776 189.868 540.127L221.546 552.846C232.533 557.258 244.89 556.704 255.439 551.329L274.405 541.663C284.856 536.337 297.087 535.742 308.005 540.029L342.946 553.747C352.821 557.623 363.813 557.522 373.614 553.463L405.465 540.275C416.205 535.828 428.327 536.149 438.817 541.157L460.328 551.429C471.412 556.721 484.284 556.765 495.404 551.55L517.833 541.03C528.34 536.102 540.443 535.857 551.141 540.357L597.337 559.789" stroke="black" stroke-width="7"/>
<path d="M119.337 455.789L156.393 437.435C166.856 432.252 179.032 431.776 189.868 436.127L221.546 448.846C232.533 453.258 244.89 452.704 255.439 447.329L274.405 437.663C284.856 432.337 297.087 431.742 308.005 436.029L342.946 449.747C352.821 453.623 363.813 453.522 373.614 449.463L405.465 436.275C416.205 431.828 428.327 432.149 438.817 437.157L460.328 447.429C471.412 452.721 484.284 452.765 495.404 447.55L517.833 437.03C528.34 432.102 540.443 431.857 551.141 436.357L597.337 455.789" stroke="black" stroke-width="7"/>
<path d="M119.337 370.789L156.393 352.435C166.856 347.252 179.032 346.776 189.868 351.127L221.546 363.846C232.533 368.258 244.89 367.704 255.439 362.329L274.405 352.663C284.856 347.337 297.087 346.742 308.005 351.029L342.946 364.747C352.821 368.623 363.813 368.522 373.614 364.463L405.465 351.275C416.205 346.828 428.327 347.149 438.817 352.157L460.328 362.429C471.412 367.721 484.284 367.765 495.404 362.55L517.833 352.03C528.34 347.102 540.443 346.857 551.141 351.357L597.337 370.789" stroke="black" stroke-width="7"/>
<path d="M342.116 54.0811L347.492 53.9851C347.748 53.9851 347.876 54.2411 347.876 54.7531C347.876 55.2331 347.748 55.4731 347.492 55.4731H345.188C344.484 55.4731 343.908 56.0011 343.46 57.0571C342.212 60.0331 340.116 65.2171 337.172 72.6091C334.26 79.9691 332.324 84.7211 331.364 86.8651C331.236 87.1531 330.9 87.2971 330.356 87.2971C329.812 87.2971 329.476 87.1531 329.348 86.8651C327.748 83.1531 325.108 76.2091 321.428 66.0331C320.692 67.8891 319.716 70.4331 318.5 73.6651C315.94 80.5131 314.212 84.9131 313.316 86.8651C313.188 87.1531 312.836 87.2971 312.26 87.2971C311.684 87.2971 311.332 87.1531 311.204 86.8651C308.324 80.1451 304.516 70.1451 299.78 56.8651C299.492 55.9691 299.028 55.5211 298.388 55.5211H296.66C296.468 55.5211 296.372 55.2651 296.372 54.7531C296.372 54.2411 296.468 53.9851 296.66 53.9851L301.94 54.0811L309.188 53.9851C309.508 53.9851 309.668 54.2411 309.668 54.7531C309.668 55.2331 309.508 55.4731 309.188 55.4731H306.404C305.412 55.4731 305.108 56.1611 305.492 57.5371C305.876 58.9131 306.516 61.0251 307.412 63.8731C308.34 66.6891 309.444 70.0331 310.724 73.9051C312.036 77.7771 312.884 80.3051 313.268 81.4891H313.46C316.436 73.2651 318.628 66.8651 320.036 62.2891C319.556 61.0091 318.916 59.2011 318.116 56.8651C317.828 55.9691 317.364 55.5211 316.724 55.5211H314.996C314.804 55.5211 314.708 55.2651 314.708 54.7531C314.708 54.2411 314.804 53.9851 314.996 53.9851L320.276 54.0811C320.276 54.0811 322.692 54.0491 327.524 53.9851C327.844 53.9851 328.004 54.2411 328.004 54.7531C328.004 55.2331 327.844 55.4731 327.524 55.4731H324.74C323.748 55.4731 323.444 56.1291 323.828 57.4411C324.468 59.9371 326.996 67.9531 331.412 81.4891H331.604C336.916 66.7691 339.572 58.4491 339.572 56.5291C339.572 55.8571 339.428 55.5211 339.14 55.5211H335.972C335.716 55.5211 335.588 55.2651 335.588 54.7531C335.588 54.2411 335.716 53.9851 335.972 53.9851L342.116 54.0811ZM355.395 54.0331L362.115 53.8891C362.371 53.8891 362.499 54.1611 362.499 54.7051C362.499 55.2491 362.371 55.5211 362.115 55.5211H360.051C359.251 55.5211 358.723 55.6811 358.467 56.0011C358.211 56.2891 358.083 56.8651 358.083 57.7291V80.4811C358.083 83.2971 358.419 84.7051 359.091 84.7051H361.875C362.131 84.7051 362.259 84.9771 362.259 85.5211C362.259 86.0331 362.131 86.2891 361.875 86.2891L355.827 86.2411L349.107 86.3851C348.851 86.3851 348.723 86.1131 348.723 85.5691C348.723 85.0251 348.851 84.7531 349.107 84.7531H351.171C351.971 84.7531 352.499 84.6091 352.755 84.3211C353.011 84.0011 353.139 83.4091 353.139 82.5451V59.7931C353.139 56.9771 352.803 55.5691 352.131 55.5691H349.347C349.091 55.5691 348.963 55.3131 348.963 54.8011C348.963 54.2571 349.091 53.9851 349.347 53.9851L355.395 54.0331ZM373.817 54.0331L380.537 53.8891C380.793 53.8891 380.921 54.1611 380.921 54.7051C380.921 55.2491 380.793 55.5211 380.537 55.5211H378.473C377.673 55.5211 377.145 55.6811 376.889 56.0011C376.633 56.2891 376.505 56.8651 376.505 57.7291V84.3691H379.289C384.377 84.3691 387.897 83.6971 389.849 82.3531L390.185 79.7131C390.249 79.4571 390.521 79.3291 391.001 79.3291C391.513 79.3291 391.769 79.4251 391.769 79.6171L391.337 87.3451C391.337 87.5691 391.081 87.6811 390.569 87.6811C390.089 87.6811 389.849 87.5691 389.849 87.3451V86.2891H374.249L367.529 86.3851C367.273 86.3851 367.145 86.1131 367.145 85.5691C367.145 85.0251 367.273 84.7531 367.529 84.7531H369.593C370.393 84.7531 370.921 84.6091 371.177 84.3211C371.433 84.0011 371.561 83.4091 371.561 82.5451V59.7931C371.561 56.9771 371.225 55.5691 370.553 55.5691H367.769C367.513 55.5691 367.385 55.3131 367.385 54.8011C367.385 54.2571 367.513 53.9851 367.769 53.9851C367.769 53.9851 369.785 54.0011 373.817 54.0331ZM401.52 54.0331L408.24 53.8891C408.496 53.8891 408.624 54.1611 408.624 54.7051C408.624 55.2491 408.496 55.5211 408.24 55.5211H406.176C405.376 55.5211 404.848 55.6811 404.592 56.0011C404.336 56.2891 404.208 56.8651 404.208 57.7291V84.3691H406.992C412.08 84.3691 415.6 83.6971 417.552 82.3531L417.888 79.7131C417.952 79.4571 418.224 79.3291 418.704 79.3291C419.216 79.3291 419.472 79.4251 419.472 79.6171L419.04 87.3451C419.04 87.5691 418.784 87.6811 418.272 87.6811C417.792 87.6811 417.552 87.5691 417.552 87.3451V86.2891H401.952L395.232 86.3851C394.976 86.3851 394.848 86.1131 394.848 85.5691C394.848 85.0251 394.976 84.7531 395.232 84.7531H397.296C398.096 84.7531 398.624 84.6091 398.88 84.3211C399.136 84.0011 399.264 83.4091 399.264 82.5451V59.7931C399.264 56.9771 398.928 55.5691 398.256 55.5691H395.472C395.216 55.5691 395.088 55.3131 395.088 54.8011C395.088 54.2571 395.216 53.9851 395.472 53.9851C395.472 53.9851 397.488 54.0011 401.52 54.0331Z" fill="black"/>
</svg>
