<svg width="766" height="1150" viewBox="0 0 766 1150" fill="none" xmlns="http://www.w3.org/2000/svg">
<path d="M354.459 304.202C375.563 269.392 428.557 279.443 435.449 319.564L474.331 545.91C477.44 564.005 491.457 578.268 509.496 581.69L689.411 615.817C722.956 622.18 736.787 662.664 714.147 688.222L592.992 824.993C584.146 834.979 580.308 848.438 582.558 861.587L615.964 1056.9C622.256 1093.68 582.777 1121.11 550.503 1102.37L437.603 1036.83C423.943 1028.89 407.08 1028.89 393.42 1036.83L275.428 1105.33C244.05 1123.54 205.349 1098.09 209.647 1062.06L230.766 885.036C231.892 875.6 229.932 866.052 225.18 857.822L43.1102 542.502C26.1728 513.168 47.3422 476.5 81.2143 476.5H225.221C240.604 476.5 254.871 468.466 262.846 455.311L354.459 304.202Z" fill="#75AF77"/>
</svg>
